<svg xmlns="http://www.w3.org/2000/svg" width="150mm" height="150mm" viewBox="0 0 15000 15000" shape-rendering="geometricPrecision" text-rendering="geometricPrecision" image-rendering="optimizeQuality" fill-rule="evenodd" clip-rule="evenodd"><path d="M11858 5056c16 0 31 0 31 16 110 16 188 109 172 219l-359 2000c-47-31-110-47-172-47h-219l359-2016c0-62 32-93 79-125 31-31 78-47 109-47zm-31 2329l78-485c15-109 125-187 234-171 110 31 172 125 157 234l-94 562-47 219-31 172c0 63-32 110-78 141-47 31-94 31-141 31-63-16-110-47-141-94-15-31-31-78-31-140 94-63 141-157 141-266 0-78-16-141-47-203zm-219 531c0 63 16 110 62 156 47 79 125 125 204 141h62c63 0 125-16 188-62 47-32 93-79 109-141 47 47 109 94 188 109h46c63 0 125-15 172-47v79c0 109-15 234-47 343-78 313-125 516-140 797 0 94 0 204 15 313 0 62-31 109-93 156-125 63-360 156-750 156h-16c-422 0-656-125-750-187-31-31-63-78-63-141v-62c-15-141-47-391-187-610-63-93-94-203-94-297v-656c0-234 0-422 78-516 63-47 141-78 266-78h672c140 0 219 94 219 219 0 94-63 203-235 203h-375c-31 0-47 0-47 16l-281 219c-31 15-31 62-16 93 16 16 32 16 63 16 15 0 15 0 31-16l266-203h31c141 31 531 172 531 1047 0 31 16 63 63 63 31 0 62-32 62-63 0-453-109-781-312-984-16-32-31-47-47-63h125zm-1219 141v562c0 125 31 250 109 375 125 188 141 407 157 547 0 32 0 47 15 63 0 78 32 172 110 219 140 93 390 219 828 219h16c422 0 672-94 812-172 110-63 172-172 156-282v-15c-15-94-15-188 0-282 0-265 47-468 125-750 47-140 63-265 63-390v-235c0-31 0-47 16-62l109-641c16-78 0-156-47-234-62-63-125-110-219-125-78-16-140 0-218 31-16-141-125-250-266-282-63-15-141 0-203 32l234-1313c16-94 0-172-62-250-47-78-125-125-204-141-93-15-171 16-250 63-62 47-109 125-125 203l-328 1828V5447c0-187-140-328-328-328-78 0-172 31-234 94-63 62-94 140-94 234v1860c-16 15-31 31-63 47-125 140-125 343-109 609v94zm313-797V5447c0-47 15-109 46-141 47-46 94-62 141-62 109 0 203 94 203 203v1797h-234c-63 0-110 0-156 16zm1890-281h32c47 0 93 31 125 78 31 47 31 93 31 140l-109 625-16 16v47h-16c-31 78-109 109-203 94-47 0-94-32-125-78-15-32-31-94-31-141l125-625c0-47 31-94 78-125 31-31 63-31 109-31zm-3813 468zm-1125 735c-172 0-297-125-297-297 0-94 32-172 94-234-109-32-203-47-219-47h-15c-32 0-47-32-47-63s31-62 62-62h610v15h31v32h16v125c0 15-16 31-16 46-16 16-31 16-47 16h-203v16h-16c-78 15-125 78-125 156 0 94 78 172 172 172h422c63 0 110-47 141-110v-31l15-15v-610s-15 0-15-16c-16-78-78-140-172-140H7045c-94 31-110 78-125 140v907c0 125 15 234 47 359 78 297 125 500 140 782 0 93 0 203-15 312 0 63 31 125 93 156 125 63 360 157 750 157h16c438 0 656-125 750-188 47-31 63-78 63-125v-15c15-16 15-32 15-47 16-188 47-516 282-750 203-219 234-938 234-1188v-16l109-1000c16-125 0-203-31-250s-94-62-156-62c-141-16-188 46-219 312l-62 500c62 125 15 297-110 375h-15l-94 63c16 140-78 281-219 328h-16l-125 31c-15 125-109 235-250 266 94 219 125 469 125 766 0 31-31 62-62 62s-63-31-63-62c0-329-46-579-125-766h-328zm-859-625v-250c0-110 31-297 328-313 31-47 94-94 172-109l78-16c16 0 16-15 16-15l218-110-15-1469c0-187 140-312 312-312 94 0 172 31 235 93 62 63 93 141 93 219l16 1141c125-63 266-16 359 78 0 16 16 16 16 31l16 16 187 359 47-297c16-171 47-453 360-437 93 16 187 47 234 125 62 62 78 187 62 344l-109 1000c0 78 16 984-266 1266-203 218-234 515-250 687v47c0 94-46 172-125 235-125 93-375 203-828 203h-16c-421 0-672-94-812-172-110-63-172-172-156-281 15-94 15-204 15-297-15-266-62-454-140-750-32-125-47-266-47-391v-625zm594-563h656c156 0 281 110 312 250v547l110-31c78-31 140-125 109-203l-125-610v-15h-15c-32-94-110-125-204-110l-843 172zm1093 828zm-640-1047l359-78c156-31 297 31 360 172 0 16 0 16 15 31v16l110 500 62-31c78-47 110-156 63-235l-282-547c-15 0-15 0-15-15-63-78-157-94-235-47l-31 16-406 218zm265-297V5291c0-63-31-110-62-141-47-47-94-62-141-62-94 0-187 78-187 187l15 1407 375-204zM2810 9745h47c312 0 515 15 812 93 94 32 235 32 375 32h1344c110 0 188-79 188-188s-78-187-188-187h-172c-31 0-62-32-62-79 0-31 31-62 62-62h313c109 0 203-78 203-188 0-109-94-203-203-203h-313c-31 0-62-31-62-62 0-32 31-63 62-63h485c94-15 187-78 187-203 0-47-15-94-47-141-46-31-93-47-140-47h-485c-31 0-62-31-62-62 0-47 31-78 62-78h485c109 0 187-78 187-188 0-109-78-203-187-203H4638s-16 0-31-15c-94-79-172-125-172-125-16-16-31-32-31-63l234-1016c47-187 0-265-156-297-63-15-125-15-172 16s-94 94-109 172l-188 766h-16c-46 140-156 203-281 281s-281 172-484 375h-16c-172 94-328 78-453 62-63 0-125-15-172 0h-16c-47 0-109 32-140 79-78 93-204 312-219 750 0 406 78 640 156 781 31 47 94 78 156 78 94-15 188-15 282-15zm1187 250c-140 0-265 0-359-32-281-62-484-78-781-93-94 0-204 0-313 15-109 16-234-47-281-140-94-141-188-407-172-844 15-453 140-704 250-844 47-78 141-110 234-125 63 0 125 0 203 15 110 0 235 16 376-46 203-204 375-297 500-375 109-79 187-125 234-219l188-750c15-110 78-204 171-250 79-47 172-63 266-47 219 62 313 218 250 453l-219 984c32 16 79 47 125 94h1032c172 0 328 141 328 328 0 110-63 204-141 266 16 0 32 16 32 31 62 47 109 141 109 219 0 156-109 281-250 313 47 62 78 140 78 218 0 141-94 266-219 313 47 47 63 125 63 203 0 172-141 313-313 313H3997z" fill="#fefefe" fill-rule="nonzero"/><path fill="none" d="M0 0h15000v15000H0z"/></svg>