<svg xmlns="http://www.w3.org/2000/svg" width="150mm" height="150mm" viewBox="0 0 15000 15000" shape-rendering="geometricPrecision" text-rendering="geometricPrecision" image-rendering="optimizeQuality" fill-rule="evenodd" clip-rule="evenodd"><defs><style>.fil0{fill:#fefefe;fill-rule:nonzero}</style></defs><g id="Слой_x0020_1"><g id="_534494064"><path class="fil0" d="M8943 7451c429-409 975-624 1521-624 585 0 1150 215 1579 663 429 429 644 995 644 1560 0 566-215 1131-644 1560s-994 644-1579 644c-566 0-1131-215-1560-644s-644-994-644-1560c0-546 215-1111 605-1540l39-20 39-39zm0 3042l819-799c-390-390-897-605-1385-624 0 526 195 1033 566 1423zm897-877l565-566-1462-1462c-371 390-566 877-566 1384 527 20 1053 234 1463 644zm624-644l487-487c-390-429-585-995-585-1541-487 20-975 215-1345 566l1443 1462zm565-565l897-897c-409-371-936-566-1443-566-19 527 156 1053 546 1463zm975-819l-897 897c410 409 936 604 1463 604v-39c0-526-176-1053-566-1462zm-975 975l-487 487 1462 1443c351-370 527-819 566-1287-546 0-1112-214-1541-643zm-565 565l-566 566c371 390 585 916 585 1462 527 0 1034-195 1443-585l-1462-1443zm-624 624l-819 819c390 371 877 566 1365 585-20-507-195-994-546-1404z"/><path class="fil0" d="M8943 7432c214-195 448-351 702-449 273-117 546-156 819-156 292 0 585 59 858 156 273 117 507 273 721 488 215 214 371 468 488 721 117 273 175 566 175 858 0 293-58 566-175 839s-273 507-488 721c-214 215-448 390-721 488-273 117-566 175-858 175-273 0-566-58-839-175-273-98-507-273-721-488-215-214-371-448-488-721s-175-546-175-839c0-292 58-565 175-838 98-254 254-488 449-702l39-39 39-39zm721-429c-253 97-507 253-702 448l-39 39-39 39c-195 215-351 449-448 702-117 254-156 527-156 819 0 273 58 566 156 839 117 253 273 507 487 702 215 214 449 370 702 487 273 117 566 156 839 156 292 0 585-39 858-156 253-117 487-273 702-487 214-195 370-449 487-702 98-273 156-566 156-839 0-292-58-585-156-838-117-273-273-507-487-722-215-214-449-370-702-468-273-117-566-175-858-175-273 0-546 58-800 156zm-721 3471l799-780c-195-195-409-332-624-429-234-98-487-156-741-176 0 254 59 507 156 741 98 234 234 449 410 644zm819-780l-800 819h-19c-195-195-332-429-429-663-98-254-156-507-156-780h19c254 0 507 58 741 175 234 98 468 234 644 429 19 0 19 20 0 20zm78-98l546-546-1443-1443c-176 195-312 410-390 624-98 234-156 488-176 722 273 19 546 78 800 195 234 97 468 253 663 448zm565-546l-565 566h-20c-195-195-429-351-663-449-253-117-526-175-780-175-19 0-19-20-19-20 0-253 58-507 156-741 97-234 234-448 429-643h19l1443 1443v19zm59-97l468-468c-195-215-332-449-429-702-98-273-156-546-156-819-234 0-468 58-702 156-215 97-429 234-605 409l1424 1424zm507-449l-488 468c0 20-19 20-19 0L9021 7529c-20 0-20-19 0-19 175-176 390-312 624-410 234-97 468-156 721-175 20 0 20 19 20 19 0 273 39 566 136 819 98 254 254 507 449 722v19zm58-117l878-858c-195-195-410-331-663-429-234-97-488-156-761-156 0 273 39 527 137 780 97 254 234 468 409 663zm897-858l-897 897c-195-214-331-448-429-682-97-254-136-527-136-800 0-19 0-19 19-19 254 0 527 58 780 156 234 97 468 234 663 429 20 0 20 19 0 19zm78 78l-877 878c195 195 409 351 663 448 253 98 507 137 780 156v-39c0-273-59-526-156-780-98-234-234-468-410-663zm-916 878l897-897h19c195 195 332 429 429 663 117 253 156 526 156 799v39c0 20 0 20-19 20-273 0-546-59-800-156-234-98-468-254-682-449v-19zm-59 97l-468 468 1443 1424c156-176 293-371 390-585 98-215 156-449 156-683-273 0-546-58-819-156-253-117-487-273-702-468zm-487 449l468-468c19-20 19-20 19 0 215 195 449 351 722 468 253 97 546 156 819 156 19 0 19 0 19 19-19 234-78 468-175 702-98 215-234 410-410 605h-19l-1443-1463v-19zm-78 97l-546 566c195 195 331 429 429 663 97 253 156 507 156 780 253 0 507-59 760-156 234-98 449-234 644-410l-1443-1443zm-566 546l566-565h19l1443 1443v19c20 0 20 0 0 0-195 195-409 351-663 449-253 97-507 136-780 136m-585-1462v-20m429 702c-97-253-253-487-429-682m585 1462c-19-273-58-546-156-780m-487-604l-800 799c176 176 390 312 605 410 234 78 487 136 721 156 0-254-58-488-136-722-98-234-234-448-390-643zm-819 780l799-800h20c175 195 312 410 409 644 98 234 137 487 137 760-254 0-507-58-741-156-234-97-449-234-624-429-20 0-20 0 0-19zm1365 604zM2352 4156h254c-20 19 0 58 0 78h-215v3276h5129V4234h-254c20-20 20-59 20-78h272c20 0 39 19 39 39v3354c0 19-19 39-39 39H2352c-19 0-39-20-39-39V4195c0-20 20-39 39-39z"/><path class="fil0" d="M2352 4136h254v59c0 19 0 19 19 39l-19 19h-215v3237h5109V4253h-234l-19-19c19-20 19-20 19-39 20-20 20-20 20-39v-20h272c20 0 20 20 39 20 0 19 20 19 20 39v3354c0 19-20 19-20 39H2313c-19-20-19-20-19-39V4195c0-20 0-20 19-39 0 0 20-20 39-20zm234 39h-253c-20 0-20 20-20 20v3354s0 19 20 19h5245V4175h-273v20l-19 19h234l19 20v3276H2372V4234s0-20 19-20h195v-39z"/><path class="fil0" d="M4926 3941c507-292 1053-195 1580-97 273 39 526 78 780 78 39 0 58 39 58 58v3218c0 19-19 39-58 39-254 0-527-39-780-78-507-78-1014-156-1541 78-19 0-58 0-58-20l-20-19V3980c0-19 20-39 39-39zm1560 0c-507-97-1014-195-1482 59v3120c507-215 1014-137 1521-59 234 39 468 78 722 78V4039c-254-20-507-59-761-98z"/><path class="fil0" d="M4926 3922c254-137 507-195 780-195s527 39 800 97c273 39 526 98 780 98 19 0 39 0 39 19 19 0 19 20 19 39v3218s0 19-19 39c0 0-20 19-39 19-137 0-254-19-390-39-137 0-273-19-390-39-254-39-507-78-761-78-253 0-526 39-780 137-19 19-19 19-39 19-19-19-39-19-39-39v-19m819-3452c-273 0-526 59-780 195 0 0 0 20-19 20v3237c0 19 19 19 19 19 20 20 20 20 39 0 254-117 507-156 780-156 254 0 507 39 761 78 136 20 253 39 390 59 136 19 253 19 390 19h39V3961c-20-20-20-20-39-20-254 0-527-39-780-97-273-39-527-98-800-98zm-819 3452V3941c20 0 20-19 39-19m1560 0c137 19 254 39 390 58 117 20 234 39 371 39v3140c-254-20-488-59-722-78-253-39-507-78-760-98-254 0-507 39-761 137h-19V4000c487-273 994-176 1501-78zm0 19c-507-78-1014-175-1482 78v3081c254-97 507-136 761-136 253 0 507 39 760 78 234 39 468 78 702 78V4039c-117 0-234-20-370-39-117 0-234-39-371-59z"/><path class="fil0" d="M4887 4019c-468-253-975-156-1501-78-254 59-488 98-741 98v3120c234-20 487-59 721-78 507-78 995-156 1521 39V4019zm-1521-175c546-98 1073-195 1599 97 20 20 20 39 20 59v3217c-20 39-39 39-59 39-526-234-1033-156-1540-78-273 39-527 78-800 78-19 0-39-19-39-58V4000c0-39 20-59 39-59 273 0 527-39 780-97z"/><path class="fil0" d="M4868 4039c-234-137-468-176-722-176-234 0-487 59-760 98-234 39-488 78-722 97v3081c234 0 468-39 702-78 254-39 507-78 761-78 234 0 487 20 741 117V4039zm-722-195c254 0 507 39 741 175h20v3120h-20c-253-97-526-136-760-136-254 0-507 39-761 78-234 39-487 78-721 78h-20V4039h20c253-20 487-59 741-98 253-58 507-97 760-97zm-780 0c273-59 546-98 819-98 254 0 527 39 780 195 20 0 20 0 20 20 19 0 19 19 19 39v3217l-19 20-20 19h-58c-254-117-507-156-761-156-253 0-507 39-760 78-137 20-273 39-390 59-137 19-273 19-410 19-19 0-19 0-39-19 0 0-19-20-19-39V4000c0-20 19-39 19-59 20 0 20-19 39-19 254 0 527-39 780-78zm819-78c-273 0-546 39-799 97-273 39-527 98-800 98h-19c0 19-20 19-20 39v3198c0 19 20 19 20 39h19c137 0 273 0 390-20 137-19 273-39 410-58 253-39 507-78 760-78 254 0 507 39 780 156h20c19 0 19-20 19-20V3980c0-19 0-19-19-19-254-156-507-195-761-195zm2106 4075h117c20 0 39 20 39 59 0 19-19 39-39 39h-58v819h58c20 0 59 19 59 58 0 20-39 39-59 39H3366c-19 0-39 0-39-19-97-176-156-332-156-507 0-156 59-312 156-468 0 0 20-20 39-20h2925zm-1306 917h1267v-819H3425v819h1560zm-1716-429c0 78 19 175 58 253v-507c-39 98-58 176-58 254z"/><path class="fil0" d="M6291 7822h117c20 0 20 19 39 19 20 20 20 39 20 59 0 19 0 19-20 39-19 19-19 19-39 19h-58v780h58c20 0 39 20 39 20 20 19 20 39 20 58 0 0 0 20-20 39 0 0-19 20-39 20H3366c-19 0-19 0-39-20 0 0-19 0-19-19-39-78-78-176-117-254-20-78-20-175-20-253s0-156 20-234l117-234 19-20h39v-19h2925zm117 39H3347l-20 19c-39 59-78 137-97 215-39 78-39 156-39 234s0 156 39 253c19 78 58 156 97 254h20l19 19h3042c20 0 20-19 20-19 19 0 19-20 19-20 0-19 0-19-19-39h-78c-20 0-20-19-20-19v-819h78l20-20 19-19c0-20-19-20-19-39h-20zm-1423 877h1248v-780H3425v780h1560zm1267 39H3425c-20 0-20-19-20-19v-819h2847v838zm-2964-448v136c20 0 20 20 20 39v-331s0 19-20 39v117zm-19 136v-253c19-59 19-98 39-137h19v527h-19c-20-59-20-98-39-137zm2788 1697h117c20 0 39 19 39 39 0 39-19 58-39 58h-58v819h58c20 0 39 20 39 39 0 39-19 59-39 59H3132c-19 0-39-20-39-20-97-175-156-351-156-507s39-312 156-468c0-19 20-19 39-19h2925zm-1306 916h1267v-819H3191v819h1560zm-1716-429c0 78 19 176 39 254v-507c-20 78-39 156-39 253z"/><path class="fil0" d="M6057 10142h117s20 0 39 20c0 19 20 19 20 39 0 19-20 39-20 58-19 0-39 20-39 20h-58v780h58c20 0 39 0 39 19 20 20 20 20 20 39 0 20 0 39-20 39 0 20-19 20-39 20H3093l-19-20c-39-97-78-175-117-253-20-98-39-176-39-254s19-175 39-253c39-78 78-156 117-215 0-19 19-19 19-19 20-20 20-20 39-20h2925zm117 20H3132s-19 0-19 19h-20c-39 78-78 156-97 234-39 78-39 156-39 234s0 156 39 234c19 98 58 176 97 254l20 19h3081c19-19 19-19 19-39 0 0 0-19-19-19l-20-20h-78v-819s0-19 20-19h78v-59l-20-19zm-1423 897h1248v-780H3191v780h1560zm1267 19H3171v-819s0-19 20-19h2827v838zm-2964-429v117c0 20 20 39 20 59v-351c0 19-20 39-20 39v136zm-19 117c0-39-20-78-20-117s20-97 20-136 19-78 39-117v-20c19 0 19 20 19 20v526c-19 0-19 0-19-19-20-39-39-78-39-137zm-137-741l-39-39c-97-156-136-331-136-507 0-156 39-312 136-448 20-20 39-20 59-20h3022c39 0 59 20 59 39 0 39-20 59-59 59h-58v799h78c19 0 39 39 39 59 0 19-20 58-39 58H2898zm-78-546c0 98 20 176 39 273v-507c-19 78-39 156-39 234zm1716 429h1248v-799H2957v799h1579z"/><path class="fil0" d="M2898 10025h-19l-20-19c-58-98-97-176-117-273-19-78-39-156-39-254 0-78 20-156 39-234 20-78 59-156 117-234 0 0 20 0 20-19h3061c20 0 39 0 39 19h20v39c0 20 0 39-20 39 0 20-19 20-39 20h-39v799h59s19 0 39 20c0 0 19 19 19 39 0 19-19 39-19 39-20 19-39 19-39 19H2898zm0-19h3062s19 0 19-20v-39c0-19-19-19-19-19h-78v-839h58c20 0 20 0 39-19v-39c-19-20-19-20-39-20H2898l-19 20c-59 78-98 156-117 214-20 78-39 156-39 234 0 98 19 176 39 254 19 78 58 175 117 253l19 20zm-78-527c0 59 20 98 20 137 0 19 0 39 19 39v-332c-19 20-19 20-19 39 0 39-20 78-20 117zm0 137c-19-39-19-78-19-137 0-39 0-78 19-117 0-39 20-78 39-117v-19c20 0 20 19 20 19v507h-20c0 20 0 0 0 0-19-39-39-97-39-136zm1716 292h1248v-799H2976v799h1560zm1248 20H2957v-839h2827c20 0 20 0 20 20v799c0 20 0 20-20 20z"/></g><path fill="none" d="M0 0h15000v15000H0z"/></g></svg>