<svg xmlns="http://www.w3.org/2000/svg" width="150mm" height="150mm" viewBox="0 0 15000 15000" shape-rendering="geometricPrecision" text-rendering="geometricPrecision" image-rendering="optimizeQuality" fill-rule="evenodd" clip-rule="evenodd"><defs><style>.str0{stroke:#fefefe;stroke-width:130}.fil0{fill:none}</style></defs><g id="Слой_x0020_1"><path class="fil0" d="M0 0h15000v15000H0z"/><g id="_406273376"><path class="fil0 str0" d="M4129 10018l839-834c370 344 674 593 1057 196 366-381 123-684-205-1052l831-833-826-823c-391 312-639 560-1020 221-397-353-189-690 140-1061l-805-843c-486 427-2261 2007-2274 2493-14 528 1781 2049 2263 2536zm6724-2l-831-830c339-381 609-675 187-1064-538-496-732 224-1122 129l-756-746-816 812c296 427 574 611 216 1025-364 421-679 188-1070-134l-833 799c361 445 2099 2264 2483 2284 498 27 2099-1801 2542-2275zM6649 5819c-326 325-542 664-224 1021 381 428 686 192 1064-172l644 609 593-592c-165-500-467-776 37-1286 503-508 808-163 1281-39l577-571c-254-366-828-870-1162-1204-1063-1063-879-1707-3644 1401l834 833z"/><path class="fil0 str0" d="M9178 6658l-613 611 564 609c510-132 781-445 1289 36 403 381 316 871 8 1266l641 631c406-406 812-813 1219-1218 377-377 947-782 833-1222-78-304-1910-2084-2272-2369l-831 815c-876-867-1706-19-838 841z"/></g></g></svg>