<svg xmlns="http://www.w3.org/2000/svg" width="150mm" height="150mm" viewBox="0 0 15000 15000" shape-rendering="geometricPrecision" text-rendering="geometricPrecision" image-rendering="optimizeQuality" fill-rule="evenodd" clip-rule="evenodd"><g fill-rule="nonzero"><path d="M10141 8880c0 351 216 595 541 649l-541 919c-27 0-27 54-27 81 0 55 81 109 135 109s108 0 135-54l595-1028h352v946c0 82 54 163 135 163s135-81 135-163V8339c0-82-81-163-162-163h-541c-568 0-757 352-757 704zm270 0c0-217 108-433 514-433h406v838h-433c-297 0-487-162-487-405zm-5788 1487c0-81-54-135-136-135h-973l1082-1921c0-27 27-54 27-108 0-81-54-135-136-135H3297c-81 0-135 54-135 135s54 136 135 136h974l-1082 1893c0 27-27 81-27 108 0 81 54 162 135 162h1190c82 0 136-81 136-135zm2353-5274h866l162 487c27 54 81 108 135 108 81 0 135-54 135-136v-54l-676-2136c-27-109-81-190-189-190-81 0-136 81-163 190l-676 2136s-27 27-27 54c0 82 81 136 162 136 55 0 109-54 136-108l135-487zm433-1434l351 1163h-703l352-1163zM3541 7608c81-1487 973-2786 2407-3381l-622-216c-54-27-54-81-54-109 27-54 81-81 108-54l784 298c55 27 55 81 55 108l-298 785c-27 54-81 54-108 54-54-27-54-54-54-109l243-595c-1352 568-2218 1813-2299 3192-27 162-162 81-162 27zm5166-3462c1380 460 2407 1677 2597 3192l406-541c27-27 81-27 108 0s27 81 0 108l-487 676c-27 27-81 54-108 27l-677-514c-54-27-54-81-27-108s81-54 109-27l513 406c-162-1461-1163-2624-2461-3084-135-54-27-162 0-162l27 27zm649 7087c-1244 730-2840 703-4111-163l135 650c0 54-27 81-54 108-54 0-81-27-108-81l-163-812h-27c0-54 27-81 82-108l811-162c54-27 81 0 108 54 0 27-27 81-81 81l-622 135c1217 812 2732 839 3949 163 135-55 162 108 108 135h-27z" fill="#fefefe"/><path d="M8761 10800c-676 298-1460 379-2245 216M4271 7284c162-731 568-1407 1163-1921m3381-351c649 351 1190 946 1515 1649" fill="none" stroke="#fefefe" stroke-width="124.85" stroke-linecap="round" stroke-linejoin="round"/></g><path fill="none" d="M0 0h15000v15000H0z"/></svg>