<svg xmlns="http://www.w3.org/2000/svg" width="150mm" height="150mm" viewBox="0 0 15000 15000" shape-rendering="geometricPrecision" text-rendering="geometricPrecision" image-rendering="optimizeQuality" fill-rule="evenodd" clip-rule="evenodd"><defs><style>.fil0{fill:#fefefe;fill-rule:nonzero}</style></defs><g id="Слой_x0020_1"><g id="_534489960"><path class="fil0" d="M2131 8007c220 0 440 51 643 136 203 84 389 202 541 355 152 152 271 338 355 541 85 203 135 422 135 642 0 237-50 440-135 643-84 203-203 389-355 541s-338 287-541 372c-203 67-423 118-643 118-219 0-439-51-642-118-203-85-389-220-541-372s-271-338-372-541c-68-203-118-406-118-643 0-220 50-439 118-642 101-203 220-389 372-541 152-153 338-271 541-355 203-85 423-136 642-136zm1100 575c-153-135-322-253-508-338-186-68-389-101-592-101-202 0-405 33-591 101-186 85-355 203-508 338-135 152-253 321-338 507-67 186-118 389-118 592 0 220 51 406 118 592 85 186 203 355 338 507 153 136 322 254 508 338 186 68 389 119 591 119 203 0 406-51 592-119 186-84 355-202 508-338 135-152 253-321 338-507 67-186 118-372 118-592 0-203-51-406-118-592-85-186-203-355-338-507zm760-592h3247c17 0 34 17 51 34 17 0 17 17 17 34v3246c0 17 0 34-17 51-17 0-34 17-51 17H3991c-16 0-33-17-33-17-17-17-17-34-17-51V8058c0-17 0-34 17-34 0-17 17-34 33-34zm3196 136H4059v3111h3128V8126zM4076 4558l913 1589 930 1590v50c0 17-17 34-34 34 0 0 0 17-17 17H2182c-17 0-34-17-51-17 0-17-16-34-16-50 0 0 0-17 16-17v-17l914-1590 930-1589c0-17 16-34 33-34h51v17c17 0 17 17 17 17zm812 1657l-863-1505-862 1505-879 1488h3466l-862-1488z"/><path class="fil0" d="M10467 3611l964 2891 3044-33c34 0 68 33 68 67 0 17-17 51-34 51l-2452 1809 964 2892c17 33 0 67-34 84-34 0-51 0-68-17l-2468-1775-2452 1826c-34 17-68 0-102-17 0-17-17-51 0-68l913-2908-2468-1758c-34-17-34-68-17-102 17-17 34-17 51-17l3043-17 913-2908c17-34 51-51 85-51 17 17 34 34 50 51zm846 2976l-913-2739-862 2756c-17 34-34 51-68 51l-2875 16 2351 1674c17 17 34 34 17 68l-880 2756 2317-1725c34-16 67-16 84 0l2351 1674-930-2722c0-34 0-67 34-84l2316-1708-2874 34c-34 0-68-17-68-51z"/><path d="M11567 5758l676 2097h2198c17 0 34 0 51 17 17 0 17 17 17 34v34c-17 0-17 17-17 17l-1793 1302 677 2096c17 17 17 34 0 51 0 17-17 17-34 34m-1116-3568l-693-2114v-17h-17c-17-16-17-16-34 0 0 0-17 0-17 17l-440 1370m-997 744H8540s0 17-17 17v34s0 17 17 17l51 33m5850-101h-2215m2249 17c0-17-17-17-34-17m51 34l-17-17m0 34c17 0 17 0 17-17m-17 34v-17m-1792 1319l1792-1302m-1809 1319c0-17 0-17 17-17m676 2113l-693-2096m693 2130v-34m-17 51s17 0 17-17m-51 17h34m-34 34l-17-17-1133-829m-997-220l-1437 1049c-17 17-34 17-51 17-17-17-34-17-34-34-17 0-17-17-17-17v-34l271-795M8540 7973l-17-16c-17 0-17-17-34-34 0-17 17-34 17-51 0 0 17-17 34-17h1488m981-778l439-1319c0-17 17-33 34-50h34c17 0 17 17 34 17 0 16 17 16 17 33m1724 5648h17m-1167-846l1150 846m-3584 0l1437-1048m-1471 1048h34m-51-17c0 17 17 17 17 17m-34-34c0 17 17 17 17 17m0-34l-17 17m287-845l-270 828" fill="none" fill-rule="nonzero"/></g><path fill="none" d="M0 0h15000v15000H0z"/></g></svg>