<svg xmlns="http://www.w3.org/2000/svg" width="150mm" height="150mm" viewBox="0 0 15000 15000" shape-rendering="geometricPrecision" text-rendering="geometricPrecision" image-rendering="optimizeQuality" fill-rule="evenodd" clip-rule="evenodd"><defs><style>.str0{stroke:#fefefe;stroke-width:124.85;stroke-linecap:round;stroke-linejoin:round}.fil0{fill:none}</style></defs><g id="Слой_x0020_1"><g id="_534468072"><g id="_680185992"><path class="fil0 str0" d="M5627 5333c496-82 827-545 744-1025-49-314-248-562-513-678 34-33 83-83 149-116 33-17 50-50 50-83-17-33-33-49-66-66-149-50-315-16-480 33 17-49 50-116 83-182 16-16 16-49 0-82-17-34-50-34-83-34-331 50-562 431-661 646-17 33-17 66-34 115-165 182-248 447-198 728 66 480 529 827 1009 744zm6119-165c-132-116-330-116-446 16l-1042 1125c-83-66-182-99-298-116l-446-82c-116-17-232 0-331 33l-645-1406c-66-149-248-215-414-149-149 83-215 265-149 414l745 1620c-17 67 16-66-248 1671l-414 496 17 17c99 148 165 314 165 496v1505h17c215 0 397-182 397-397V9303l430-529 380 66-99 645v66l16 1389c0 215 166 381 381 381s397-182 397-397l-17-1357c17-148 414-2596 414-2662l1207-1290c116-133 99-331-17-447z"/><path class="fil0 str0" d="M9778 5846c414 66 794-198 860-612 33-231-49-446-182-612 0-33-16-66-33-99-66-166-264-480-545-529-17 0-50 0-67 33-16 16-16 49 0 66 33 49 50 99 67 149-133-50-265-66-397-33-34 16-50 33-50 66s16 49 33 66c50 33 99 66 132 99-231 99-397 298-430 563-66 397 215 793 612 843zM7215 8261l-315-2001 894-1952c99-182 16-397-182-480-182-99-397-16-497 166l-760 1687c-133-50-265-50-397-33l-546 82c-132 17-248 66-347 149L3808 4523c-149-149-381-149-530-17-149 149-165 381-16 530l1439 1554s215 1406 512 3192l-33 1638c0 264 215 463 463 480h17c248 0 463-215 463-464l17-1670v-83l-133-761 463-99 530 645v1340c0 248 198 463 463 463 248 0 463-215 463-463V9303c0-99-33-215-99-298l-612-744z"/></g></g><path class="fil0" d="M0 0h15000v15000H0z"/></g></svg>