<svg xmlns="http://www.w3.org/2000/svg" width="150mm" height="150mm" viewBox="0 0 15000 15000" shape-rendering="geometricPrecision" text-rendering="geometricPrecision" image-rendering="optimizeQuality" fill-rule="evenodd" clip-rule="evenodd"><defs><style>.str0{stroke:#fefefe;stroke-width:130}.fil0{fill:none}</style></defs><g id="Слой_x0020_1"><path class="fil0" d="M0 0h15000v15000H0z"/><g id="_405607832"><path class="fil0 str0" d="M10346 9152c-136 196-107 69-260 197-37 32-57 41-93 67-72 51-70 92-147 151-59 46-132 94-169 148 35 51 87 104 123 158-31 48-68 75-105 123l-334 405c-105 171-74 545 334 545 251 0 436-372 615-492 33 48 69 74 106 123 36 47 73 90 123 123 88-59 238-281 317-334l206 180c44 41 60 51 105 89s63 64 110 100c264 201 433 211 757 211 128 0 318-48 412-133 354-324 297-778 227-1192-16-91-32-96-56-243l-123-774c-33-232-26-518-161-735-159-255-373-229-598-229-197 0-510 287-684 424-64 51-137 148-230 156l-93-576c-81-495-605-404-658-50-9 62 151 1060 171 1347 9 131 54 135 105 211zm-3828-747c8 11 594 498 677 562 80 62 180 127 229 200-46 70-117 141-167 215 43 64 93 102 143 167l453 549c142 230 101 738-453 738-341 0-592-505-834-667-44 65-93 101-143 167-49 64-100 121-167 167-120-81-322-382-429-453l-280 244c-60 56-82 69-142 120-62 52-86 88-150 137-357 272-586 285-1025 285-174 0-432-65-559-181-480-438-402-1053-307-1614 21-125 43-131 76-330l166-1049c44-315 35-702 219-997 215-346 505-311 810-311 266 0 1104 985 1339 1171 1891 257 1885 218 2025 503 58 117 14 345-94 417-256 168-1346-101-1387-40z"/><path class="fil0 str0" d="M10771 6661c0 201-2 257 96 440 51 95 88 133 162 207 73 73 107 104 220 149 738 289 1344-472 1033-1085-180-294-258-364-710-444-440-78-234-194-302-162-182 86-26 261-88 282-86-36-135-116-124-233 6-58-178 128-142 389-85 109-145 274-145 457zM5922 4972c0 272 22 404-110 652-70 130-120 180-221 280-99 99-144 142-298 203-999 392-1822-640-1400-1471l55-89c142-200 343-384 595-453 221-61 473-50 668 16 105 36 177 68 257 124 35 24 20 14 53 43l50 44c169 126 351 403 351 651zm-2298-3c215 646-581 161-1002 1232-32 82-64 146-85 225-30 109-12 154-95 215-153-113-167-537-167-716 0-79 72-333 98-402 244-637 1151-854 1251-554z"/></g></g></svg>