<svg width="601" height="588" fill="none" xmlns="http://www.w3.org/2000/svg"><path d="M364.713 89.828c8.535-10.54 25.57-4 24.861 9.543l-7.658 146.124a15.999 15.999 0 0010.244 15.774l136.605 52.438c12.662 4.86 11.707 23.083-1.393 26.593l-141.339 37.872a16 16 0 00-11.837 14.617l-7.658 146.124c-.71 13.544-18.336 18.267-25.722 6.892l-79.694-122.718a16 16 0 00-17.56-6.74l-141.338 37.871c-13.1 3.511-23.039-11.793-14.504-22.333l92.085-113.715a16 16 0 00.984-18.784l-79.693-122.718c-7.387-11.374 4.097-25.555 16.758-20.695l136.606 52.438a16 16 0 0018.168-4.868l92.085-113.715z" stroke="#9E86BD" stroke-width="2"/></svg>