<svg width="453" height="434" viewBox="0 0 453 434" fill="none" xmlns="http://www.w3.org/2000/svg">
<path d="M206.31 18.8392C210.048 5.80242 228.284 5.16562 232.923 17.9099L278.818 144.004C281.188 150.518 287.484 154.764 294.411 154.522L428.516 149.839C442.07 149.366 448.311 166.513 437.624 174.863L331.883 257.477C326.421 261.744 324.328 269.043 326.699 275.557L372.593 401.652C377.232 414.396 362.853 425.63 351.609 418.046L240.363 343.01C234.616 339.134 227.028 339.399 221.565 343.666L115.825 426.28C105.137 434.63 90.0094 424.426 93.7477 411.389L130.735 282.4C132.645 275.737 130.048 268.602 124.302 264.725L13.0555 189.689C1.81196 182.105 6.84173 164.564 20.3956 164.091L154.501 159.408C161.428 159.166 167.412 154.491 169.323 147.828L206.31 18.8392Z" stroke="white" stroke-width="2"/>
</svg>
