<svg width="268" height="260" viewBox="0 0 268 260" fill="none" xmlns="http://www.w3.org/2000/svg">
<path d="M102.022 35.2275C103.675 21.7665 121.588 18.2847 128.163 30.1464L154.557 77.7636C157.918 83.8261 164.8 87.0353 171.604 85.7127L225.047 75.3244C238.36 72.7366 247.207 88.6964 237.958 98.6151L200.827 138.432C196.1 143.502 195.175 151.039 198.535 157.101L224.93 204.719C231.505 216.58 219.06 229.926 206.768 224.194L157.426 201.186C151.144 198.256 143.69 199.705 138.963 204.774L101.832 244.592C92.5829 254.511 76.0448 246.799 77.6976 233.338L84.3326 179.3C85.1773 172.42 81.4959 165.779 75.2137 162.849L25.8713 139.841C13.5798 134.109 15.8037 115.997 29.1167 113.409L82.5597 103.021C89.364 101.699 94.5428 96.145 95.3875 89.2651L102.022 35.2275Z" stroke="white" stroke-width="2"/>
</svg>
