<?xml version="1.0" encoding="UTF-8"?>
<!DOCTYPE svg PUBLIC "-//W3C//DTD SVG 1.1//EN" "http://www.w3.org/Graphics/SVG/1.1/DTD/svg11.dtd">
<!-- Creator: CorelDRAW X6 -->
<svg xmlns="http://www.w3.org/2000/svg" xml:space="preserve" width="150mm" height="150mm" version="1.1" style="shape-rendering:geometricPrecision; text-rendering:geometricPrecision; image-rendering:optimizeQuality; fill-rule:evenodd; clip-rule:evenodd"
viewBox="0 0 15000 15000"
 xmlns:xlink="http://www.w3.org/1999/xlink">
 <defs>
  <style type="text/css">
   <![CDATA[
    .str0 {stroke:#FEFEFE;stroke-width:124.89;stroke-linecap:round;stroke-linejoin:round}
    .fil0 {fill:none}
   ]]>
  </style>
 </defs>
 <g id="Слой_x0020_1">
  <metadata id="CorelCorpID_0Corel-Layer"/>
  <g id="_534490392">
   <g id="_680183616">
    <g id="XMLID_110_">
     <path id="XMLID_119_" class="fil0 str0" d="M3892 6229c466,85 931,-233 1016,-699 85,-487 -212,-932 -699,-1017 -466,-106 -932,212 -1016,699 -85,466 233,932 699,1017z"/>
     <path id="XMLID_118_" class="fil0 str0" d="M12575 9681c-402,-2033 -275,-1398 -529,-2774 -64,-382 -424,-636 -805,-551 -339,63 -572,339 -572,656l-530 551 -826 -254c-21,-21 -63,-21 -105,-21l84 -191c21,-21 21,-63 21,-85 -21,-21 -42,-42 -63,-42l-508 -233c-43,-21 -106,0 -127,43l-233 508c-22,21 -22,63 0,85 0,21 21,21 42,42l424 191c-22,190 63,360 254,423l1016 318c43,21 85,21 127,21 85,0 191,-42 255,-106l21 -21 -170 1080 -572 297c-190,105 -275,317 -233,529 64,212 233,360 445,360l2309 0c254,0 466,-212 466,-466 0,-148 -64,-275 -191,-360l0 0z"/>
     <path id="XMLID_117_" class="fil0 str0" d="M10965 6229c488,-85 784,-551 699,-1017 -84,-487 -550,-805 -1016,-699 -466,85 -784,530 -699,1017 85,466 551,784 1016,699z"/>
     <path id="XMLID_116_" class="fil0 str0" d="M12893 5466c-43,-21 -64,-42 -106,-21 -318,148 -551,-84 -699,-84 -169,0 -318,148 -318,317 0,170 149,318 318,318 445,0 699,-233 805,-424 21,-42 21,-84 0,-106l0 0z"/>
     <path id="XMLID_115_" class="fil0 str0" d="M7301 9681l-593 0c-42,0 -84,42 -84,85l0 572c0,63 42,106 84,106l593 0c43,0 85,-43 85,-106l0 -572c0,-43 -42,-85 -85,-85z"/>
     <path id="XMLID_114_" class="fil0 str0" d="M8382 9681l-572 0c-64,0 -106,42 -106,85l0 572c0,63 42,106 106,106l572 0c42,0 84,-43 84,-106l0 -572c0,-43 -42,-85 -84,-85z"/>
     <path id="XMLID_113_" class="fil0 str0" d="M6010 8304c42,22 84,0 105,-42l255 -508c0,-21 0,-64 0,-85 -22,-21 -22,-42 -43,-42l-529 -233c-43,-21 -106,0 -127,42l-127 318 -1081 -212 -296 -297 21 -84c64,-381 -191,-742 -551,-805 -381,-85 -762,169 -826,551 -21,127 -381,1927 -360,2054 -21,191 127,487 403,614l-297 0c-254,0 -466,212 -466,466 0,254 212,466 466,466l2309 0c212,0 402,-148 445,-360 63,-212 -43,-424 -233,-529l-1229 -636 148 -847 22 21c63,64 127,85 211,106 43,21 1250,233 1314,233 148,0 275,-85 338,-233l128 42 0 0z"/>
     <path id="XMLID_112_" class="fil0 str0" d="M7471 9003l-1483 0c-42,0 -84,43 -84,85l0 275c0,43 42,85 84,85l1483 0c42,0 85,-42 85,-85l0 -275c0,-42 -43,-85 -85,-85z"/>
     <path id="XMLID_111_" class="fil0 str0" d="M8297 8770c21,0 21,0 21,-21 0,0 0,-21 0,-21l-720 -508c-21,-21 -64,-21 -85,0l-720 508c0,0 -21,21 0,21 0,21 0,21 21,21l1483 0 0 0z"/>
    </g>
    <g>
    </g>
    <g>
    </g>
    <g>
    </g>
    <g>
    </g>
    <g>
    </g>
    <g>
    </g>
    <g>
    </g>
    <g>
    </g>
    <g>
    </g>
    <g>
    </g>
    <g>
    </g>
    <g>
    </g>
    <g>
    </g>
    <g>
    </g>
    <g>
    </g>
   </g>
  </g>
  <rect class="fil0" width="15000" height="15000"/>
 </g>
</svg>
