<?xml version="1.0" encoding="UTF-8"?>
<!DOCTYPE svg PUBLIC "-//W3C//DTD SVG 1.1//EN" "http://www.w3.org/Graphics/SVG/1.1/DTD/svg11.dtd">
<!-- Creator: CorelDRAW X6 -->
<svg xmlns="http://www.w3.org/2000/svg" xml:space="preserve" width="150mm" height="150mm" version="1.1" style="shape-rendering:geometricPrecision; text-rendering:geometricPrecision; image-rendering:optimizeQuality; fill-rule:evenodd; clip-rule:evenodd"
viewBox="0 0 15000 15000"
 xmlns:xlink="http://www.w3.org/1999/xlink">
 <defs>
  <style type="text/css">
   <![CDATA[
    .str0 {stroke:#FEFEFE;stroke-width:124.85;stroke-linecap:round;stroke-linejoin:round}
    .fil2 {fill:none}
    .fil1 {fill:none;fill-rule:nonzero}
    .fil0 {fill:#FEFEFE;fill-rule:nonzero}
   ]]>
  </style>
 </defs>
 <g id="Слой_x0020_1">
  <metadata id="CorelCorpID_0Corel-Layer"/>
  <g id="_534489840">
   <path class="fil0" d="M10141 8880c0,351 216,595 541,649l-541 919c-27,0 -27,54 -27,81 0,55 81,109 135,109 54,0 108,0 135,-54l595 -1028 352 0 0 946c0,82 54,163 135,163 81,0 135,-81 135,-163l0 -2163c0,-82 -81,-163 -162,-163l-541 0c-568,0 -757,352 -757,704zm270 0c0,-217 108,-433 514,-433l406 0 0 838 -433 0c-297,0 -487,-162 -487,-405z"/>
   <path class="fil0" d="M4623 10367c0,-81 -54,-135 -136,-135l-973 0 1082 -1921c0,-27 27,-54 27,-108 0,-81 -54,-135 -136,-135l-1190 0c-81,0 -135,54 -135,135 0,81 54,136 135,136l974 0 -1082 1893c0,27 -27,81 -27,108 0,81 54,162 135,162l1190 0c82,0 136,-81 136,-135z"/>
   <path class="fil0" d="M6976 5093l866 0 162 487c27,54 81,108 135,108 81,0 135,-54 135,-136 0,-27 0,-54 0,-54l-676 -2136c-27,-109 -81,-190 -189,-190 -81,0 -136,81 -163,190l-676 2136c0,0 -27,27 -27,54 0,82 81,136 162,136 55,0 109,-54 136,-108l135 -487zm433 -1434l351 1163 -703 0 352 -1163 0 0z"/>
   <path class="fil0" d="M3541 7608c81,-1487 973,-2786 2407,-3381l-622 -216c-54,-27 -54,-81 -54,-109 27,-54 81,-81 108,-54l784 298 0 0 0 0c55,27 55,81 55,108l-298 785c-27,54 -81,54 -108,54 -54,-27 -54,-54 -54,-109l243 -595c-1352,568 -2218,1813 -2299,3192 -27,162 -162,81 -162,27l0 0 0 0z"/>
   <path class="fil0" d="M8707 4146c1380,460 2407,1677 2597,3192l406 -541c27,-27 81,-27 108,0 27,27 27,81 0,108l-487 676 0 0 0 0c-27,27 -81,54 -108,27l-677 -514c-54,-27 -54,-81 -27,-108 27,-27 81,-54 109,-27l513 406c-162,-1461 -1163,-2624 -2461,-3084 -135,-54 -27,-162 0,-162l27 27z"/>
   <path class="fil0" d="M9356 11233c-1244,730 -2840,703 -4111,-163l135 650c0,54 -27,81 -54,108 -54,0 -81,-27 -108,-81l-163 -812 0 0 -27 0c0,-54 27,-81 82,-108l811 -162c54,-27 81,0 108,54 0,27 -27,81 -81,81l-622 135c1217,812 2732,839 3949,163 135,-55 162,108 108,135l-27 0z"/>
   <path class="fil1 str0" d="M8761 10800c-676,298 -1460,379 -2245,216"/>
   <path class="fil1 str0" d="M4271 7284c162,-731 568,-1407 1163,-1921"/>
   <path class="fil1 str0" d="M8815 5012c649,351 1190,946 1515,1649"/>
  </g>
  <rect class="fil2" width="15000" height="15000"/>
 </g>
</svg>
