<?xml version="1.0" encoding="UTF-8"?>
<!DOCTYPE svg PUBLIC "-//W3C//DTD SVG 1.1//EN" "http://www.w3.org/Graphics/SVG/1.1/DTD/svg11.dtd">
<!-- Creator: CorelDRAW X6 -->
<svg xmlns="http://www.w3.org/2000/svg" xml:space="preserve" width="150mm" height="150mm" version="1.1" style="shape-rendering:geometricPrecision; text-rendering:geometricPrecision; image-rendering:optimizeQuality; fill-rule:evenodd; clip-rule:evenodd"
viewBox="0 0 15000 15000"
 xmlns:xlink="http://www.w3.org/1999/xlink">
 <defs>
  <style type="text/css">
   <![CDATA[
    .fil1 {fill:none}
    .fil0 {fill:#FEFEFE;fill-rule:nonzero}
   ]]>
  </style>
 </defs>
 <g id="Слой_x0020_1">
  <metadata id="CorelCorpID_0Corel-Layer"/>
  <g id="_534495696">
   <path class="fil0" d="M11858 5056c16,0 31,0 31,16 110,16 188,109 172,219l-359 2000c-47,-31 -110,-47 -172,-47l-219 0 359 -2016c0,-62 32,-93 79,-125 31,-31 78,-47 109,-47zm-31 2329l78 -485c15,-109 125,-187 234,-171l0 0c110,31 172,125 157,234l-94 562 -47 219 0 0 -31 172c0,63 -32,110 -78,141 -47,31 -94,31 -141,31 -63,-16 -110,-47 -141,-94 -15,-31 -31,-78 -31,-140 94,-63 141,-157 141,-266 0,-78 -16,-141 -47,-203l0 0zm-219 531c0,63 16,110 62,156 47,79 125,125 204,141 15,0 46,0 62,0 63,0 125,-16 188,-62 47,-32 93,-79 109,-141 47,47 109,94 188,109 15,0 31,0 46,0 63,0 125,-15 172,-47l0 79c0,109 -15,234 -47,343 -78,313 -125,516 -140,797 0,94 0,204 15,313 0,0 0,0 0,0 0,62 -31,109 -93,156 -125,63 -360,156 -750,156 0,0 0,0 -16,0 -422,0 -656,-125 -750,-187 -31,-31 -63,-78 -63,-141 0,0 0,0 0,0 0,-15 0,-31 0,-62 -15,-141 -47,-391 -187,-610 -63,-93 -94,-203 -94,-297l0 -562 0 0c0,-31 0,-63 0,-94 0,-234 0,-422 78,-516 63,-47 141,-78 266,-78l297 0 375 0c140,0 219,94 219,219 0,94 -63,203 -235,203l-328 0c-31,0 -47,0 -47,0 -31,0 -47,0 -47,16l-281 219c-31,15 -31,62 -16,93 16,16 32,16 63,16 15,0 15,0 31,-16l266 -203 31 0c141,31 531,172 531,1047 0,31 16,63 63,63 31,0 62,-32 62,-63 0,-453 -109,-781 -312,-984 -16,-32 -31,-47 -47,-63l31 0c31,0 63,0 94,0l0 0zm-1219 141l0 562c0,125 31,250 109,375 125,188 141,407 157,547 0,32 0,47 15,63 0,78 32,172 110,219 140,93 390,219 828,219 16,0 16,0 16,0 422,0 672,-94 812,-172 110,-63 172,-172 156,-282 0,0 0,-15 0,-15 -15,-94 -15,-188 0,-282 0,-265 47,-468 125,-750 47,-140 63,-265 63,-390l0 -235c0,-31 0,-47 16,-62l109 -641c16,-78 0,-156 -47,-234 -62,-63 -125,-110 -219,-125 -78,-16 -140,0 -218,31 -16,-141 -125,-250 -266,-282 0,0 0,0 0,0 -63,-15 -141,0 -203,32l234 -1313c16,-94 0,-172 -62,-250 -47,-78 -125,-125 -204,-141 -93,-15 -171,16 -250,63 -62,47 -109,125 -125,203l-328 1828 0 -1578c0,-187 -140,-328 -328,-328 -78,0 -172,31 -234,94 -63,62 -94,140 -94,234l0 1860c-16,15 -31,31 -63,47 -125,140 -125,343 -109,609 0,31 0,63 0,94l0 0zm313 -797l0 -1813c0,-47 15,-109 46,-141 47,-46 94,-62 141,-62 0,0 0,0 0,0 109,0 203,94 203,203l0 1797 -234 0c-63,0 -110,0 -156,16l0 0zm1890 -281c0,0 16,0 32,0 47,0 93,31 125,78 31,47 31,93 31,140l-109 625 -16 16 0 0 0 0 0 0 0 0 0 0 0 0 0 0 0 0 0 0 0 0 0 0 0 0 0 0 0 0 0 0 0 16 0 0 0 0 0 0 0 0 0 0 0 0 0 0 0 0 0 0 0 0 0 0 0 0 0 0 0 0 0 0 0 0 0 0 0 0 0 15 0 0 0 0 0 0 0 0 0 0 0 0 0 0 0 0 0 0 0 0 0 0 0 0 0 0 0 0 0 0 0 0 0 0 0 0 0 0 0 0 0 0 0 0 0 16 0 0 0 0 0 0 -16 0 0 0 0 0c-31,78 -109,109 -203,94 -47,0 -94,-32 -125,-78 -15,-32 -31,-94 -31,-141l125 -625c0,-47 31,-94 78,-125 31,-31 63,-31 109,-31l0 0z"/>
   <path class="fil0" d="M8779 7447l0 0 0 0zm-1125 735c-172,0 -297,-125 -297,-297 0,-94 32,-172 94,-234 -109,-32 -203,-47 -219,-47l0 0 0 0 0 0 0 0 0 0 0 0 0 0 0 0 0 0 0 0 -15 0 0 0 0 0 0 0 0 0c-32,0 -47,-32 -47,-63l0 0 0 0 0 0c0,-31 31,-62 62,-62l0 0 0 0 0 0 0 0 0 0 0 0 0 0 0 0 0 0 0 0 0 0 0 0 0 0 0 0 0 0 0 0 0 0 0 0 0 0 0 0 0 0 0 0 0 0 0 0 0 0 0 0 0 0 0 0 0 0 0 0 0 0 0 0 0 0 0 0 0 0 532 0 62 0 0 0 0 0 0 0 0 0 0 0 0 0 0 0 0 0 0 0 0 0 0 0 0 0 0 0 0 0 0 0 0 0 16 0 0 0 0 0 0 0 0 0 0 0 0 0 0 0 0 0 0 0 0 0 0 0 0 15 0 0 0 0 0 0 0 0 0 0 0 0 15 0 0 0 0 0 0 0 0 0 0 0 0 0 0 0 0 0 0 0 0 0 0 0 0 0 0 0 0 0 0 0 0 0 0 0 0 0 0 0 0 0 0 0 0 0 0 0 16 0 0 0 0 0 0 16 0 0 0 0 0 0 0 0 0 0 0 0 0 0 0 0 0 0 0 0 0 0 0 0 0 0 0 0 0 0 0 0 0 0 0 0 0 0 0 0 0 0 0 0 0 0 0 16 0 0 0 0 0 0 0 0 0 0 0 0 0 0 0 0 0 0 16 0 0 0 0 0 0 0 0 0 0 0 0 0 0 0 0 0 0 0 0 0 0 0 0 15c0,0 0,0 0,0l0 110c0,15 -16,31 -16,46 -16,16 -31,16 -47,16l0 0 -16 0 -125 0 -31 0 -15 0 0 0 0 0 0 0 0 0 0 0 0 0 0 0 0 0 0 0 0 0 0 0 0 0 0 0 0 0 -16 0 0 0 0 0 0 0 0 0 0 0 0 0 0 0 0 0 0 0 0 0 0 0 0 0 0 16 0 0 0 0 0 0 -16 0 0 0 0 0 0 0 0 0 0 0 0 0 0 0 0 0 0 0 0 0 0 0 0 0 0 0c-78,15 -125,78 -125,156 0,94 78,172 172,172l266 0 141 0 15 0c63,0 110,-47 141,-110l0 0 0 0 0 0 0 0 0 0 0 0 0 0 0 -15 0 0 0 0 0 0 0 0 0 0 0 0 0 0 0 0 0 0 0 0 0 0 0 0 0 0 0 0 0 0 0 0 0 0 0 0 0 -16 0 0 0 0 0 0 0 0 0 0 0 0 0 0 0 0 0 0 0 0 0 0 0 0 0 0 0 0 15 -15 0 0 0 0 0 0 0 0 0 0 0 0 0 0 0 0 0 0 0 0 0 0 0 0 0 -16 0 0 0 0 0 0 0 0 0 -78 0 -516c0,0 -15,0 -15,-16 0,0 0,0 0,0 -16,-78 -78,-140 -172,-140l-31 0 -860 0 0 0 0 0 0 0 0 0 -15 0 0 0 0 0 0 0 -16 0 0 0 0 0 0 0 0 0 0 0 0 0 0 0 -16 0 0 0 0 0 0 0 0 0 0 0 -15 0 0 0 0 0 0 0 0 0 0 0 0 0 0 0 0 0 -16 0 0 0 0 0 0 0 0 0 0 0 0 0 0 0 0 0 0 0 0 0 0 0 0 0 -16 0 0 0 0 0 0 0 0 0 0 0 0 0 0 0 0 0 0 0 -15 0c-94,31 -110,78 -125,140 0,0 0,0 0,0l0 907c0,125 15,234 47,359 78,297 125,500 140,782 0,93 0,203 -15,312 0,0 0,0 0,0 0,63 31,125 93,156 125,63 360,157 750,157 16,0 16,0 16,0 438,0 656,-125 750,-188 47,-31 63,-78 63,-125 0,-15 0,-15 0,-15 15,-16 15,-32 15,-47 16,-188 47,-516 282,-750 203,-219 234,-938 234,-1188 0,0 0,-16 0,-16l109 -1000c16,-125 0,-203 -31,-250 -31,-47 -94,-62 -156,-62 -141,-16 -188,46 -219,312l-62 500c62,125 15,297 -110,375 0,0 -15,0 -15,0l-94 63c16,140 -78,281 -219,328 0,0 0,0 -16,0l-125 31c-15,125 -109,235 -250,266 94,219 125,469 125,766 0,31 -31,62 -62,62 -31,0 -63,-31 -63,-62 0,-329 -46,-579 -125,-766l-328 0 0 0zm-859 -625c0,0 0,0 0,-16l0 -234c0,-110 31,-297 328,-313 31,-47 94,-94 172,-109l78 -16c16,0 16,-15 16,-15l218 -110 -15 -1469c0,-187 140,-312 312,-312 94,0 172,31 235,93 62,63 93,141 93,219l16 1141c125,-63 266,-16 359,78 0,16 16,16 16,31 0,0 16,16 16,16l187 359 47 -297c16,-171 47,-453 360,-437 93,16 187,47 234,125 62,62 78,187 62,344l-109 1000c0,78 16,984 -266,1266 -203,218 -234,515 -250,687 0,16 0,32 0,47 0,94 -46,172 -125,235 -125,93 -375,203 -828,203 0,0 0,0 -16,0 -421,0 -672,-94 -812,-172 -110,-63 -172,-172 -156,-281 0,0 0,0 0,0 15,-94 15,-204 15,-297 -15,-266 -62,-454 -140,-750 -32,-125 -47,-266 -47,-391l0 -625 0 0zm594 -563l656 0c156,0 281,110 312,250 0,16 0,16 0,31 0,0 0,16 0,16l0 500 110 -31c78,-31 140,-125 109,-203 0,0 0,0 0,0l-125 -610c0,0 0,0 0,-15 0,0 -15,0 -15,0 -32,-94 -110,-125 -204,-110l-843 172 0 0zm1093 828l0 0 0 0zm-640 -1047l359 -78c156,-31 297,31 360,172 0,16 0,16 15,31 0,0 0,16 0,16l110 500 62 -31c78,-47 110,-156 63,-235 0,0 0,0 0,0l-282 -547c-15,0 -15,0 -15,-15 0,0 0,0 0,0 -63,-78 -157,-94 -235,-47l-31 16 -406 218 0 0zm265 -297l0 -1187c0,-63 -31,-110 -62,-141 -47,-47 -94,-62 -141,-62 0,0 0,0 0,0 -94,0 -187,78 -187,187l15 1407 375 -204 0 0z"/>
   <path class="fil0" d="M2810 9745c15,0 31,0 47,0 312,0 515,15 812,93 94,32 235,32 375,32l1344 0c110,0 188,-79 188,-188 0,-109 -78,-187 -188,-187l-172 0c-31,0 -62,-32 -62,-79 0,-31 31,-62 62,-62l313 0c109,0 203,-78 203,-188 0,-109 -94,-203 -203,-203l-313 0c-31,0 -62,-31 -62,-62 0,-32 31,-63 62,-63l485 0c94,-15 187,-78 187,-203 0,-47 -15,-94 -47,-141 -46,-31 -93,-47 -140,-47l-485 0c-31,0 -62,-31 -62,-62 0,-47 31,-78 62,-78l485 0 0 0c109,0 187,-78 187,-188 0,-109 -78,-203 -187,-203l-1063 0c0,0 -16,0 -31,-15 -94,-79 -172,-125 -172,-125 -16,-16 -31,-32 -31,-63l234 -1016c47,-187 0,-265 -156,-297 -63,-15 -125,-15 -172,16 -47,31 -94,94 -109,172l-188 766c0,0 0,0 -16,0 -46,140 -156,203 -281,281 -125,78 -281,172 -484,375 0,0 0,0 -16,0 -172,94 -328,78 -453,62 -63,0 -125,-15 -172,0 0,0 -16,0 -16,0 -47,0 -109,32 -140,79 -78,93 -204,312 -219,750 0,406 78,640 156,781 31,47 94,78 156,78 94,-15 188,-15 282,-15l0 0zm1187 250c-140,0 -265,0 -359,-32 -281,-62 -484,-78 -781,-93 -94,0 -204,0 -313,15 -109,16 -234,-47 -281,-140 -94,-141 -188,-407 -172,-844 15,-453 140,-704 250,-844 47,-78 141,-110 234,-125 63,0 125,0 203,15 110,0 235,16 376,-46 203,-204 375,-297 500,-375 109,-79 187,-125 234,-219l188 -750c15,-110 78,-204 171,-250 79,-47 172,-63 266,-47 219,62 313,218 250,453l-219 984c32,16 79,47 125,94l1032 0c172,0 328,141 328,328 0,110 -63,204 -141,266 16,0 32,16 32,31 62,47 109,141 109,219 0,156 -109,281 -250,313 47,62 78,140 78,218 0,141 -94,266 -219,313 47,47 63,125 63,203 0,172 -141,313 -313,313l-1344 0c-15,0 -31,0 -47,0l0 0z"/>
  </g>
  <rect class="fil1" width="15000" height="15000"/>
 </g>
</svg>
