<?xml version="1.0" encoding="UTF-8"?>
<!DOCTYPE svg PUBLIC "-//W3C//DTD SVG 1.1//EN" "http://www.w3.org/Graphics/SVG/1.1/DTD/svg11.dtd">
<!-- Creator: CorelDRAW X6 -->
<svg xmlns="http://www.w3.org/2000/svg" xml:space="preserve" width="150mm" height="150mm" version="1.1" style="shape-rendering:geometricPrecision; text-rendering:geometricPrecision; image-rendering:optimizeQuality; fill-rule:evenodd; clip-rule:evenodd"
viewBox="0 0 15000 15000"
 xmlns:xlink="http://www.w3.org/1999/xlink">
 <defs>
  <style type="text/css">
   <![CDATA[
    .fil1 {fill:none}
    .fil0 {fill:#FEFEFE;fill-rule:nonzero}
   ]]>
  </style>
 </defs>
 <g id="Слой_x0020_1">
  <metadata id="CorelCorpID_0Corel-Layer"/>
  <g id="_534494064">
   <path class="fil0" d="M8943 7451c429,-409 975,-624 1521,-624 585,0 1150,215 1579,663 429,429 644,995 644,1560 0,566 -215,1131 -644,1560 -429,429 -994,644 -1579,644 -566,0 -1131,-215 -1560,-644 -429,-429 -644,-994 -644,-1560 0,-546 215,-1111 605,-1540l0 0 39 -20 39 -39 0 0zm0 3042l819 -799c-390,-390 -897,-605 -1385,-624 0,526 195,1033 566,1423zm897 -877l565 -566 -1462 -1462c-371,390 -566,877 -566,1384 527,20 1053,234 1463,644zm624 -644l487 -487c-390,-429 -585,-995 -585,-1541 -487,20 -975,215 -1345,566l1443 1462zm565 -565l897 -897c-409,-371 -936,-566 -1443,-566 -19,527 156,1053 546,1463zm975 -819l-897 897c410,409 936,604 1463,604 0,-19 0,-19 0,-39 0,-526 -176,-1053 -566,-1462zm-975 975l-487 487 1462 1443c351,-370 527,-819 566,-1287 -546,0 -1112,-214 -1541,-643l0 0zm-565 565l-566 566c371,390 585,916 585,1462 527,0 1034,-195 1443,-585l-1462 -1443zm-624 624l-819 819c390,371 877,566 1365,585 -20,-507 -195,-994 -546,-1404z"/>
   <path class="fil0" d="M8943 7432c214,-195 448,-351 702,-449 273,-117 546,-156 819,-156 292,0 585,59 858,156 273,117 507,273 721,488 215,214 371,468 488,721 117,273 175,566 175,858 0,293 -58,566 -175,839 -117,273 -273,507 -488,721 -214,215 -448,390 -721,488 -273,117 -566,175 -858,175l0 0c-273,0 -566,-58 -839,-175 -273,-98 -507,-273 -721,-488 -215,-214 -371,-448 -488,-721 -117,-273 -175,-546 -175,-839l0 0c0,-292 58,-565 175,-838 98,-254 254,-488 449,-702 0,0 0,0 0,0l0 0 39 -39 0 0 0 0 39 -39c0,0 0,0 0,0zm721 -429c-253,97 -507,253 -702,448l0 0c0,0 0,0 0,0l-39 39 0 0 -39 39c0,0 0,0 0,0 -195,215 -351,449 -448,702 -117,254 -156,527 -156,819l0 0c0,273 58,566 156,839 117,253 273,507 487,702 215,214 449,370 702,487 273,117 566,156 839,156l0 0c292,0 585,-39 858,-156 253,-117 487,-273 702,-487 214,-195 370,-449 487,-702 98,-273 156,-566 156,-839 0,-292 -58,-585 -156,-838 -117,-273 -273,-507 -487,-722 -215,-214 -449,-370 -702,-468 -273,-117 -566,-175 -858,-175 -273,0 -546,58 -800,156zm-721 3471l799 -780c-195,-195 -409,-332 -624,-429 -234,-98 -487,-156 -741,-176 0,254 59,507 156,741 98,234 234,449 410,644l0 0zm819 -780l-800 819 0 0 0 0c-19,0 -19,0 -19,0 -195,-195 -332,-429 -429,-663 -98,-254 -156,-507 -156,-780l0 0c0,0 0,0 19,0 254,0 507,58 741,175 234,98 468,234 644,429l0 0c19,0 19,20 0,20l0 0zm-1404 -624l0 0m1482 526l546 -546 -1443 -1443c-176,195 -312,410 -390,624 -98,234 -156,488 -176,722 273,19 546,78 800,195 234,97 468,253 663,448l0 0zm565 -546l-565 566 0 0c0,0 -20,0 -20,0 -195,-195 -429,-351 -663,-449 -253,-117 -526,-175 -780,-175 -19,0 -19,-20 -19,-20 0,-253 58,-507 156,-741 97,-234 234,-448 429,-643l0 0c0,0 0,0 19,0l1443 1443 0 0c0,19 0,19 0,19l0 0zm59 -97l468 -468c-195,-215 -332,-449 -429,-702 -98,-273 -156,-546 -156,-819 -234,0 -468,58 -702,156 -215,97 -429,234 -605,409l1424 1424 0 0zm507 -449l-488 468 0 0c0,20 -19,20 -19,0l-1443 -1443 0 0 0 0c-20,0 -20,-19 0,-19 175,-176 390,-312 624,-410 234,-97 468,-156 721,-175l0 0 0 0c20,0 20,19 20,19 0,273 39,566 136,819 98,254 254,507 449,722l0 0c0,0 0,0 0,19l0 0zm58 -117l878 -858c-195,-195 -410,-331 -663,-429 -234,-97 -488,-156 -761,-156 0,273 39,527 137,780 97,254 234,468 409,663l0 0zm897 -858l-897 897 0 0 0 0c0,0 0,0 0,0 -195,-214 -331,-448 -429,-682 -97,-254 -136,-527 -136,-800 0,-19 0,-19 19,-19 254,0 527,58 780,156 234,97 468,234 663,429l0 0c20,0 20,19 0,19l0 0zm78 78l-877 878c195,195 409,351 663,448 253,98 507,137 780,156l0 -19c0,0 0,-20 0,-20l0 0c0,-273 -59,-526 -156,-780 -98,-234 -234,-468 -410,-663l0 0zm-916 878l897 -897 0 0 0 0c19,0 19,0 19,0 195,195 332,429 429,663 117,253 156,526 156,799l0 0c0,0 0,0 0,20 0,0 0,19 0,19 0,20 0,20 -19,20 -273,0 -546,-59 -800,-156 -234,-98 -468,-254 -682,-449l0 0c0,-19 0,-19 0,-19zm-59 97l-468 468 1443 1424c156,-176 293,-371 390,-585 98,-215 156,-449 156,-683 -273,0 -546,-58 -819,-156 -253,-117 -487,-273 -702,-468l0 0zm-487 449l468 -468 0 0c19,-20 19,-20 19,0 215,195 449,351 722,468 253,97 546,156 819,156 0,0 0,0 0,0 19,0 19,0 19,19 -19,234 -78,468 -175,702 -98,215 -234,410 -410,605l0 0c0,0 0,0 -19,0l-1443 -1463 0 0c0,0 0,0 0,-19l0 0zm-78 97l-546 566c195,195 331,429 429,663 97,253 156,507 156,780 253,0 507,-59 760,-156 234,-98 449,-234 644,-410l-1443 -1443 0 0zm-566 546l566 -565 0 0c0,0 19,0 19,0l1443 1443 0 0 0 19c20,0 20,0 0,0 -195,195 -409,351 -663,449 -253,97 -507,136 -780,136l0 0 0 0 0 0m-585 -1462l0 0c0,0 0,-20 0,-20m429 702c-97,-253 -253,-487 -429,-682m585 1462c-19,-273 -58,-546 -156,-780m156 780c0,0 0,0 0,0m-643 -1384l-800 799c176,176 390,312 605,410 234,78 487,136 721,156 0,-254 -58,-488 -136,-722 -98,-234 -234,-448 -390,-643l0 0zm-819 780l799 -800 0 0 0 0c0,0 20,0 20,0 175,195 312,410 409,644 98,234 137,487 137,760l0 0c0,0 0,0 0,0 -254,0 -507,-58 -741,-156 -234,-97 -449,-234 -624,-429l0 0c-20,0 -20,0 0,-19l0 0zm1365 604l0 0z"/>
   <path class="fil0" d="M2352 4156l254 0c-20,19 0,58 0,78l-215 0 0 3276 5129 0 0 -3276 -254 0c20,-20 20,-59 20,-78l272 0c20,0 39,19 39,39l0 3354c0,19 -19,39 -39,39l-5206 0c-19,0 -39,-20 -39,-39l0 -3354c0,-20 20,-39 39,-39l0 0z"/>
   <path class="fil0" d="M2352 4136l254 0c0,0 0,20 0,20 0,0 0,0 0,0 0,19 0,19 0,39 0,19 0,19 19,39 0,0 -19,19 -19,19 0,0 0,0 0,0l0 0 -215 0 0 3237 5109 0 0 -3237 -234 0c0,0 -19,-19 -19,-19 0,0 0,0 0,0 19,-20 19,-20 19,-39 20,-20 20,-20 20,-39 0,0 0,-20 0,-20l0 0 272 0c20,0 20,20 39,20l0 0c0,19 20,19 20,39l0 3354c0,19 -20,19 -20,39l0 0c-19,0 -19,0 -39,0l-5206 0c-19,0 -39,0 -39,0l0 0c-19,-20 -19,-20 -19,-39l0 -3354c0,-20 0,-20 19,-39l0 0 0 0c0,0 20,-20 39,-20l0 0zm234 39l-234 0c-19,0 -19,0 -19,0l0 0c-20,0 -20,20 -20,20l0 3354c0,0 0,19 20,19l0 0c0,0 0,0 19,0l5206 0c0,0 20,0 20,0l0 0c0,0 0,-19 0,-19l0 -3354c0,0 0,-20 0,-20l0 0c0,0 -20,0 -20,0l-253 0c0,0 0,20 0,20 -19,19 -19,19 -19,19l234 0 0 0c0,0 19,20 19,20l0 3276 0 0c0,0 -19,0 -19,0l-5129 0 0 0c-19,0 -19,0 -19,0l0 -3276 0 0c0,0 0,-20 19,-20l195 0c0,0 0,-19 0,-19 0,0 0,-20 0,-20z"/>
   <path class="fil0" d="M4926 3941c507,-292 1053,-195 1580,-97 273,39 526,78 780,78 39,0 58,39 58,58l0 3218c0,19 -19,39 -58,39 -254,0 -527,-39 -780,-78 -507,-78 -1014,-156 -1541,78 -19,0 -58,0 -58,-20 -20,-19 -20,-19 -20,-19l0 0 0 -3218c0,-19 20,-39 39,-39zm1560 0c-507,-97 -1014,-195 -1482,59l0 3120c507,-215 1014,-137 1521,-59 234,39 468,78 722,78l0 -3100c-254,-20 -507,-59 -761,-98z"/>
   <path class="fil0" d="M4926 3922c254,-137 507,-195 780,-195 273,0 527,39 800,97l0 0c273,39 526,98 780,98 19,0 39,0 39,19l0 0c19,0 19,20 19,39l0 3218c0,0 0,19 -19,39 0,0 -20,19 -39,19 -137,0 -254,-19 -390,-39 -137,0 -273,-19 -390,-39 -254,-39 -507,-78 -761,-78 -253,0 -526,39 -780,137 -19,19 -19,19 -39,19 -19,-19 -39,-19 -39,-39 0,0 0,-19 0,-19l0 0c0,0 0,0 0,0m819 -3452c-273,0 -526,59 -780,195l0 0 0 0c0,0 0,20 -19,20 0,0 0,19 0,19l0 3198c0,0 0,20 0,20 0,0 0,0 0,0l0 0 0 0c0,0 0,0 0,0 0,19 19,19 19,19 20,20 20,20 39,0 254,-117 507,-156 780,-156 254,0 507,39 761,78 136,20 253,39 390,59 136,19 253,19 390,19 19,0 19,0 39,0 0,0 0,-19 0,-19l0 -3218c0,-19 0,-19 0,-19l0 0c-20,-20 -20,-20 -39,-20 -254,0 -527,-39 -780,-97l0 0c-273,-39 -527,-98 -800,-98zm-819 3452l0 0 0 -3218c0,-19 0,-19 0,-39 20,0 20,-19 39,-19m1560 0l0 0c137,19 254,39 390,58 117,20 234,39 371,39l0 0c0,0 0,0 0,20l0 3100 0 0 0 0c0,0 0,20 0,20 -254,-20 -488,-59 -722,-78 -253,-39 -507,-78 -760,-98 -254,0 -507,39 -761,137 0,0 0,0 0,0 -19,0 -19,0 -19,0l0 -3120 0 0c0,0 0,0 0,0 487,-273 994,-176 1501,-78l0 0 0 0zm0 19c-507,-78 -1014,-175 -1482,78l0 3081c254,-97 507,-136 761,-136 253,0 507,39 760,78 234,39 468,78 702,78l0 -3081c-117,0 -234,-20 -370,-39 -117,0 -234,-39 -371,-59l0 0 0 0z"/>
   <path class="fil0" d="M4887 4019c-468,-253 -975,-156 -1501,-78 -254,59 -488,98 -741,98l0 3120c234,-20 487,-59 721,-78 507,-78 995,-156 1521,39l0 -3101zm-1521 -175c546,-98 1073,-195 1599,97 20,20 20,39 20,59l0 3198 0 0c0,19 0,19 0,19 -20,39 -39,39 -59,39 -526,-234 -1033,-156 -1540,-78 -273,39 -527,78 -800,78 -19,0 -39,-19 -39,-58l0 -3198c0,-39 20,-59 39,-59 273,0 527,-39 780,-97l0 0z"/>
   <path class="fil0" d="M4868 4039c-234,-137 -468,-176 -722,-176 -234,0 -487,59 -760,98l0 0 0 0 0 0c-234,39 -488,78 -722,97l0 3081c234,0 468,-39 702,-78 254,-39 507,-78 761,-78 234,0 487,20 741,117l0 -3061zm-722 -195c254,0 507,39 741,175 20,0 20,0 20,0l0 3101 0 0c0,0 0,19 0,19 -20,0 -20,0 -20,0 -253,-97 -526,-136 -760,-136 -254,0 -507,39 -761,78 -234,39 -487,78 -721,78l0 0c0,0 -20,0 -20,0l0 -3120 0 0c0,0 20,0 20,0 253,-20 487,-59 741,-98l0 0 0 0 0 0 0 0c253,-58 507,-97 760,-97zm-780 0c273,-59 546,-98 819,-98 254,0 527,39 780,195 20,0 20,0 20,20 19,0 19,19 19,39l0 3198c0,0 0,0 0,0 0,0 0,19 0,19l0 0 0 0c0,0 0,0 -19,20 0,0 -20,19 -20,19 -19,0 -39,0 -58,0 -254,-117 -507,-156 -761,-156 -253,0 -507,39 -760,78 -137,20 -273,39 -390,59 -137,19 -273,19 -410,19 -19,0 -19,0 -39,-19l0 0c0,0 -19,-20 -19,-39l0 -3198c0,-20 19,-39 19,-59l0 0c20,0 20,-19 39,-19 254,0 527,-39 780,-78l0 0 0 0 0 0 0 0zm819 -78c-273,0 -546,39 -799,97l0 0 0 0 0 0c-273,39 -527,98 -800,98 0,0 -19,0 -19,0l0 0c0,19 -20,19 -20,39l0 3198c0,19 20,19 20,39l0 0 0 0c0,0 19,0 19,0 137,0 273,0 390,-20 137,-19 273,-39 410,-58 253,-39 507,-78 760,-78 254,0 507,39 780,156 0,0 20,0 20,0 19,0 19,-20 19,-20 0,0 0,0 0,0l0 0c0,-19 0,-19 0,-19l0 0c0,0 0,0 0,0l0 -3198c0,-20 0,-20 0,-20 0,-19 0,-19 -19,-19 0,0 0,0 0,0 -254,-156 -507,-195 -761,-195l0 0z"/>
   <path class="fil0" d="M6291 7841l117 0c20,0 39,20 39,59 0,19 -19,39 -39,39l-58 0 0 819 58 0c20,0 59,19 59,58 0,20 -39,39 -59,39l-117 0 -1306 0 -1619 0c0,0 0,0 0,0 -19,0 -39,0 -39,-19 -97,-176 -156,-332 -156,-507 0,-156 59,-312 156,-468 0,0 20,-20 39,-20 0,0 0,0 0,0l1619 0 1306 0zm-1306 917l1267 0 0 -819 -1267 0 -1560 0 0 819 1560 0zm-1716 -429c0,78 19,175 58,253l0 -507c-39,98 -58,176 -58,254l0 0z"/>
   <path class="fil0" d="M6291 7822l117 0c20,0 20,19 39,19l0 0c20,20 20,39 20,59 0,19 0,19 -20,39 -19,19 -19,19 -39,19l-58 0 0 780 58 0c20,0 39,20 39,20l0 0c20,19 20,39 20,58 0,0 0,20 -20,39 0,0 -19,20 -39,20l-117 0 -1306 0 -1619 0 0 0 0 0 0 0 0 0 0 0c-19,0 -19,0 -39,-20 0,0 -19,0 -19,-19 -39,-78 -78,-176 -117,-254 -20,-78 -20,-175 -20,-253 0,-78 0,-156 20,-234 39,-78 78,-156 117,-234 19,-20 19,-20 19,-20l0 0 0 0c20,0 20,0 39,0l0 -19 0 0 0 0 0 0 0 0 1619 0 1306 0 0 0zm117 39l-117 0 -1306 0 -1619 0 0 0 0 0 0 0 0 0 0 0 0 0c0,0 -19,0 -19,0l0 0c0,0 0,0 -20,19 -39,59 -78,137 -97,215 -39,78 -39,156 -39,234 0,78 0,156 39,253 19,78 58,156 97,254 0,0 20,0 20,0 0,0 19,19 19,19l0 0 0 0 0 0 0 0 0 0 1619 0 1306 0 117 0c20,0 20,-19 20,-19 19,0 19,-20 19,-20 0,-19 0,-19 -19,-39l0 0c0,0 0,0 -20,0l-58 0 0 0c-20,0 -20,-19 -20,-19l0 -819 0 0c0,0 0,0 20,0l58 0c0,0 20,-20 20,-20 0,0 19,-19 19,-19 0,-20 -19,-20 -19,-39l0 0c0,0 -20,0 -20,0l0 0zm-3042 994l0 0m1619 -117l1248 0 0 -780 -1248 0 -1560 0 0 780 1560 0zm1267 39l-1267 0 -1560 0 0 0c-20,0 -20,-19 -20,-19l0 -819 0 0c0,0 0,0 20,0l1560 0 1267 0 0 0c0,0 0,0 0,0l0 819 0 0c0,0 0,19 0,19zm-2964 -448c0,39 0,78 0,136 20,0 20,20 20,39l0 -331c0,0 0,19 -20,39 0,39 0,78 0,117l0 0zm-19 136c0,-39 0,-97 0,-136 0,-39 0,-78 0,-117 19,-59 19,-98 39,-137 0,0 0,0 19,0 0,0 0,0 0,0l0 507 0 0c0,20 0,20 0,20 -19,0 -19,0 -19,0 -20,-59 -20,-98 -39,-137l0 0z"/>
   <path class="fil0" d="M6057 10162l117 0c20,0 39,19 39,39 0,39 -19,58 -39,58l-58 0 0 819 58 0c20,0 39,20 39,39 0,39 -19,59 -39,59l-117 0 -1306 0 -1619 0c0,0 0,0 0,0 -19,0 -39,-20 -39,-20 -97,-175 -156,-351 -156,-507 0,-156 39,-312 156,-468 0,-19 20,-19 39,-19 0,0 0,0 0,0l1619 0 1306 0zm-1306 916l1267 0 0 -819 -1267 0 -1560 0 0 819 1560 0zm-1716 -429c0,78 19,176 39,254l0 -507c-20,78 -39,156 -39,253l0 0z"/>
   <path class="fil0" d="M6057 10142l117 0c0,0 20,0 39,20l0 0c0,19 20,19 20,39 0,19 -20,39 -20,58 -19,0 -39,20 -39,20l-58 0 0 780 58 0c20,0 39,0 39,19l0 0c20,20 20,20 20,39 0,20 0,39 -20,39 0,20 -19,20 -39,20l-117 0 -1306 0 -1619 0 0 0 0 0 0 0 0 0 0 0 0 0c-19,0 -19,0 -39,0 0,0 -19,-20 -19,-20 -39,-97 -78,-175 -117,-253 -20,-98 -39,-176 -39,-254 0,-78 19,-175 39,-253 39,-78 78,-156 117,-215 0,-19 19,-19 19,-19 20,-20 20,-20 39,-20l0 0 0 0 0 0 0 0 0 0 1619 0 1306 0 0 0zm117 20l-117 0 -1306 0 -1619 0 0 0 0 0 0 0 0 0 0 0 0 0c0,0 -19,0 -19,19 0,0 -20,0 -20,0 -39,78 -78,156 -97,234 -39,78 -39,156 -39,234 0,78 0,156 39,234 19,98 58,176 97,254 0,0 20,19 20,19 0,0 0,0 19,0l0 0 0 0 0 0 0 0 0 0 1619 0 1306 0 117 0c0,0 20,0 20,0 19,-19 19,-19 19,-39 0,0 0,-19 -19,-19l0 0c0,0 -20,-20 -20,-20l-58 0 0 0c-20,0 -20,0 -20,0l0 -819 0 0c0,0 0,-19 20,-19l58 0c0,0 20,0 20,0 0,-20 0,-20 0,-39 0,0 0,-20 0,-20l0 0c0,0 -20,-19 -20,-19l0 0zm-1423 897l1248 0 0 -780 -1248 0 -1560 0 0 780 1560 0zm1267 19l-1267 0 -1560 0 0 0c-20,0 -20,0 -20,0l0 -819 0 0c0,0 0,-19 20,-19l1560 0 1267 0 0 0c0,0 0,19 0,19l0 819 0 0c0,0 0,0 0,0zm-2964 -429c0,39 0,78 0,117 0,20 20,39 20,59l0 -351c0,19 -20,39 -20,39 0,58 0,97 0,136l0 0zm-19 117c0,-39 -20,-78 -20,-117 0,-39 20,-97 20,-136 0,-39 19,-78 39,-117 0,0 0,-20 0,-20 19,0 19,20 19,20l0 507 0 0c0,0 0,19 0,19 -19,0 -19,0 -19,-19 -20,-39 -39,-78 -39,-137l0 0z"/>
   <path class="fil0" d="M2898 10025c0,0 -19,-19 -39,-39 -97,-156 -136,-331 -136,-507 0,-156 39,-312 136,-448 20,-20 39,-20 59,-20 0,0 0,0 0,0l1618 0 1307 0 97 0c39,0 59,20 59,39 0,39 -20,59 -59,59l-58 0 0 799 78 0c19,0 39,39 39,59 0,19 -20,58 -39,58l-117 0 -1307 0 -1618 0 0 0c0,0 0,0 -20,0zm-78 -546c0,98 20,176 39,273l0 -214 0 -293c-19,78 -39,156 -39,234zm1716 429l1248 0 0 -799 -1248 0 -1579 0 0 429 0 370 1579 0z"/>
   <path class="fil0" d="M2898 10025c0,0 -19,0 -19,0 -20,-19 -20,-19 -20,-19l0 0c-58,-98 -97,-176 -117,-273 -19,-78 -39,-156 -39,-254 0,-78 20,-156 39,-234 20,-78 59,-156 117,-234 0,0 20,0 20,-19l0 0 0 0c0,0 19,0 19,0l20 0 0 0 0 0 0 0 0 0 1618 0 1307 0 97 0c20,0 39,0 39,19l20 0c0,0 0,20 0,39 0,20 0,39 -20,39 0,20 -19,20 -39,20l-39 0 0 799 59 0c0,0 19,0 39,20l0 0c0,0 19,19 19,39 0,19 -19,39 -19,39 -20,19 -39,19 -39,19l-117 0 -1307 0 -1618 0 0 0 0 0 0 0 0 0 0 0 -20 0 0 0 0 0zm0 -19c0,0 0,0 0,0l20 0 0 0 0 0 0 0 0 0 0 0 1618 0 1307 0 117 0c0,0 19,0 19,-20 0,0 0,0 0,-19 0,-20 0,-20 0,-20l0 0c0,-19 -19,-19 -19,-19l-78 0 0 0c0,0 0,0 0,-20l0 -799 0 0c0,-20 0,-20 0,-20l58 0c20,0 20,0 39,-19 0,0 0,0 0,-20 0,0 0,-19 0,-19l0 0c-19,-20 -19,-20 -39,-20l-97 0 -1307 0 -1618 0 0 0 0 0 0 0 0 0 0 0 0 0c-20,0 -20,0 -20,0l0 0c-19,20 -19,20 -19,20 -59,78 -98,156 -117,214 -20,78 -39,156 -39,234 0,98 19,176 39,254 19,78 58,175 117,253l0 0c0,0 0,0 19,20l0 0zm-78 -527c0,59 20,98 20,137 0,19 0,39 19,39l0 -117 0 -215c-19,20 -19,20 -19,39 0,39 -20,78 -20,117zm0 137c-19,-39 -19,-78 -19,-137 0,-39 0,-78 19,-117 0,-39 20,-78 39,-117 0,-19 0,-19 0,-19 20,0 20,19 20,19l0 293 0 214 0 0c0,0 0,0 -20,0 0,20 0,0 0,0 -19,-39 -39,-97 -39,-136l0 0zm1716 292l1248 0 0 -799 -1248 0 -1560 0 0 429 0 370 1560 0zm1248 20l-1248 0 -1579 0 0 0c0,0 0,0 0,-20l0 -370 0 -429 0 0c0,-20 0,-20 0,-20l1579 0 1248 0 0 0c20,0 20,0 20,20l0 799 0 0c0,20 0,20 -20,20z"/>
  </g>
  <rect class="fil1" width="15000" height="15000"/>
 </g>
</svg>
