<?xml version="1.0" encoding="UTF-8"?>
<!DOCTYPE svg PUBLIC "-//W3C//DTD SVG 1.1//EN" "http://www.w3.org/Graphics/SVG/1.1/DTD/svg11.dtd">
<!-- Creator: CorelDRAW X6 -->
<svg xmlns="http://www.w3.org/2000/svg" xml:space="preserve" width="150mm" height="150mm" version="1.1" style="shape-rendering:geometricPrecision; text-rendering:geometricPrecision; image-rendering:optimizeQuality; fill-rule:evenodd; clip-rule:evenodd"
viewBox="0 0 15000 15000"
 xmlns:xlink="http://www.w3.org/1999/xlink">
 <defs>
  <style type="text/css">
   <![CDATA[
    .fil0 {fill:none}
    .fil1 {fill:#FEFEFE}
   ]]>
  </style>
 </defs>
 <g id="Слой_x0020_1">
  <metadata id="CorelCorpID_0Corel-Layer"/>
  <rect class="fil0" width="15000" height="15000"/>
  <g id="_411176728">
   <path class="fil1" d="M5160 3918c-523,263 -1181,1106 -1494,1665 -60,105 -93,218 -163,312 -175,-37 -430,-167 -610,-235 -208,-80 -404,-156 -615,-225 -196,-63 -460,-143 -677,-163 -313,-30 -526,94 -354,379 204,339 986,930 1364,1180 163,108 350,253 516,350 -91,928 -55,1573 236,2382 195,539 508,1094 873,1524 1506,1779 4089,2270 6186,1079 142,-80 272,-168 406,-260 534,-366 232,-398 858,-142 170,70 314,126 493,198 224,89 1387,547 1590,290 248,-314 -582,-896 -836,-1093 -141,-108 -696,-517 -819,-570 30,-113 99,-198 149,-286 373,-657 639,-1616 622,-2388 -30,-1421 -604,-2729 -1585,-3597 -693,-613 -1311,-959 -2271,-1187 -584,-139 -996,-99 -1598,-82 -76,-38 -69,-101 -109,-186 -597,-1269 -2577,-627 -2241,807 24,103 63,146 79,248zm6304 7456c55,57 155,81 229,111 458,189 1407,597 1838,586 -47,-96 -77,-121 -158,-192 -73,-63 -114,-128 -184,-185 -353,-293 -845,-666 -1230,-904 -111,115 -320,405 -495,584zm-6158 -7243c-212,121 -499,381 -650,541 -193,204 -366,417 -538,672 -256,379 -640,1145 -695,1707 92,92 1066,694 1219,765 199,-363 722,-627 1252,-340 179,96 354,294 426,513 112,342 24,497 -75,774 339,181 693,398 1034,565 360,175 721,380 1063,566 727,399 1929,970 2709,1319 186,83 171,55 437,-255 2106,-2450 1124,-6212 -1779,-7346 -750,-293 -1248,-353 -2057,-318 -409,18 -90,28 -299,516 -153,356 -448,655 -894,736 -355,65 -657,-17 -930,-212 -107,-77 -131,-126 -223,-203zm822 -1681c-313,57 -470,148 -617,334 -530,668 32,1646 871,1514 456,-72 874,-513 781,-1056 -79,-458 -483,-892 -1035,-792zm-2943 4439c56,-266 142,-489 213,-727 -197,-159 -1525,-603 -1921,-639 51,182 612,587 796,733 125,99 799,591 912,633zm2103 752c-903,249 -496,1491 297,1295 324,-80 599,-386 502,-812 -70,-305 -405,-592 -799,-483zm5678 3839l-141 -91c-564,-230 -2449,-1168 -2934,-1438l-1205 -649c-150,-81 -463,-283 -614,-330 -153,87 -271,198 -495,228 -656,88 -1187,-470 -1040,-1134l-868 -539c-87,-53 -217,-167 -299,-164 -213,2005 716,3614 2303,4583 705,430 1787,708 2838,581 664,-79 1408,-336 1939,-679l516 -368z"/>
   <path class="fil1" d="M9155 8332c175,-23 124,-106 100,-437 -14,-187 -36,-383 -47,-572 -26,-483 -233,-3230 -298,-3332l-99 -3c-85,153 104,1865 124,2173 19,281 114,2056 220,2171z"/>
   <path class="fil1" d="M7999 4778c-3,731 99,1491 123,2223l92 1659c10,137 -32,515 152,391 5,-5 11,-21 12,-17 39,92 11,-493 8,-525l-91 -1657c-8,-283 -99,-2080 -149,-2196l-120 -3c-17,41 -27,63 -27,125z"/>
   <path class="fil1" d="M9760 5295c-56,23 -76,-48 -56,250 6,92 17,177 23,271 11,192 28,383 45,578 32,366 58,753 82,1126l129 1699c11,123 -8,534 169,407 80,-58 -108,-1943 -125,-2204 -23,-379 -52,-757 -82,-1136 -16,-189 -34,-378 -45,-570 -8,-139 4,-483 -140,-421z"/>
   <path class="fil1" d="M11180 5322c-78,172 95,213 306,515 294,420 449,816 535,1342 66,406 -1,811 171,760 135,-41 28,-682 6,-811 -109,-624 -334,-1150 -736,-1613 -74,-86 -121,-201 -282,-193z"/>
   <path class="fil1" d="M6070 3960c56,-144 -11,-146 -93,-222 -386,-356 45,-872 -263,-734 -142,63 -90,482 -33,609 64,144 211,378 389,347z"/>
   <path class="fil1" d="M11949 9151c191,72 179,-162 209,-337 17,-102 102,-463 38,-527 -151,-150 -181,283 -191,348 -22,149 -102,399 -56,516z"/>
   <path class="fil1" d="M5054 8108c-197,186 317,746 500,548 164,-177 -264,-43 -348,-443 -16,-75 -73,-180 -152,-105z"/>
   <path class="fil1" d="M2683 3902c-225,69 -112,402 114,322 197,-70 98,-387 -114,-322z"/>
   <path class="fil1" d="M1725 7753c67,54 107,124 231,76 190,-72 99,-382 -119,-320 -120,34 -117,128 -112,244z"/>
   <path class="fil1" d="M4713 3559c-66,-53 -108,-124 -232,-78 -69,25 -131,115 -94,214 56,152 335,207 326,-136z"/>
   <path class="fil1" d="M7750 2530c176,-68 78,-387 -160,-289 -202,83 -39,432 160,289z"/>
   <path class="fil1" d="M11098 10262l-166 -2c-191,255 0,335 81,336 67,0 289,-71 85,-334z"/>
   <path class="fil1" d="M6114 6210l163 2c355,-435 -507,-446 -163,-2z"/>
  </g>
 </g>
</svg>
