<?xml version="1.0" encoding="UTF-8"?>
<!DOCTYPE svg PUBLIC "-//W3C//DTD SVG 1.1//EN" "http://www.w3.org/Graphics/SVG/1.1/DTD/svg11.dtd">
<!-- Creator: CorelDRAW X6 -->
<svg xmlns="http://www.w3.org/2000/svg" xml:space="preserve" width="150mm" height="150mm" version="1.1" style="shape-rendering:geometricPrecision; text-rendering:geometricPrecision; image-rendering:optimizeQuality; fill-rule:evenodd; clip-rule:evenodd"
viewBox="0 0 15000 15000"
 xmlns:xlink="http://www.w3.org/1999/xlink">
 <defs>
  <style type="text/css">
   <![CDATA[
    .fil2 {fill:none}
    .fil1 {fill:none;fill-rule:nonzero}
    .fil0 {fill:#FEFEFE;fill-rule:nonzero}
   ]]>
  </style>
 </defs>
 <g id="Слой_x0020_1">
  <metadata id="CorelCorpID_0Corel-Layer"/>
  <g id="_534489960">
   <path class="fil0" d="M2131 8007c220,0 440,51 643,136 203,84 389,202 541,355 152,152 271,338 355,541 85,203 135,422 135,642 0,237 -50,440 -135,643 -84,203 -203,389 -355,541 -152,152 -338,287 -541,372 -203,67 -423,118 -643,118 -219,0 -439,-51 -642,-118 -203,-85 -389,-220 -541,-372 -152,-152 -271,-338 -372,-541 -68,-203 -118,-406 -118,-643 0,-220 50,-439 118,-642 101,-203 220,-389 372,-541 152,-153 338,-271 541,-355 203,-85 423,-136 642,-136zm1100 575c-153,-135 -322,-253 -508,-338 -186,-68 -389,-101 -592,-101 -202,0 -405,33 -591,101 -186,85 -355,203 -508,338 -135,152 -253,321 -338,507 -67,186 -118,389 -118,592 0,220 51,406 118,592 85,186 203,355 338,507 153,136 322,254 508,338 186,68 389,119 591,119 203,0 406,-51 592,-119 186,-84 355,-202 508,-338 135,-152 253,-321 338,-507 67,-186 118,-372 118,-592 0,-203 -51,-406 -118,-592 -85,-186 -203,-355 -338,-507z"/>
   <path class="fil0" d="M3991 7990l3247 0c17,0 34,17 51,34l0 0c17,0 17,17 17,34l0 3246c0,17 0,34 -17,51 -17,0 -34,17 -51,17l-3247 0c-16,0 -33,-17 -33,-17l0 0c-17,-17 -17,-34 -17,-51l0 -3246c0,-17 0,-34 17,-34l0 0c0,-17 17,-34 33,-34zm3196 136l-3128 0 0 3111 3128 0 0 -3111z"/>
   <path class="fil0" d="M4076 4558l913 1589 0 0 0 0 0 0 0 0 0 0 0 0 930 1590c0,17 0,34 0,50 0,17 -17,34 -34,34l0 0 0 0c0,0 0,17 -17,17l0 0c0,0 0,0 0,0 0,0 0,0 0,0l0 0 -1843 0 -1843 0c-17,0 -34,-17 -51,-17l0 0c0,-17 -16,-34 -16,-50 0,0 0,-17 16,-17l0 0c0,0 0,-17 0,-17l914 -1590c0,0 0,0 0,0l0 0 0 0 930 -1589c0,-17 16,-34 33,-34 17,0 34,0 51,0 0,17 0,17 0,17 17,0 17,17 17,17l0 0zm812 1657l-863 -1505 -862 1505c0,0 0,0 0,0l-879 1488 1741 0 1725 0 -862 -1488 0 0 0 0 0 0 0 0 0 0 0 0z"/>
   <path class="fil0" d="M10467 3611l0 0 964 2891 3044 -33c34,0 68,33 68,67 0,17 -17,51 -34,51l0 0 -2452 1809 964 2892c17,33 0,67 -34,84 -34,0 -51,0 -68,-17l-2468 -1775 -2452 1826c-34,17 -68,0 -102,-17 0,-17 -17,-51 0,-68l0 0 913 -2908 -2468 -1758c-34,-17 -34,-68 -17,-102 17,-17 34,-17 51,-17l3043 -17 913 -2908c17,-34 51,-51 85,-51 17,17 34,34 50,51zm846 2976l-913 -2739 -862 2756 0 0c-17,34 -34,51 -68,51l-2875 16 2351 1674 0 0c17,17 34,34 17,68l-880 2756 2317 -1725c34,-16 67,-16 84,0l2351 1674 -930 -2722c0,-34 0,-67 34,-84l2316 -1708 -2874 34c-34,0 -68,-17 -68,-51l0 0z"/>
   <path class="fil1" d="M11567 5758l676 2097 2198 0 0 0c17,0 34,0 51,17l0 0c17,0 17,17 17,34 0,17 0,17 0,34l0 0c-17,0 -17,17 -17,17 0,0 0,0 0,0l0 0 -1793 1302 677 2096c17,17 17,34 0,51 0,17 -17,17 -34,34l0 0m-1116 -3568l-693 -2114 0 0c0,0 0,-17 0,-17 0,0 -17,0 -17,0 -17,-16 -17,-16 -34,0 0,0 -17,0 -17,17l-440 1370m-997 744l-1471 0c0,0 0,0 0,0 0,0 -17,0 -17,0 0,0 0,17 -17,17 0,0 0,17 0,34 0,0 0,17 17,17l51 33m2976 -2215l0 0m659 2114c0,0 0,0 0,0m2215 0l-2215 0m2249 17c0,-17 -17,-17 -34,-17l0 0m34 17l0 0m17 17c0,0 -17,-17 -17,-17l0 0m0 34c17,0 17,0 17,-17m-17 17l0 0m0 17c0,0 0,0 0,-17m0 17c0,0 0,0 0,0m-1792 1302l1792 -1302m-1809 1319c0,-17 0,-17 17,-17m676 2113l-693 -2096m693 2130c0,0 0,-17 0,-34m-17 51c0,0 17,0 17,-17m-17 17l0 0m-34 0c17,0 17,0 34,0m-34 34c0,0 -17,-17 -17,-17l-1133 -829m-997 -220l-1437 1049c-17,17 -34,17 -51,17 -17,-17 -34,-17 -34,-34 -17,0 -17,-17 -17,-17 0,-17 0,-34 0,-34 0,0 0,0 0,0l0 0 0 0 271 -795m-1353 -2587l-17 -16c-17,0 -17,-17 -34,-34 0,-17 17,-34 17,-51 0,0 17,-17 34,-17 0,0 17,0 17,0l0 0 1471 0m981 -778l439 -1319c0,-17 17,-33 34,-50 0,0 17,0 34,0 17,0 17,17 34,17 0,16 17,16 17,33l0 0m1724 5648c17,0 17,0 17,0m-17 0c0,0 0,0 0,0m-1150 -846l1150 846m-3584 0l1437 -1048m-1471 1048c17,0 17,0 34,0m-51 -17c0,17 17,17 17,17m-34 -34c0,17 17,17 17,17m0 -34c-17,17 -17,17 -17,17m17 -17c0,0 0,0 0,0m270 -828l-270 828"/>
  </g>
  <rect class="fil2" width="15000" height="15000"/>
 </g>
</svg>
