<?xml version="1.0" encoding="UTF-8"?>
<!DOCTYPE svg PUBLIC "-//W3C//DTD SVG 1.1//EN" "http://www.w3.org/Graphics/SVG/1.1/DTD/svg11.dtd">
<!-- Creator: CorelDRAW X6 -->
<svg xmlns="http://www.w3.org/2000/svg" xml:space="preserve" width="150mm" height="150mm" version="1.1" style="shape-rendering:geometricPrecision; text-rendering:geometricPrecision; image-rendering:optimizeQuality; fill-rule:evenodd; clip-rule:evenodd"
viewBox="0 0 15000 15000"
 xmlns:xlink="http://www.w3.org/1999/xlink">
 <defs>
  <style type="text/css">
   <![CDATA[
    .str0 {stroke:#FEFEFE;stroke-width:124.88;stroke-linecap:round;stroke-linejoin:round}
    .fil0 {fill:none}
   ]]>
  </style>
 </defs>
 <g id="Слой_x0020_1">
  <metadata id="CorelCorpID_0Corel-Layer"/>
  <g id="_534468072">
   <g id="_680185992">
    <g>
     <path class="fil0 str0" d="M5627 5333c496,-82 827,-545 744,-1025 -49,-314 -248,-562 -513,-678 34,-33 83,-83 149,-116 33,-17 50,-50 50,-83 -17,-33 -33,-49 -66,-66 -149,-50 -315,-16 -480,33 17,-49 50,-116 83,-182 16,-16 16,-49 0,-82 -17,-34 -50,-34 -83,-34 -331,50 -562,431 -661,646 -17,33 -17,66 -34,115 -165,182 -248,447 -198,728 66,480 529,827 1009,744l0 0z"/>
     <path class="fil0 str0" d="M11746 5168c-132,-116 -330,-116 -446,16l-1042 1125c-83,-66 -182,-99 -298,-116l-446 -82c-116,-17 -232,0 -331,33l-645 -1406c-66,-149 -248,-215 -414,-149 -149,83 -215,265 -149,414l745 1620c-17,67 16,-66 -248,1671l-414 496 17 17c99,148 165,314 165,496l0 1505c0,0 17,0 17,0 215,0 397,-182 397,-397l0 -1108 430 -529 380 66 -99 645c0,16 0,33 0,66l16 1389c0,215 166,381 381,381 0,0 0,0 0,0 215,0 397,-182 397,-397l-17 -1357c17,-148 414,-2596 414,-2662l1207 -1290c116,-133 99,-331 -17,-447l0 0z"/>
     <path class="fil0 str0" d="M9778 5846c414,66 794,-198 860,-612 33,-231 -49,-446 -182,-612 0,-33 -16,-66 -33,-99 -66,-166 -264,-480 -545,-529 -17,0 -50,0 -67,33 -16,16 -16,49 0,66 33,49 50,99 67,149 -133,-50 -265,-66 -397,-33 -34,16 -50,33 -50,66 0,33 16,49 33,66 50,33 99,66 132,99 -231,99 -397,298 -430,563 -66,397 215,793 612,843l0 0z"/>
     <path class="fil0 str0" d="M7215 8261c-315,-2001 -315,-2001 -315,-2001l894 -1952c99,-182 16,-397 -182,-480 -182,-99 -397,-16 -497,166l-760 1687c-133,-50 -265,-50 -397,-33l-546 82c-132,17 -248,66 -347,149l-1257 -1356c-149,-149 -381,-149 -530,-17 -149,149 -165,381 -16,530l1439 1554c0,0 215,1406 512,3192l-33 1638c0,264 215,463 463,480 0,0 0,0 17,0 248,0 463,-215 463,-464l17 -1670c0,-33 0,-50 0,-83l-133 -761 463 -99 530 645 0 1340c0,248 198,463 463,463 248,0 463,-215 463,-463l0 -1505c0,-99 -33,-215 -99,-298l-612 -744 0 0z"/>
    </g>
    <g>
    </g>
    <g>
    </g>
    <g>
    </g>
    <g>
    </g>
    <g>
    </g>
    <g>
    </g>
    <g>
    </g>
    <g>
    </g>
    <g>
    </g>
    <g>
    </g>
    <g>
    </g>
    <g>
    </g>
    <g>
    </g>
    <g>
    </g>
    <g>
    </g>
   </g>
  </g>
  <rect class="fil0" width="15000" height="15000"/>
 </g>
</svg>
