<svg width="340" height="333" viewBox="0 0 340 333" fill="none" xmlns="http://www.w3.org/2000/svg">
<path d="M199.183 53.2768C207.718 42.7371 224.753 49.2765 224.044 62.82L220.476 130.894C220.113 137.816 224.249 144.185 230.72 146.669L294.36 171.098C307.022 175.958 306.067 194.181 292.967 197.691L227.122 215.334C220.426 217.128 215.647 223.03 215.285 229.952L211.717 298.026C211.007 311.57 193.381 316.292 185.995 304.918L148.868 247.748C145.093 241.935 138.004 239.213 131.308 241.007L65.4632 258.651C52.3632 262.161 42.4248 246.857 50.9597 236.317L93.8591 183.341C98.2213 177.954 98.6187 170.371 94.8435 164.557L57.7166 107.387C50.3302 96.0131 61.8139 81.8319 74.4752 86.6922L138.115 111.121C144.586 113.605 151.921 111.64 156.283 106.253L199.183 53.2768Z" stroke="white" stroke-width="2"/>
</svg>
