<svg width="26" height="26" viewBox="0 0 26 26" fill="none" xmlns="http://www.w3.org/2000/svg">
<path d="M11.3909 2.39932C12.0057 0.561995 14.6124 0.584742 15.195 2.43252L16.7585 7.39123C17.0191 8.21758 17.7821 8.78218 18.6485 8.78974L23.8476 8.83512C25.785 8.85202 26.5689 11.3382 24.9916 12.4633L20.7587 15.4826C20.0533 15.9857 19.7521 16.8858 20.0127 17.7122L21.5762 22.6709C22.1588 24.5187 20.0365 26.0325 18.4791 24.88L14.2996 21.7873C13.603 21.272 12.6539 21.2637 11.9485 21.7668L7.71563 24.7861C6.13832 25.9112 4.04281 24.3606 4.65757 22.5233L6.30735 17.5926C6.58228 16.7709 6.29685 15.8657 5.60035 15.3503L1.42081 12.2576C-0.13662 11.1051 0.690533 8.63303 2.62791 8.64993L7.82707 8.69531C8.69349 8.70287 9.46624 8.15167 9.74117 7.32999L11.3909 2.39932Z" fill="white"/>
</svg>
