<svg width="453" height="434" fill="none" xmlns="http://www.w3.org/2000/svg"><path d="M206.31 18.84c3.738-13.038 21.974-13.674 26.613-.93l45.895 126.094a15.998 15.998 0 0015.593 10.518l134.105-4.683c13.554-.473 19.795 16.674 9.108 25.024l-105.741 82.614a15.999 15.999 0 00-5.184 18.08l45.894 126.095c4.639 12.744-9.74 23.978-20.984 16.394L240.363 343.01a16.002 16.002 0 00-18.798.656l-105.74 82.614c-10.688 8.35-25.816-1.854-22.077-14.891L130.735 282.4a16.003 16.003 0 00-6.433-17.675L13.055 189.689c-11.243-7.584-6.213-25.125 7.34-25.598l134.106-4.683a16.001 16.001 0 0014.822-11.58L206.31 18.839z" stroke="#fff" stroke-width="2"/></svg>