<svg width="601" height="588" fill="none" xmlns="http://www.w3.org/2000/svg"><path d="M364.713 89.828c8.535-10.54 25.57-4 24.86 9.543l-7.658 146.124a16 16 0 0010.245 15.774l136.605 52.438c12.661 4.86 11.706 23.083-1.394 26.593l-141.338 37.872a16 16 0 00-11.837 14.617l-7.658 146.124c-.71 13.544-18.336 18.267-25.722 6.892l-79.694-122.718a16 16 0 00-17.56-6.74l-141.338 37.871c-13.1 3.511-23.039-11.793-14.504-22.333l92.085-113.715a16 16 0 00.984-18.784l-79.694-122.718c-7.386-11.374 4.098-25.555 16.759-20.695l136.605 52.438a16.001 16.001 0 0018.169-4.868l92.085-113.715z" stroke="#fff" stroke-width="2"/></svg>