<svg width="268" height="260" fill="none" xmlns="http://www.w3.org/2000/svg"><path d="M102.022 35.227c1.653-13.46 19.566-16.942 26.141-5.08l26.394 47.617a16 16 0 0017.047 7.949l53.443-10.389c13.313-2.587 22.16 13.372 12.911 23.291l-37.131 39.817a16.002 16.002 0 00-2.292 18.669l26.395 47.618c6.575 11.861-5.87 25.207-18.162 19.475l-49.342-23.008a15.999 15.999 0 00-18.463 3.588l-37.131 39.818c-9.25 9.919-25.787 2.207-24.134-11.254l6.635-54.038a16 16 0 00-9.12-16.451l-49.342-23.008c-12.291-5.732-10.067-23.844 3.246-26.432l53.443-10.388a15.999 15.999 0 0012.828-13.756l6.634-54.038z" stroke="#fff" stroke-width="2"/></svg>