<svg width="24" height="24" fill="none" xmlns="http://www.w3.org/2000/svg"><path d="M8.054 5.367C8.01 4.11 9.603 3.53 10.378 4.521l2.574 3.295a1.3 1.3 0 001.469.42l3.928-1.429c1.183-.43 2.227.905 1.522 1.949l-2.337 3.465a1.3 1.3 0 00.053 1.528l2.574 3.294c.775.992-.172 2.397-1.383 2.05l-4.018-1.152a1.3 1.3 0 00-1.437.522l-2.337 3.466c-.704 1.044-2.333.577-2.377-.681l-.146-4.178a1.3 1.3 0 00-.941-1.205l-4.018-1.152c-1.211-.347-1.27-2.04-.087-2.471l3.929-1.43A1.3 1.3 0 008.2 9.545l-.146-4.178z" fill="#fff"/></svg>