<svg width="79" height="76" fill="none" xmlns="http://www.w3.org/2000/svg"><path d="M46.039 11.488c1.789-2.29 5.463-.953 5.362 1.951l-.581 16.643a3 3 0 001.972 2.924L68.44 38.7c2.731.994 2.595 4.902-.199 5.703l-16.008 4.59a3 3 0 00-2.17 2.78l-.582 16.642c-.101 2.905-3.86 3.982-5.485 1.573l-9.312-13.806a3 3 0 00-3.314-1.206l-16.008 4.59c-2.794.801-4.98-2.44-3.191-4.73l10.252-13.123a3 3 0 00.124-3.525l-9.313-13.806c-1.625-2.409.783-5.49 3.513-4.496l15.65 5.695a3 3 0 003.39-.972l10.252-13.122z" fill="#fff"/></svg>