<svg xmlns="http://www.w3.org/2000/svg" width="394.178" height="429.517" viewBox="0 0 1176 1281" xmlns:xlink="http://www.w3.org/1999/xlink" shape-rendering="geometricPrecision" text-rendering="geometricPrecision" image-rendering="optimizeQuality" fill-rule="evenodd" clip-rule="evenodd"><defs><linearGradient id="id12" gradientUnits="userSpaceOnUse" xlink:href="#id7" x1="680.672" y1="828.666" x2="697.386" y2="875.95"/><linearGradient id="id18" gradientUnits="userSpaceOnUse" xlink:href="#id8" x1="467.056" y1="475.045" x2="902.993" y2="628.848"/><linearGradient id="id3" gradientUnits="userSpaceOnUse" x1="329.456" y1="846.131" x2="538.406" y2="846.131"><stop offset="0" stop-color="#fabdac"/><stop offset="1" stop-color="#fabdac"/></linearGradient><linearGradient id="id4" gradientUnits="userSpaceOnUse" xlink:href="#id3" x1="198.513" y1="529.395" x2="224.054" y2="529.395"/><linearGradient id="id5" gradientUnits="userSpaceOnUse" xlink:href="#id3" x1="200.353" y1="600.312" x2="212.319" y2="600.312"/><linearGradient id="id6" gradientUnits="userSpaceOnUse" xlink:href="#id3" x1="196.012" y1="656.463" x2="206.548" y2="656.463"/><linearGradient id="id7" gradientUnits="userSpaceOnUse" x1="202.588" y1="700.672" x2="325.687" y2="700.672"><stop offset="0" stop-color="#fbbea7"/><stop offset="1" stop-color="#fbbea7"/></linearGradient><linearGradient id="id8" gradientUnits="userSpaceOnUse" x1="332.995" y1="846.264" x2="539.215" y2="846.264"><stop offset="0" stop-color="#fcd0bd"/><stop offset="1" stop-color="#fcd0bd"/></linearGradient><linearGradient id="id9" gradientUnits="userSpaceOnUse" xlink:href="#id8" x1="186.33" y1="603.406" x2="347.996" y2="603.406"/><linearGradient id="id10" gradientUnits="userSpaceOnUse" xlink:href="#id8" x1="201.258" y1="613.327" x2="286.464" y2="613.327"/><linearGradient id="id11" gradientUnits="userSpaceOnUse" xlink:href="#id8" x1="195.97" y1="585.091" x2="235.961" y2="585.091"/><linearGradient id="id2" gradientUnits="userSpaceOnUse" x1="330.774" y1="801.138" x2="331.68" y2="801.138"><stop offset="0" stop-color="#f8ac9c"/><stop offset="1" stop-color="#f8ac9c"/></linearGradient><linearGradient id="id13" gradientUnits="userSpaceOnUse" x1="778.501" y1="521.167" x2="839.41" y2="504.309"><stop offset="0" stop-color="#f8a895"/><stop offset="1" stop-color="#f8a895"/></linearGradient><linearGradient id="id14" gradientUnits="userSpaceOnUse" xlink:href="#id3" x1="417.179" y1="707.923" x2="854.787" y2="561.369"/><linearGradient id="id15" gradientUnits="userSpaceOnUse" xlink:href="#id8" x1="416.071" y1="704.171" x2="860.095" y2="555.468"/><linearGradient id="id16" gradientUnits="userSpaceOnUse" xlink:href="#id8" x1="704.468" y1="1097.62" x2="776.065" y2="1095.1"/><linearGradient id="id17" gradientUnits="userSpaceOnUse" xlink:href="#id3" x1="466.504" y1="479.063" x2="893.919" y2="629.86"/><linearGradient id="id19" gradientUnits="userSpaceOnUse" xlink:href="#id7" x1="771.823" y1="524.706" x2="855.185" y2="501.632"/><linearGradient id="id20" gradientUnits="userSpaceOnUse" xlink:href="#id8" x1="725.023" y1="396.193" x2="923.234" y2="440.422"/><linearGradient id="id21" gradientUnits="userSpaceOnUse" xlink:href="#id3" x1="759.181" y1="1097.45" x2="785.917" y2="1096.51"/><linearGradient id="id22" gradientUnits="userSpaceOnUse" xlink:href="#id8" x1="810.574" y1="1104.78" x2="921.997" y2="1086.17"/><linearGradient id="id23" gradientUnits="userSpaceOnUse" xlink:href="#id8" x1="833.162" y1="430.777" x2="872.134" y2="456.094"/><linearGradient id="id24" gradientUnits="userSpaceOnUse" xlink:href="#id3" x1="877.133" y1="1087.65" x2="922.264" y2="1080.11"/><radialGradient id="id36" gradientUnits="objectBoundingBox" cx="150%" cy="-50%" r="50%" fx="150%" fy="-50%"><stop offset="0" stop-color="#faf9f9"/><stop offset="1" stop-color="#f8f8f9"/></radialGradient><radialGradient id="id35" gradientUnits="objectBoundingBox" cx="99%" cy="44%" r="50%" fx="99%" fy="44%"><stop offset="0" stop-color="#d1d32b"/><stop offset="1" stop-color="#c4c824"/></radialGradient><radialGradient id="id34" gradientUnits="objectBoundingBox" cx="65%" cy="-50%" r="50%" fx="65%" fy="-50%"><stop offset="0" stop-color="#e9da61"/><stop offset="1" stop-color="#e0cc4a"/></radialGradient><radialGradient id="id25" gradientUnits="objectBoundingBox" cx="-50%" cy="150.004%" r="50%" fx="-50%" fy="150.004%"><stop offset="0" stop-color="#ebf0fa"/><stop offset="1" stop-color="#e8eff9"/></radialGradient><radialGradient id="id26" gradientUnits="objectBoundingBox" cx="-50%" cy="79%" r="50%" fx="-50%" fy="79%"><stop offset="0" stop-color="#ebf0fa"/><stop offset="1" stop-color="#e7eff9"/></radialGradient><radialGradient id="id27" gradientUnits="objectBoundingBox" cx="-50%" cy="58.005%" r="50.003%" fx="-50%" fy="58.005%"><stop offset="0" stop-color="#fefefe"/><stop offset=".71" stop-color="#fefefe"/><stop offset="1" stop-color="#fefefe"/></radialGradient><radialGradient id="id28" gradientUnits="objectBoundingBox" cx="-50%" cy="33%" r="50%" fx="-50%" fy="33%"><stop offset="0" stop-color="#d1d32b"/><stop offset="1" stop-color="#bcc222"/></radialGradient><radialGradient id="id29" gradientUnits="objectBoundingBox" cx="-50%" cy="24%" r="50%" fx="-50%" fy="24%"><stop offset="0" stop-color="#b5b940"/><stop offset=".929" stop-color="#8f9831"/><stop offset="1" stop-color="#8f9831"/></radialGradient><radialGradient id="id30" gradientUnits="objectBoundingBox" cx="-49.999%" cy="-50%" r="50%" fx="-49.999%" fy="-50%"><stop offset="0" stop-color="#d1d32b"/><stop offset=".988" stop-color="#bac01f"/><stop offset="1" stop-color="#bac01f"/></radialGradient><radialGradient id="id31" gradientUnits="objectBoundingBox" cx="-49.995%" cy="-50%" r="50%" fx="-49.995%" fy="-50%"><stop offset="0" stop-color="#d4d5d8"/><stop offset="1" stop-color="#c1c2c7"/></radialGradient><radialGradient id="id32" gradientUnits="objectBoundingBox" xlink:href="#id26" cx="14%" cy="121%" r="50%" fx="14%" fy="121%"/><radialGradient id="id33" gradientUnits="objectBoundingBox" cx="61.001%" cy="-50%" r="50%" fx="61.001%" fy="-50%"><stop offset="0" stop-color="#c5bb5f"/><stop offset="1" stop-color="#afa349"/></radialGradient><clipPath id="id0" clip-rule="nonzero"><path d="M383 247c15-7 29-16 40-28-11 12-25 21-40 28zm45-33l3-3c7-8 13-18 18-28v-1c-5 12-12 22-21 32zm23-35v-2c3-7 5-14 7-21 0-2 1-5 1-7-1 10-4 20-8 30zm8-30zm2-19zm0 0zm0-1zm0 0zm0 0z"/></clipPath><clipPath id="id1" clip-rule="nonzero"><path d="M333 257c-17 0-33-3-48-9 2 0 4 1 6 2l1-5 15-12v-6l9-3 5-5v-1c8-2 17-5 25-8 15-7 29-16 41-27 2-2 3-4 5-6l1 2h5v4l-3 8 5 7v10l-5 11 3 8v12c9-5 18-12 25-20-11 12-25 21-40 28-16 6-33 10-50 10zm-51-11c-13-5-25-13-36-23l-4-4c-6-6-11-13-16-20 6 4 13 8 20 11 10 4 20 7 30 8v12l3 15c1 0 2 1 3 1zm149-35zm0 0c3-3 6-7 9-12 1-2 3-5 5-8 1-3 2-5 4-8-5 10-11 20-18 28zm20-34zm0 0c2-3 3-7 4-10l-3-1-2-3-5-10s-1-4-1-5l-3-8-2-5 2-2 3 7 3 8 7 14 3-1c0-2 1-3 1-5-2 7-4 14-7 21zm10-47zm0-1zm0 0zm0 0zm-27-3h-7l-5-3h-2c2-6 3-13 3-19l2 1 3-1h1l-1-3 2-7 3-4 3 4 2 1 3-3h3l1 3 1 7h5l-5 6-3-5h-5l-8 2h-4l2 7 3 2h10v11l-7 1zm-14-65v-2l1-1 1-1 8 1v1l-2 2h-8zm-10-28c-2-4-4-8-7-11 3 1 5 3 7 5v6z"/></clipPath><style>.fil4{fill:#f1c04b}.fil8{fill:#86776f}.fil7{fill:#d7b56d}.fil56{fill:#fefefe}.fil9{fill:#ef4955}.fil11{fill:#ffd880}.fil3{fill:#297855}.fil10{fill:#4d2e78}.fil12{fill:#735994}.fil0{fill-rule:nonzero}.fil18{fill:#3f4450}.fil18,.fil83{fill-rule:nonzero}.fil0{fill:#414855}.fil83{fill:#4c3963}.fil15{fill:#a8b3b8}.fil15,.fil16,.fil38{fill-rule:nonzero}.fil38{fill:#bfc31c}.fil16{fill:#c1c6ce}.fil14{fill:#c3c8cb}.fil14,.fil19,.fil22{fill-rule:nonzero}.fil22{fill:#c5cbd0}.fil19{fill:#d4dadf}.fil13,.fil39{fill-rule:nonzero}.fil39{fill:#e2ebf8}.fil13{fill:#e3e9ed}.fil24,.fil62{fill-rule:nonzero;fill:#fefefe}.fil62{fill:#44a5af}.fil59{fill:#44b5c1}.fil59,.fil79,.fil89{fill-rule:nonzero}.fil79{fill:#4f3f38}.fil89{fill:#543e3d}.fil60,.fil63,.fil82{fill-rule:nonzero}.fil82{fill:#554443}.fil63{fill:#5bc3d5}.fil60{fill:#5cd6ea}.fil81,.fil86,.fil88{fill-rule:nonzero}.fil86{fill:#6f5554}.fil88{fill:#bfadab}.fil81{fill:#c1bebc}.fil70{fill-rule:nonzero}.fil92{fill:#edb16a}.fil92,.fil96{fill-rule:nonzero}.fil70{fill:#ef4955}.fil96{fill:#fadfda}.fil2{fill:#fde8e8}.fil2,.fil72,.fil99{fill-rule:nonzero}.fil99{fill:#ffd880}.fil72{fill:#735994}</style></defs><g id="Слой_x0020_1"><path class="fil0" d="M217 253L455 15 445 5 207 243z"/><circle cx="333" cy="128" r="128" fill="#008dd2"/><path class="fil2" d="M1135 1098c2-4 4-8 4-10 3-7 8-9 14-9-6 0-11 2-14 9 0 2-2 6-4 10zm38-120l3-9-3 9zm-18-88c-7-2-14-3-20-5v-1 1c6 2 13 3 20 5z"/><path class="fil3" transform="matrix(.0168 -.13146 1.41578 .1809 1023.04 1016.56)" d="M0 0h1139.31v26.843H0z"/><path class="fil4" transform="matrix(.02104 -.16468 .94428 .12065 1062.34 1018.88)" d="M0 0h1139.31v26.843H0z"/><path d="M822 388l-11-2 11 2m-13-2h-1 1z" fill="#afb5ba" fill-rule="nonzero"/><path fill="#8f9ca2" fill-rule="nonzero" d="M811 386h-2 2z"/><path class="fil7" d="M816 462l25 18 26 19-10 30-10 30h-63l-9-30-10-30 25-19z"/><path class="fil8" d="M0 323h1139.31v26.843H0z"/><path class="fil9" transform="matrix(0 -.16602 1.42729 0 28.879 554.808)" d="M0 0h1139.31v26.843H0z"/><path class="fil9" transform="matrix(0 -.16602 1.42729 0 245.051 790.096)" d="M0 0h1139.31v26.843H0z"/><path class="fil9" transform="matrix(.0509 -.15802 1.35855 .4376 870.304 1008.17)" d="M0 0h1139.31v26.843H0z"/><path class="fil10" transform="matrix(0 -.16602 -1.42729 0 1018.48 787.246)" d="M0 0h1139.31v26.843H0z"/><path class="fil10" transform="matrix(0 -.16602 -1.42729 0 147.079 787.524)" d="M0 0h1139.31v26.843H0z"/><path class="fil10" transform="matrix(-.0501 -.15828 -1.36075 .43071 387.914 544.416)" d="M0 0h1139.31v26.843H0z"/><path class="fil11" transform="matrix(0 -.16602 -1.42729 0 1112.58 787.246)" d="M0 0h1139.31v26.843H0z"/><path class="fil11" transform="matrix(0 -.16602 -1.42729 0 241.174 787.524)" d="M0 0h1139.31v26.843H0z"/><path class="fil3" transform="matrix(0 -.13253 1.42729 0 150.966 554.613)" d="M0 0h1139.31v26.843H0z"/><path class="fil3" transform="matrix(0 -.13253 1.42729 0 367.139 789.9)" d="M0 0h1139.31v26.843H0z"/><path class="fil12" transform="matrix(.06626 -.15222 -1.30867 -.56967 827.616 788.134)" d="M0 0h1139.31v26.843H0z"/><path class="fil3" transform="matrix(0 -.16602 .95196 0 68.891 554.806)" d="M0 0h1139.31v26.843H0z"/><path class="fil3" transform="matrix(0 -.16602 .95196 0 285.064 790.094)" d="M0 0h1139.31v26.843H0z"/><path class="fil3" transform="matrix(.02104 -.16468 .94428 .12065 995.769 1015.87)" d="M0 0h1139.31v26.843H0z"/><path class="fil10" transform="matrix(0 -.16602 -.95196 0 978.957 787.244)" d="M0 0h1139.31v26.843H0z"/><path class="fil10" transform="matrix(0 -.16602 -.95196 0 107.554 787.522)" d="M0 0h1139.31v26.843H0z"/><path class="fil10" transform="matrix(-.0501 -.15828 -.90758 .28727 346.868 547.758)" d="M0 0h1139.31v26.843H0z"/><path class="fil4" transform="matrix(0 -.15641 -.95196 0 1073.05 787.244)" d="M0 0h1139.31v26.843H0z"/><path class="fil4" transform="matrix(0 -.15641 -.95196 0 201.649 787.522)" d="M0 0h1139.31v26.843H0z"/><path class="fil9" transform="matrix(0 -.1469 .95196 0 95.955 555.327)" d="M0 0h1139.31v26.843H0z"/><path class="fil9" transform="matrix(0 -.1469 .95196 0 312.128 790.614)" d="M0 0h1139.31v26.843H0z"/><path class="fil9" transform="matrix(.03492 -.14269 .92467 .22631 922.354 1013.26)" d="M0 0h1139.31v26.843H0z"/><path class="fil12" transform="matrix(0 -.14209 -.95196 0 952.517 786.583)" d="M0 0h1139.31v26.843H0z"/><path class="fil12" transform="matrix(0 -.14209 -.95196 0 81.115 786.862)" d="M0 0h1139.31v26.843H0z"/><path class="fil12" transform="matrix(-.04288 -.13547 -.90758 .28727 318.479 546.905)" d="M0 0h1139.31v26.843H0z"/><path class="fil4" transform="matrix(0 -.1565 -.95196 0 1045.5 787.71)" d="M0 0h1139.31v26.843H0z"/><path class="fil4" transform="matrix(0 -.1565 -.95196 0 174.097 787.989)" d="M0 0h1139.31v26.843H0z"/><path class="fil9" transform="matrix(0 -.1469 .95196 0 123.507 555.739)" d="M0 0h1139.31v26.843H0z"/><path class="fil9" transform="matrix(0 -.1469 .95196 0 339.68 791.026)" d="M0 0h1139.31v26.843H0z"/><path class="fil9" transform="matrix(.01862 -.14572 .94428 .12065 968.471 1017.27)" d="M0 0h1139.31v26.843H0z"/><path class="fil12" transform="matrix(0 -.1425 -.95196 0 924.921 787.05)" d="M0 0h1139.31v26.843H0z"/><path class="fil12" transform="matrix(0 -.1425 -.95196 0 53.519 787.328)" d="M0 0h1139.31v26.843H0z"/><path class="fil12" transform="matrix(-.043 -.13586 -.90758 .28727 290.802 548.221)" d="M0 0h1139.31v26.843H0z"/><path class="fil4" transform="matrix(0 -.16602 .95196 0 190.525 554.147)" d="M0 0h1139.31v26.843H0z"/><path class="fil8" d="M26 556h1086.6v26.843H26zm-1 232h1086.6v26.843H25zm3 233h1086.6v26.843H28z"/><path class="fil8" transform="matrix(0 -.74011 1 0 .078 1193.39)" d="M0 0h1139.31v26.843H0z"/><path class="fil8" transform="matrix(0 -.74011 1 0 1112.44 1193.35)" d="M0 0h1139.31v26.843H0z"/><path class="fil13" d="M134 168c-4-2-7-3-11-4l-15 33c8-8 18-12 25-8 13 6 15 30 4 53-11 24-31 38-44 32-7-3-11-12-10-24l-7 15-16-8c-1 0-2 0-3 1v2c-1 1 0 2 1 3l15 7-5 12c3 2 6 4 10 6 30 14 66-2 82-35 15-33 4-71-26-85z"/><path class="fil0" d="M87 220c-1 1-1 2-2 1l-14-6v-2l23-49 2-2 14 7v2l-23 49z"/><path class="fil13" d="M100 202c-1 1-2 2-3 2l-19-10c-1 0-1-1-1-3l33-70c1-1 2-2 3-2l19 9c1 1 1 2 0 3l-32 71z"/><path class="fil13" d="M108 197c0 1-2 1-3 1l-28-14c-1 0-2-2-1-3l24-53c1-1 2-1 3-1l29 14c1 0 1 2 1 3l-25 53z"/><path class="fil0" d="M134 130s-1 1-2 0l-21-9c-1-1-1-2-1-3l16-32c0-1 1-1 2-1l21 10c1 0 1 1 1 2l-16 33z"/><path class="fil14" d="M109 196c6-6 12-9 18-9 2 0 4 1 6 1-2 0-4-1-6-1-6 0-12 3-18 9zm26-27c0-1 0-1-1-1 1 0 1 0 1 1z"/><path class="fil15" d="M109 196l14-32c4 1 8 2 11 4 1 0 1 0 1 1h1s1 0 1 1h2c0 1 0 1 1 1l1 1c1 1 3 2 4 3 0 1-1 3-2 5-2 5-6 7-10 8-2 0-4-1-6-1-6 0-12 3-18 9z"/><path class="fil16" d="M130 312l-9-24c-3-6-7-11-13-11-5 0-9 5-10 11l-2 24h34z"/><path class="fil13" d="M114 286c0 3-3 5-5 5-3 0-5-2-5-5 0-2 2-5 5-5 2 0 5 3 5 5z"/><path d="M85 221zm0 0c1 0 1 0 2-1-1 1-1 1-2 1zm0 0zm2-1zm0 0l8-17 2 1-2-1-8 17zm10-16zm0 0c1 0 2-1 2-2 0 1-1 2-2 2zm2-2zm0 0zm0 0zm0 0zm1 0l2-6-2 6zm6-4zm0 0c1 0 2-1 2-1s-1 1-2 1zm2-1zm26-67l16-33v-1 1l-10 21h1c1 0 1 2 1 3l-1 2c-1 1-1 1-2 1h-1l-1-1-3 7z" fill="#eff1f3" fill-rule="nonzero"/><path class="fil18" d="M85 221l-7-3 9-19 8 4-8 17c-1 1-1 1-2 1z"/><path class="fil19" d="M100 202l-12-6 3-5 11 5-2 6zm29-63l-11-5 4-8 10 4c0 1 0 1 1 1h-1l-3 8z"/><path class="fil19" d="M108 197v-1h1l-1 1zm0-1l-16-7 26-55 11 5 3 2c1 0 1 1 1 2v1l-10 20-15 32z"/><path class="fil18" d="M133 131c-1 0-1 0-1-1l-10-4 17-36 10 5 1 1v1l-16 33-1 1z"/><path d="M108 196l15-32-14 32h-1z" fill="#9ba5aa" fill-rule="nonzero"/><path class="fil16" d="M137 320v-12c0-2-2-4-5-4H24c-3 0-5 2-5 4v12h118z"/><path class="fil14" d="M88 270c-3-4-5-10-5-17 0 7 2 13 5 17z"/><path class="fil15" d="M72 272l1-2-15-7c-1-1-1-2-1-2v-3c1 0 2-1 2-1h1l16 8 5-13 2 1c0 7 2 13 5 17l-16 2z"/><path fill="#253d56" fill-rule="nonzero" d="M139 324H17v-7h122z"/><path class="fil13" d="M132 304H24c-3 0-5 2-5 4v3h118v-3c0-2-2-4-5-4z"/><path class="fil0" d="M137 176c-3 7-12 10-20 7-7-4-10-13-7-20 4-7 13-11 20-7 7 3 11 12 7 20z"/><path class="fil13" d="M133 174c-2 5-9 7-14 5-5-3-7-9-5-14 3-5 9-8 14-5 5 2 8 8 5 14z"/><path class="fil19" d="M106 198zm0 0h-1 1zm-1 0l-3-2 3 2zm3-1zm-17-6l-14-7c-1 0-1-1-1-2v-1l16 8-1 2z"/><path class="fil22" d="M106 198h-1l-3-2-11-5 1-2 16 7v1s-1 1-2 1z"/><path d="M108 197v-1 1z" fill="#8e999e" fill-rule="nonzero"/><path class="fil19" d="M97 204zm0 0zm2-2zm0 0zm0 0zm0 0zm0 0zm-12-3l-9-5c-1 0-1 0-1-1v-2l11 5-1 3z"/><path class="fil22" d="M97 204l-2-1-8-4 1-3 12 6h-1c0 1-1 2-2 2z"/><path class="fil24" d="M133 88l-1-1 1 1z"/><path d="M113 132l-3-2 4-8 3 1-4 9zm0 0l-3-2 3 2z" fill="#eef1f3" fill-rule="nonzero"/><path fill="#7a7f88" fill-rule="nonzero" d="M117 123l-3-1 16-36 2 1 1 1z"/><path fill="#eff3f5" fill-rule="nonzero" d="M85 186l-7-4 26-54 7 3z"/><path class="fil24" d="M75 217l-1-1 1 1z"/><path fill="#8f959c" fill-rule="nonzero" d="M75 217l-1-1h-2l9-19 3 1z"/><path d="M141 123c-1 1-2 1-3 1l-26-12c-1-1-1-2 0-3v-2c1-1 2-2 3-1l26 12c1 0 1 2 1 3l-1 2z" fill="#302d30" fill-rule="nonzero"/><path class="fil16" d="M67 265c-1 2-3 4-4 3l-26-12c-1-1-1-3 0-5l1-3c1-2 2-3 4-3l26 13c1 0 1 2 0 4l-1 3z"/><path class="fil0" d="M94 261c-1 2-2 3-3 3l-27-13c-1 0-1-2 0-4l2-3c1-2 2-4 3-3l26 12c1 1 2 3 1 5l-2 3z"/><path d="M99 258c0 1-2 2-3 1l-67-31c-1-1-1-2 0-4v-1c1-2 3-3 4-2l67 31c1 1 1 2 0 4l-1 2z" fill="#9b928d" fill-rule="nonzero"/><path d="M64 244l-24-11 24 11zm-25-12l-10-4s-1-1-1-2c0 1 1 2 1 2l10 4zm-10-9h1-1zm1 0c0-2 1-2 2-2-1 0-2 0-2 2zm3-2zm-1 0z" fill="#fafbfb" fill-rule="nonzero"/><path d="M64 244l-24-11 4-7 23 11-3 7zm-25-12l-10-4s-1-1-1-2 0-1 1-2v-1h1c0-2 1-2 2-2h1l8 4-4 7h2z" fill="#a8a49f" fill-rule="nonzero"/><path class="fil24" d="M40 233l-1-1 1 1zm4-7l-3-1 3 1z"/><path fill="#c5c0bd" fill-rule="nonzero" d="M44 226l-3-1 3 1z"/><path fill="#fcfdfe" fill-rule="nonzero" d="M40 233l-1-1z"/><path fill="#cecbc8" fill-rule="nonzero" d="M40 233l-1-1h-2l4-7 3 1z"/><path class="fil0" d="M331 283c41 0 80-16 109-45s45-68 45-109-16-80-45-109c-3-3-7-3-10 0s-3 7 0 10c27 26 41 61 41 99 0 37-14 72-41 99-26 26-61 41-99 41-37 0-73-15-99-41-3-3-7-3-10 0-2 3-2 7 0 10 29 29 68 45 109 45z"/><path class="fil0" d="M336 312c4 0 7-3 7-7v-29c0-4-3-7-7-7-3 0-6 3-6 7v29c0 4 3 7 6 7z"/><path d="M441 195l-1 4c1-2 3-5 5-8l-4 4zm-176-26l-1-1-1 1z" fill="#f7f6f8" fill-rule="nonzero"/><path d="M316 188l-11-5-4-8-7-2-7-7-15-4-8 6 1 1h-2l-1 1v7l-5 6v9l8 9 2 7 9 7v15l3 15c1 0 3 1 4 2 3 1 5 2 8 3l1-5 15-12v-6l9-3 5-5v-12l7-6v-5l-6-6-6-2z" fill="#ddca4a" fill-rule="nonzero"/><path class="fil38" d="M259 166h-2l-4-8-6-3 1-5-6 1-6-1-2-3v-11l6-6h15l5 5v-7l9-9v-6l13-13 9-6-2-6h-5l3-3h9l8-6-7-8-2-7h-7l-3-6h-5l-6 12-4 8-5-4-8-3-4-3 9-10 3-4h7l-2-5 3-3 5-7 2-4 3 3 1 7-2 5 7 5 3-5-1-3v-4l3 3 3 3 2-3 2-3-5-1-4-5v-4l-5-3-4-7 4-8 8-9c-4 2-8 3-12 5-15 6-29 16-41 27-11 12-21 26-27 41s-10 31-10 47l3 2 7 15-2-13 8 13v7l5 4 12 2 6 4h3l4 6 6 3h6l1-1-5-2z"/><path class="fil39" d="M355 17V3c-7-2-15-2-22-2-10 0-20 1-30 3l-5 8-3 6h9l6 3 3 5v9l3 7-3 5 3 7 5 4 3 5v-7l4-8 4-3 4-3 5-6 12-9 2-10zm11 27h-14l3 6h5z"/><path class="fil38" d="M444 140l3 8 7 14 3-1c2-11 4-21 4-32 0-18-4-34-10-50-7-15-16-29-28-41-4-4-8-8-13-11v6l-1 2-1 3v3l-2 3-4 5-1 2-5 2-1 3v5l1 3h7l2-1 3-4 2-1V48l3-2h1v4l2 3v2l-2 2 2 4 5-3 1-1 8 1v1l-2 2h-7l-2 3-2 2-3 3-2 3-3 1-4-1v-2l2-3-4-1-4-1-2 2-3 3 3 2 2 2-5 3-2 1c-1 0-2 2-2 2l-3 3-4 2-5 1-2 3 3 1 3 2 1 2-1 2-1 2h-5l-3-1h-2v12l2 2 3 1 3 1 3-1s2-1 2-2c0 0 1-2 0-2l2-3 3-1 2-2 3-1 2-1 2-3 1 1v3l-2 1 2 3 1 1h2v-4l1-1 2 2 2 2 2 2v3h-2l-1 1 1 1h1l1-1 2-1v-4h1l2-1-3-1-2-2-4-5v-2l3 1 4 3 2 3 2 2v2s2 3 2 4v2h2l2-2v-4l1-2 2 1 2-1h2l-1-3 2-7 3-4 3 4 2 1 3-3h3l1 3 1 7h5l-5 6-3-5h-5l-8 2h-4l2 7 3 2h10v11l-7 1h-7l-5-3h-6v3h-3l-5-2-5-4-3-6h-11l-5 2h-8l-5 7-1 7-4 3-7 13v16l9 15h11l12-4 2 6h5v4l-3 8 5 7v10l-5 11 3 8v12c9-5 18-12 25-20 6-6 12-13 17-20l1-4 4-4 6-12c1-4 3-8 4-12l-3-1-2-3-5-10s-1-4-1-5l-3-8-2-5 2-2 3 7z"/><path class="fil39" d="M379 75l-1 3v2h6l2-3v-2l-3-4-2-4-2-4-2-2-2 3v4l3 3z"/><path class="fil24" d="M372 77l-1 3 2-1 2-2v-5l-1-1-4 1 1 3z"/><path d="M329 257c-16-1-31-4-46-10-13-6-26-14-37-24 11 10 23 18 36 23 1 0 1 1 1 1 1 0 2 0 2 1 14 5 29 8 44 9z" fill="#cccdd2" fill-rule="nonzero"/><path class="fil0" d="M246 223l-4-4 4 4z"/><path d="M285 248c0-1-1-1-2-1 1 0 2 0 2 1zm-2-1s0-1-1-1c1 0 1 1 1 1z" fill="#b0a44b" fill-rule="nonzero"/><g clip-path="url(#id0)"><image x="382" y="128" width="79.773" height="119.095" xlink:href="Школа икона 1001123213_Images\Школа икона 1001123213_ImgID1.png"/></g><path d="M423 219h1v-1c2-1 3-3 5-4v-1h1v-1l1-1-1 1v1h-1v1h-1c-1 1-2 3-4 4v1h-1m5-5zm21-31v-1l1-1v-2h1-1v2l-1 1v1zm2-4v-2 2zm-2 3zm2-5zm7-21c1-6 2-11 2-16v-1c0-1 1-1 1-1v-8 8s-1 0-1 1v1c0 3 0 6-1 9 0 2 0 4-1 7zm3-26zm0 0zm0 0zm-2 19zm0 0zm0 0zm2-19zm0 0v-1 1zm0-1zm0 0zm0 0zm0 0zm0 0zm0 0zm0 0z" fill="url(#id30)"/><path fill="url(#id36)" d="M265 169h-2l1-1z"/><path d="M296 220c-7 0-14-1-20-2v-3l-9-7-2-7-8-9v-9l5-6v-7l1-1h2l-1-1 8-6 15 4 7 7 7 2 4 8 11 5 6 2 6 6v5l-7 6v11c-8 1-17 2-25 2z" fill="url(#id34)"/><path d="M263 169h-6l-6-3-4-6h-3l-6-4-12-2-5-4v-7l-8-13 2 13-7-15-3-2v-6c1-14 4-28 10-41 6-15 16-29 27-41 12-11 26-21 41-27 4-2 8-3 12-5l-8 9-4 8 4 7 5 3v4l4 5 5 1-2 3-2 3-3-3-3-3v4l1 3-3 5-7-5 2-5-1-7-3-3-2 4-5 7-3 3 2 5h-7l-3 4-9 10 4 3 8 3 5 4 4-8 6-12h5l3 6h7l2 7 7 8-8 6h-9l-3 3h5l2 6-9 6-13 13v6l-9 9v7l-5-5h-15l-6 6v11l2 3 6 1 6-1-1 5 6 3 4 8h2l5 2-1 1zm-48-90zm68-68z" fill="url(#id35)"/><path d="M324 63l-3-5-5-4-3-7 3-5-3-7v-9l-3-5-6-3h-9l3-6 5-8c9-2 19-3 29-3h2c7 0 14 0 21 2v14l-2 10-12 9-5 6-4 3-4 3-4 8v7z" fill="url(#id32)"/><path fill="url(#id25)" d="M360 50h-5l-3-6h14z"/><path d="M379 177h-11l-9-15v-16l7-13 4-3 1-7 5-7h8l5-2h11l3 6 5 4 5 2h3v-3h4c-1 6-3 13-6 19-5 13-13 24-22 35l-1-4-12 4zm82-48c0-18-4-34-10-50 6 16 10 32 10 50zm-82-16l-3-1-3-1-2-2V97h2l3 1h5l1-2 1-2-1-2-3-2-3-1 2-3 5-1 4-2 3-3s1-2 2-2l2-1 5-3-2-2-3-2 3-3 2-2 4 1 4 1-2 3v2l4 1 3-1 2-3 3-3 2-2 1-3c3 10 4 21 4 31v12h-1l-1 2v4l-2 2h-2v-2c0-1-2-4-2-4v-2l-2-2-2-3-4-3-3-1v2l4 5 2 2 3 1-2 1h-1v4l-2 1-1 1h-1l-1-1 1-1h2v-3l-2-2-2-2-2-2-1 1v4h-2l-1-1-2-3 2-1v-3l-1-1-2 3-2 1-3 1-2 2-3 1-2 3c1 0 0 2 0 2 0 1-2 2-2 2l-3 1zm72-34c-7-15-16-29-28-41 12 12 21 26 28 41zm-48-15h-7l-1-3v-5l1-3c1 0 5-2 5-2l1-2 4-5 2-3v-3l1-3 1-2c1 3 3 6 4 9 2 6 4 11 6 17l-4 2-2-4 2-2v-2l-2-3v-4h-1l-3 2v10l-2 1-3 4-2 1zm20-26c-4-4-8-8-13-11 3 2 5 4 7 6 2 1 4 3 6 5z" fill="url(#id28)"/><path fill="url(#id26)" d="M384 80h-6v-2l1-3-1-4-3-3v-4l2-3 2 2 2 4 2 4 3 4v2z"/><path fill="url(#id27)" d="M371 80l1-3-1-2-1-3 4-1 1 1v5l-2 2z"/><g clip-path="url(#id1)"><image x="225" y="21" width="237" height="236" xlink:href="Школа икона 1001123213_Images\Школа икона 1001123213_ImgID2.png"/></g><path d="M440 199l1-4 4-4c-2 3-4 6-5 8z" fill="url(#id31)"/><path d="M291 250c-2-1-4-2-6-2 0-1-1-1-2-1 0 0 0-1-1-1s-2-1-3-1l-3-15v-12c6 1 13 2 20 2 8 0 17-1 25-2v1l-5 5-9 3v6l-15 12-1 5zm-6-2zm-2-1zm-1-1z" fill="url(#id33)"/><path d="M398 239v-12l-3-8 5-11v-10l-5-7 3-8v-4h-5l-1-2c9-11 17-22 22-35 3-6 5-13 6-19h2l5 3h7l7-1v-11h-10l-3-2-2-7h4l8-2h5l3 5 5-6h-5l-1-7-1-3h-3l-3 3-2-1-3-4-3 4-2 7 1 3h-2l-2 1-1-1V92c0-10-1-21-4-31h8l2-2v-1l-8-1-1 1-1 1c-2-6-4-11-6-17-1-3-3-6-4-9v-6c5 3 9 7 13 11 12 12 21 26 28 41 6 16 10 32 10 50v1c0 9-1 17-3 26 0 2-1 3-1 5l-3 1-7-14-3-8-3-7-2 2 2 5 3 8c0 1 1 5 1 5l5 10 2 3 3 1c-1 3-2 7-4 10v2c-1 1-2 3-2 4-2 3-3 5-4 8l-4 4-1 4c-3 5-6 9-9 12s-5 6-8 8c-7 8-16 15-25 20zm25-201zm28 41zm10 50zm-10 50zm-6 12zm-22 28z" fill="url(#id29)"/><path fill="#ccd9d6" fill-rule="nonzero" d="M281 324h111v-19H281z"/><path fill="#adbdb7" fill-rule="nonzero" d="M336 324h56v-19h-56z"/><path class="fil7" d="M641 464h93.201v93.201H641zm369-55h76.056v146.885H1010zm-428 66l24 40 23 40h-93l23-40z"/><circle class="fil7" cx="931" cy="509" r="46"/><g id="_603094784"><path class="fil56" d="M439 554h150.993v38.313H439z"/><path class="fil9" d="M428 527h167.365v25.553H428z"/><path class="fil12" transform="matrix(.06626 -.15222 -.87285 -.37996 798.509 650.253)" d="M0 0h1139.31v26.843H0z"/><path d="M460 720c11 5 37 2 52 3 18 1 39-4 50-7 17-6 133-32 137-33 46-14 95-102 97-125 1-6 1-11 1-15v3c-2 23-52 111-97 125-4 1-120 27-138 33-10 3-32 8-49 7-16-1-41 2-52-3-3-1-5-2-6-4 4-13 14-19 39-26 2 0 4-1 6-2 7-1 14-1 20 1 2 1 4 1 5 1 2 1 3 1 4 1 8 3 15 5 22 2 41-18 74-34 110-40 7-1 13-2 20-2 17-2 34-47 53-68 1-2 3-3 5-5 29-26 45-37 52-37 1 0 2 1 2 1 5 2 5 12 4 28-2 20-40 90-81 117-5 3-11 6-17 8h-2c-17 4-119 28-135 33-11 3-32 8-49 7-8-1-18 0-28 0-6 0-11 0-16-1-4 0-6-1-9-2z" fill="url(#id15)"/><path d="M460 720c-3-2-6-4-6-7 0-4 1-7 1-9 1 2 3 3 6 4 11 5 36 2 52 3 17 1 39-4 49-7 18-6 134-32 138-33 45-14 95-102 97-125v-3c0 4 0 9-1 15-2 23-51 111-97 125-4 1-120 27-137 33-11 3-32 8-50 7-15-1-41 2-52-3z" fill="url(#id14)"/><path class="fil2" d="M863 382s-1-1-1-3c-1-3-2-5-2-9 0 4 1 6 2 9 0 2 1 3 1 3zm10-61c0-3 0-5-1-7 1 2 1 4 1 7z"/><path class="fil59" d="M831 1247c1 9 19 34 58 19 40-16 58-29 57-48-1-8-1-7-5-12-13-13-110 41-110 41z"/><path class="fil60" d="M881 1194c-19 12-84 51-30 65 42 10 82-25 94-39 5-6-9-32-11-37-10-23-42 3-53 11z"/><path d="M891 1201c-2 0-4 0-4-2-1-2-2-5-3-7-14-35-17-41-34-74-18-33-33-79-38-119 24-1 48-4 69-7 0 6-1 11-1 16 1 17-1 26 6 54 9 33 23 83 23 112h1c4 0 7 1 10 4v1c-1 11-20 22-29 22zm29-27c0-26-12-69-20-101 8 32 20 74 20 101zm-22-110s0-1-1-2c-7-28-5-37-6-54 0-6 1-11 2-18-1 7-2 13-2 18 1 17-1 26 6 54 1 1 1 2 1 2z" fill="url(#id22)"/><path class="fil62" d="M866 1270h-6c3 0 6-1 9-2v2h-3zm69-40c4-4 8-7 10-10 0 0 1-1 1-2 0 4-1 8-2 12h-9z"/><path class="fil63" d="M932 1230c2-4 3-8 3-12v-1c1-8-10-29-12-34-1-2-2-4-3-5v-5h1c5 0 10 3 13 10 1 2 3 5 5 10 3 8 8 19 7 24v1c-1 1-1 1-1 2l-10 10h-3z"/><path d="M920 1178c-3-3-6-4-10-4h-1c0-29-14-79-23-112-7-28-5-37-6-54 0-5 1-10 1-16 4-1 8-2 12-2-1 7-2 12-2 18 1 17-1 26 6 54 1 1 1 2 1 2 1 3 1 6 2 9 8 32 20 75 20 101v4z" fill="url(#id24)"/><path class="fil59" d="M772 1186s16 67-19 86c-22 12-45 2-49-15-3-11 11-51 18-59 7-7 50-12 50-12z"/><path class="fil60" d="M735 1180c-19 13-52 78-20 87 59 14 60-58 57-80-3-28-35-8-37-7z"/><path d="M742 1199c-7 0-14-2-14-6v-6c-6-76-23-147-21-188 0-2 1-3 1-5 21 4 44 6 68 6 0 0 0 1-1 2-1 16-10 137-15 192-5 3-12 5-18 5z" fill="url(#id16)"/><path class="fil2" d="M734 1277c6 0 12-1 19-5 34-18 20-84 19-86-1-6-3-9-6-11 6-56 18-157 19-173v-2h1v2c-1 16-14 117-19 173 2 2 4 5 5 11 0 0 16 67-19 86-6 4-13 5-19 5z"/><path class="fil62" d="M734 1277h-6c5-1 10-2 15-5 9-4 14-11 18-19 13-20 13-53 11-66v-1c1 2 15 68-19 86-7 4-13 5-19 5z"/><path class="fil63" d="M761 1253c10-24 1-57-1-59 3-2 5-5 5-9 1-3 1-7 1-10 3 2 5 5 6 11v1c2 13 2 46-11 66z"/><path d="M760 1194c5-55 14-176 15-192 1-1 1-2 1-2h9v2c-1 16-13 117-19 173 0 3 0 7-1 10 0 4-2 7-5 9z" fill="url(#id21)"/><path d="M690 831c4 4 8 12 5 26-2 8-2 11 0 15 3 3-3 4-6-2-2-6-5-21-7-26-2-8 4-15 8-13z" fill="url(#id12)"/><path d="M760 535c46-16 47 72 32 87-13 14-92 11-85-9 11-33 17-66 53-78z" fill="#d5414c" fill-rule="nonzero"/><path class="fil2" d="M662 892c-2 0-3-1-5-2h1c1 1 2 2 4 2z"/><path d="M739 630h-5c2-20 5-38 10-48-3 15-4 31-5 48zm37-95l-1-1h3c-1 1-1 1-2 1z" fill="#d9c3be" fill-rule="nonzero"/><path class="fil70" d="M853 715c1 37 5 73 7 96 6 57 36 84-119 17-48-21-18-36-13-94 2-25 2-37 8-76 10-63-8-133 85-130 89 4 31 153 32 187z"/><path d="M728 727s-83 150-76 251c80 36 216 21 287 2 1-72-61-191-85-253-118 9-126 0-126 0z" fill="#4d2e78" fill-rule="nonzero"/><path class="fil72" d="M919 985c0-64-45-161-74-230 1-1 1-2 2-2 4-3 8-8 12-14 26 64 80 172 80 240v1c-6 2-13 3-20 5z"/><path d="M821 551c-22 0-46-6-42-16 1-1 1-1 1-2 1-3 2-6 2-9h9c21 0 38-7 48-13 2 8 4 17 8 24 1 1 1 2 1 3 6 8-10 13-27 13zm-39-35c-1-13-9-23-9-23s36-17 52-17c3 0 6 0 7 2 3 5 4 14 6 24-9-1-21-1-32-1-15 0-27 1-27 3 2 4 3 4 3 12z" fill="url(#id19)"/><path d="M782 524v-8c0 3 1 5 0 8zm57-13c0-3-1-6-1-9h13s-4 4-12 9z" fill="#fde2e4" fill-rule="nonzero"/><path d="M791 524h-9c1-3 0-5 0-8 0-8-1-8-3-12 0-2 12-3 27-3 11 0 23 0 32 1 0 3 1 6 1 9-10 6-27 13-48 13z" fill="url(#id13)"/><path class="fil2" d="M642 883c-4 0-7-2-8-5-2-3-2-6-3-8 1 2 2 5 3 8s4 5 8 5z"/><path d="M529 548c13 12 33 21 43 25 17 6 125 57 129 58 44 18 137-22 153-39 4-4 7-7 10-11-1 1-1 2-2 3-16 16-109 56-154 38-3-1-111-52-128-58-11-4-31-13-44-25-11-11-39-5-45-16-1-3-2-5-1-7 10-8 28-24 52-15 2 1 3 2 5 3 7 2 12 7 16 13 1 1 2 3 3 4s2 2 2 3c5 7 10 13 17 15 43 11 79 19 111 36 6 3 12 7 18 10 14 10 55-15 83-21h6c40-3 59-2 65 3l1 1c2 5-4 13-15 25-14 14-87 46-135 42-7 0-13-2-18-4 0 0-1 0-2-1-17-7-111-51-127-57-10-4-30-13-43-25-6-5-14-11-22-17-1 1 16 12 22 17z" fill="url(#id18)"/><path d="M483 532c-1-4-2-7 1-9 2-3 4-5 6-7-1 2 0 4 1 7 6 11 34 5 45 16 13 12 33 21 44 25 17 6 125 57 128 58 45 18 138-22 154-38 1-1 1-2 2-3-3 4-6 7-10 11-16 17-109 57-153 39-4-1-112-52-129-58-10-4-30-13-43-25-12-11-40-6-46-16z" fill="url(#id17)"/><path class="fil70" d="M847 535c74 17 52 74 44 106-6 22-77 15-79-10-4-32 16-100 35-96z"/><path d="M773 341c35-16 84-19 114 9 30 27 34 68 21 105-5 13-37 44-48 49-10 6-68 10-91 4-9-3-31-10-35-15-5-6 1-11 1-44 0-8-8-16-1-20 9-7 15-14 22-23-3-25 5-60 17-65z" fill="url(#id20)"/><path class="fil79" d="M761 352c27-43 116-31 142 6 48 67-30 123-11 183 45 141-7 147-49 135-42-11-36-80-19-125 18-44 6-61 2-84-3-18 20-66-35-80-28-8-49-5-30-35z"/><path d="M835 430s8-16 22-6c13 10 6 19 1 27-3 7-9 19-20 21 0-18-3-42-3-42z" fill="url(#id23)"/><path class="fil81" d="M385 1220c30 21 45 4 54 24 7 15-9 23-42 29s-53 5-42-26c12-33 30-27 30-27z"/><path class="fil82" d="M440 1246s-9 16-42 22c-34 6-45-2-46-5 0-2-1 13 8 16s21 4 45-3c20-5 48-19 35-30z"/><path class="fil81" d="M198 1220c27 20 39 3 48 23 6 15-8 23-37 30s-46 6-37-25c10-33 26-28 26-28z"/><path class="fil82" d="M246 1245s-7 16-36 22c-30 7-40-1-40-4-1-2-1 13 7 16s18 3 39-3c18-6 42-20 30-31z"/><path class="fil83" d="M173 944c20-50 55-45 91-21 45 30-10 117-12 164-1 17-8 28-15 60-9 36-19 73-22 82-4 14-31 16-34 2-5-25-13-47-6-95 4-25 16-39 16-53 0-40-34-97-18-139z"/><path d="M219 666c-5-3-8-5-9-7-1-1-2-2-3-4-2 3-3 7-5 10h1c5 0 11 1 16 1zm-23 0c3-7 5-14 6-19-1 6-4 12-6 19zm11-120c5-6 11-11 18-15 0-12 2-27-4-27-1 0-2 0-3 1-10 6-16 12-19 33 3-21 9-27 19-33 1-1 2-1 3-1s2 1 3 2c-9 6-14 13-17 32v8zm25-18c0-1 1-1 2-1 1-1 1-1 2-1-1 0-3 1-4 2z" fill="url(#id11)"/><path d="M521 905c10 0 18-1 18-7 0-13-7-18-31-26-3 0-6-1-8-1-5 0-9 1-13 2s-8 2-12 2h-3c-3-1-30-15-53-25-12-4-23-8-29-8h-3c-2-12-7-28-14-45-1-3-2-7-4-10-7 6-36 14-34 27 3 26 14 48 34 54 3 1 84 21 96 25 7 3 20 6 32 6h15c4 0 7 1 10 1 7 0 13-1 16-3v1c0 6-8 7-17 7zm-26 0h6-6z" fill="url(#id8)"/><path class="fil2" d="M520 905h1-19 18zm-25 0c-11 0-24-4-31-6-13-4-93-24-96-25-12-4-23-17-33-33 9 16 20 29 33 33 2 1 83 21 95 25 7 2 20 6 32 6z"/><path class="fil86" d="M335 841c-2-3-4-7-6-10 2 4 4 7 6 10zm34-54c1 0 2-1 2-2-1 1-1 2-2 2z"/><path d="M521 905c9 0 17-1 17-7v-1c-3 2-9 3-16 3-3 0-6-1-10-1h-15c-12 0-25-3-32-6-12-4-93-24-96-25-20-6-31-28-34-54-2-13 27-21 34-27-8 7-36 9-37 9 0 3-1 7-1 11-1 8-1 16-2 24 2 3 4 7 6 10 10 16 21 29 33 33 3 1 83 21 96 25 7 2 20 6 31 6h26z" fill="url(#id3)"/><path class="fil83" d="M231 989c-23-48 31-70 73-65 54 7 44 109 63 152 7 15 6 28 13 60 9 37 13 82 17 91 4 10-28 23-34 13-14-21-27-39-42-85-8-24-4-43-10-55-18-35-58-64-80-111z"/><path class="fil2" d="M375 1281h1-1c-6 0-11-1-15-2-2-1-3-2-4-3 1 1 2 2 4 3 4 1 9 2 15 2zm-22-26c0-2 1-5 2-8 1-1 1-2 2-4-1 2-1 3-2 4-1 3-2 6-2 8zm7-19c-12-20-25-39-39-81-8-24-4-43-10-55-11-21-30-40-48-62 18 22 37 41 48 62 6 12 2 31 10 55 14 42 27 61 39 81z"/><path class="fil88" d="M361 1268c-1-2-1-5-1-7-1-4 5-15 7-18-2 0-3-1-4-3-1-1-2-3-3-4-1 2-2 5-3 7s-1 3-2 4c-1 3-2 6-2 8-1 3-1 6-1 8 0 1 3 4 9 5z"/><path class="fil89" d="M375 1281h1c7 0 17-2 29-5 10-3 22-7 30-13-7 4-15 7-22 9-14 3-23 5-31 5-6 0-11-1-15-3-3-1-5-3-6-6-6-1-9-4-9-5v3c0 2 1 7 4 10 1 1 2 2 4 3 4 1 9 2 15 2z"/><path d="M263 1038c-11-14-23-30-32-49-3-7-5-14-5-20 0 6 2 13 5 20 9 19 21 35 32 49z" fill="#003531" fill-rule="nonzero"/><path class="fil72" d="M367 1243c-12-20-25-50-39-92-8-25-3-43-10-56-18-35-57-63-80-110-2-5-4-10-4-14-3-1-6-1-8-2 0 6 2 13 5 20 9 19 21 35 32 49 18 22 37 41 48 62 6 12 2 31 10 55 14 42 27 61 39 81 1 1 2 3 3 4 1 2 2 3 4 3z"/><path d="M214 659c20 11 50-21 59-51 8-31 13-26 4-39s-37 2-56 32c-18 29-20 51-7 58z" fill="url(#id10)"/><path class="fil92" d="M207 754c-8 2-21 4-26-27s3-54 8-59 53-1 55 5-4 69-37 81z"/><path d="M296 650s-19 36 5 70c25 33-98 33-87 0 14-44 14-52 12-72 51 0 70 2 70 2z" fill="url(#id7)"/><path d="M277 685c20 0 39-8 50-33 21-43 10-90 2-99-18-17-45-31-71-31-7 0-15 1-22 4-1 0-1 0-2 1-1 0-2 0-2 1-3 1-5 2-7 3-7 4-13 9-18 15 1 9 5 16 5 23 0 4-1 6-1 23 0 20 0 25 1 45 0 3-2 10-5 18 1 2 2 3 3 4 1 2 4 4 9 7 7 4 15 9 25 12 11 4 22 7 33 7zm-75-38c1-4 2-7 2-10-1-20-1-25-1-45-1-17 1-19 1-23s-2-9-4-14c-9 14-14 32-14 51 0 8 9 28 16 41z" fill="url(#id9)"/><path d="M186 747c-9-38 17-50 27-47 13 5 34 7 55 6 10 0 76-13 90 39 7 25 18 31 13 40s-39 11-39 11c-7 75-1 120 7 156 7 30-100 27-143 9-27-12-28-15-10-68 15-41 8-113 0-146z" fill="#f1c04b" fill-rule="nonzero"/><path class="fil2" d="M189 1281c-5 0-9-1-12-2-2-1-4-2-5-4 1 2 3 3 5 4 3 1 7 2 12 2zm-9-52c-3-18-8-34-8-60 0 26 5 42 8 60zm11-147c-1-31-21-74-22-111 1 37 21 80 22 111z"/><path class="fil88" d="M178 1269v-3c-1-4-1-6 1-14 3-9 6-9 9-13-4-2-6-4-7-8 0-1 0-1-1-2-3 4-5 10-8 19-2 6-3 11-2 16 0 1 3 3 8 5z"/><path class="fil89" d="M189 1281h4c-3 0-6-1-8-2-5-1-6-7-7-10-5-2-8-4-8-5v2c0 2 0 6 2 9 1 2 3 3 5 4 3 1 7 2 12 2z"/><path class="fil72" d="M188 1239c-5-24-12-56-5-103 4-25 17-39 16-53 0-40-15-108-13-127-7-3-11-7-12-13l-1 1c-3 9-4 18-4 27 1 37 21 80 22 111v1c0 14-12 28-16 53-2 13-3 24-3 33 0 26 5 42 8 60 1 1 1 1 1 2 1 4 3 6 7 8z"/><path class="fil2" d="M195 829v-3 3zm-5-63c-1-7-2-14-4-19v-4c-1 0-1-1-1-1 1 1 1 3 1 5 2 5 3 12 4 19z"/><path class="fil86" d="M195 826c0-21-2-43-5-60 3 17 5 39 5 60zm-13-97c0-1-1-1-1-2 0-4-1-7-1-10 0 3 1 7 2 12z"/><path class="fil96" d="M182 686c0-3 1-6 2-8-1 2-2 5-2 8zm5-16c1-1 1-1 1-2v1c-1 0-1 1-1 1z"/><path d="M196 666c2-1 4-1 6-1 2-3 3-7 5-10-2-2-3-5-5-8-1 5-3 12-6 19z" fill="url(#id6)"/><path class="fil96" d="M200 555c-1-4-1-8-1-12 0 4 0 8 1 12z"/><path d="M200 555c2-3 4-6 7-9v-8c3-19 8-26 17-32-1-1-2-2-3-2s-2 0-3 1c-10 6-16 12-19 33v5c0 4 0 8 1 12z" fill="url(#id4)"/><path class="fil99" d="M186 743c-3-13-1-22 3-29-1-6-1-10 1-13-2-5 5-21 12-36-2 0-4 0-6 1-2 0-6 0-8 2 0 1 0 1-1 2-1 3-2 4-3 8-1 2-2 5-2 8-2 11-1 23-2 30v1c0 3 1 6 1 10 0 1 1 1 1 2 1 4 2 8 3 13 0 0 0 1 1 1z"/><path d="M207 655c3-8 5-15 5-18-1-20-1-25-1-45 0-17 1-19 1-23 0-7-4-14-5-23-3 3-5 6-7 9 2 5 4 10 4 14s-2 6-1 23c0 20 0 25 1 45 0 3-1 6-2 10 2 3 3 6 5 8z" fill="url(#id5)"/><path class="fil99" d="M186 956c1-9-1-36 9-63 14-41 7-112 0-146-3-9-5-23-6-33-4 7-6 16-3 29v4c2 5 3 12 4 19 3 17 5 39 5 60v3c0 23-2 47-9 64-9 27-13 41-12 50 1 6 5 10 12 13z"/><path class="fil79" d="M332 557c16 27 2 84-24 110-32 34-83 19-102-7-22-27-30-43-16-90 15-53 34-45 63-48 28-3 53-9 79 35z"/><path d="M331 807c0-4 1-8 1-11-1 3-1 7-1 11z" fill="url(#id2)"/><path class="fil92" d="M329 812c1 0 1-2 2-5 0-4 0-8 1-11v-6c0-6-7-33-7-33s-5 31 0 49c2 4 3 6 4 6z"/><path class="fil10" transform="matrix(.16601 -.00085 -.00731 -1.42727 427.486 685.716)" d="M0 0h1139.31v26.843H0z"/><path class="fil56" transform="matrix(.15641 -.0008 -.00488 -.95195 436.978 646.192)" d="M0 0h1139.31v26.843H0z"/><path class="fil4" transform="matrix(.1565 -.0008 -.00488 -.95195 426.677 618.643)" d="M0 0h1139.31v26.843H0z"/></g></g></svg>