<svg width="601" height="588" viewBox="0 0 601 588" fill="none" xmlns="http://www.w3.org/2000/svg">
<path d="M364.713 89.8277C373.248 79.2879 390.283 85.8273 389.574 99.3709L381.916 245.495C381.553 252.417 385.689 258.785 392.16 261.269L528.765 313.707C541.427 318.567 540.472 336.79 527.372 340.3L386.033 378.172C379.338 379.966 374.559 385.867 374.196 392.789L366.538 538.913C365.828 552.457 348.202 557.18 340.816 545.805L261.122 423.087C257.347 417.274 250.258 414.553 243.562 416.347L102.224 454.218C89.1237 457.729 79.1853 442.425 87.7202 431.885L179.805 318.17C184.167 312.783 184.565 305.2 180.789 299.386L101.096 176.668C93.7091 165.294 105.193 151.113 117.854 155.973L254.46 208.411C260.931 210.895 268.266 208.93 272.628 203.543L364.713 89.8277Z" stroke="#9E86BD" stroke-width="2"/>
</svg>
