<svg width="258" height="258" viewBox="0 0 258 258" fill="none" xmlns="http://www.w3.org/2000/svg">
<path d="M150.742 42.8894C159.277 32.3496 176.313 38.889 175.603 52.4326L173.243 97.4519C172.881 104.374 177.016 110.742 183.488 113.227L225.575 129.382C238.236 134.242 237.281 152.465 224.181 155.975L180.636 167.643C173.94 169.437 169.162 175.338 168.799 182.261L166.439 227.28C165.73 240.823 148.104 245.546 140.717 234.172L116.164 196.364C112.389 190.551 105.3 187.829 98.6045 189.623L55.0595 201.291C41.9595 204.801 32.021 189.498 40.556 178.958L68.9264 143.923C73.2886 138.536 73.6861 130.953 69.9108 125.14L45.3579 87.3316C37.9714 75.9574 49.4551 61.7763 62.1164 66.6365L104.203 82.7921C110.675 85.2762 118.009 83.3109 122.372 77.924L150.742 42.8894Z" stroke="#9E86BD" stroke-width="2"/>
</svg>
