<svg width="323" height="315" viewBox="0 0 323 315" fill="none" xmlns="http://www.w3.org/2000/svg">
<path d="M148.564 37.4153L184.565 98.5329C188.083 104.505 195.047 107.533 201.814 106.033L271.066 90.6804C284.306 87.745 293.568 103.468 284.581 113.625L237.58 166.751C232.987 171.942 232.259 179.501 235.777 185.473L271.778 246.591C278.661 258.276 266.57 271.943 254.133 266.535L189.083 238.251C182.727 235.487 175.313 237.13 170.72 242.322L123.719 295.447C114.732 305.605 97.9979 298.328 99.2978 284.829L106.096 214.223C106.761 207.323 102.907 200.78 96.55 198.016L31.5006 169.732C19.0633 164.324 20.8123 146.16 34.0529 143.225L103.304 127.872C110.071 126.372 115.103 120.685 115.767 113.785L122.566 43.1791C123.866 29.6794 141.681 25.7298 148.564 37.4153Z" stroke="#9E86BD" stroke-width="2"/>
</svg>
