<svg width="17" height="17" viewBox="0 0 17 17" fill="none" xmlns="http://www.w3.org/2000/svg">
<path d="M5.84798 4.16815C5.80403 2.90957 7.39627 2.33004 8.1716 3.32242L9.27212 4.73102C9.61886 5.17482 10.2119 5.34488 10.7412 5.15226L12.4209 4.54088C13.6043 4.11016 14.6475 5.44539 13.9433 6.48944L12.9437 7.97137C12.6288 8.43828 12.6503 9.05488 12.997 9.49868L14.0975 10.9073C14.8729 11.8997 13.9254 13.3044 12.7148 12.9573L10.9965 12.4646C10.4551 12.3093 9.87537 12.5204 9.56043 12.9873L8.56086 14.4692C7.85664 15.5132 6.22785 15.0462 6.1839 13.7876L6.12151 12.0012C6.10186 11.4383 5.72201 10.9521 5.18063 10.7969L3.46234 10.3042C2.25178 9.95706 2.19265 8.26366 3.37604 7.83294L5.05578 7.22157C5.58501 7.02894 5.93002 6.51745 5.91036 5.9546L5.84798 4.16815Z" fill="#9E86BD"/>
</svg>
