<svg width="54" height="53" viewBox="0 0 54 53" fill="none" xmlns="http://www.w3.org/2000/svg">
<path d="M30.5919 9.02332C32.3811 6.73322 36.0555 8.0706 35.9541 10.975L35.6298 20.2631C35.5844 21.562 36.3806 22.7424 37.6019 23.1869L46.3352 26.3656C49.0661 27.3595 48.9296 31.2674 46.136 32.0684L37.2023 34.6301C35.953 34.9884 35.0764 36.1103 35.031 37.4092L34.7067 46.6973C34.6053 49.6017 30.8465 50.6795 29.2214 48.2702L24.0244 40.5653C23.2976 39.4878 21.9597 39.0009 20.7103 39.3591L11.7766 41.9208C8.983 42.7219 6.79643 39.4802 8.58564 37.1901L14.3075 29.8665C15.1076 28.8423 15.1573 27.4194 14.4306 26.3419L9.23353 18.637C7.60842 16.2277 10.0158 13.1464 12.7467 14.1404L21.48 17.319C22.7013 17.7635 24.0699 17.3711 24.8701 16.3469L30.5919 9.02332Z" fill="#9E86BD"/>
</svg>
