<svg width="251" height="258" viewBox="0 0 251 258" fill="none" xmlns="http://www.w3.org/2000/svg">
<path d="M150.742 42.8894C159.277 32.3496 176.313 38.889 175.603 52.4326L173.244 97.4519C172.881 104.374 177.017 110.742 183.488 113.227L225.575 129.382C238.236 134.242 237.281 152.465 224.181 155.975L180.636 167.643C173.941 169.437 169.162 175.338 168.799 182.261L166.44 227.28C165.73 240.823 148.104 245.546 140.718 234.172L116.165 196.364C112.389 190.551 105.3 187.829 98.6048 189.623L55.0597 201.291C41.9597 204.801 32.0213 189.498 40.5562 178.958L68.9267 143.923C73.2889 138.536 73.6863 130.953 69.9111 125.14L45.3581 87.3316C37.9717 75.9574 49.4553 61.7763 62.1167 66.6365L104.204 82.7921C110.675 85.2762 118.01 83.3109 122.372 77.924L150.742 42.8894Z" stroke="#9E86BD" stroke-width="2"/>
</svg>
