<svg width="51" height="51" viewBox="0 0 51 51" fill="none" xmlns="http://www.w3.org/2000/svg">
<path d="M32.4476 10.3444C33.9098 9.07331 36.1443 10.4159 35.7085 12.3037L33.5149 21.8051C33.32 22.6493 33.6909 23.523 34.4336 23.9693L42.792 28.9916C44.4527 29.9894 43.8663 32.5294 41.9363 32.6983L32.2221 33.5482C31.3589 33.6237 30.6426 34.2464 30.4477 35.0906L28.2541 44.592C27.8183 46.4798 25.2214 46.707 24.4644 44.9235L20.6543 35.9475C20.3157 35.1499 19.5021 34.661 18.6389 34.7365L8.92478 35.5864C6.9947 35.7553 5.97614 33.3557 7.43835 32.0846L14.7977 25.6872C15.4516 25.1188 15.6652 24.1939 15.3266 23.3963L11.5165 14.4202C10.7595 12.6368 12.7269 10.9266 14.3876 11.9244L22.746 16.9467C23.4887 17.393 24.4343 17.3102 25.0882 16.7418L32.4476 10.3444Z" fill="white"/>
</svg>
