<svg width="79" height="76" viewBox="0 0 79 76" fill="none" xmlns="http://www.w3.org/2000/svg">
<path d="M46.0387 11.4876C47.8279 9.19752 51.5023 10.5349 51.4009 13.4393L50.8197 30.082C50.7744 31.3809 51.5705 32.5613 52.7918 33.0058L68.4404 38.7014C71.1713 39.6954 71.0349 43.6032 68.2413 44.4043L52.2335 48.9944C50.9842 49.3527 50.1076 50.4746 50.0622 51.7735L49.4811 68.4162C49.3796 71.3206 45.6209 72.3984 43.9958 69.9891L34.6836 56.1833C33.9568 55.1058 32.6189 54.6188 31.3696 54.9771L15.3618 59.5672C12.5682 60.3683 10.3817 57.1265 12.1709 54.8364L22.4234 41.7138C23.2236 40.6896 23.2733 39.2667 22.5465 38.1892L13.2343 24.3834C11.6092 21.9741 14.0166 18.8928 16.7475 19.8867L32.3961 25.5823C33.6174 26.0269 34.986 25.6344 35.7862 24.6103L46.0387 11.4876Z" fill="white"/>
</svg>
