<svg width="24" height="24" viewBox="0 0 24 24" fill="none" xmlns="http://www.w3.org/2000/svg">
<path d="M8.05426 5.36715C8.01031 4.10857 9.60255 3.52904 10.3779 4.52142L12.9516 7.81567C13.2984 8.25947 13.8914 8.42953 14.4207 8.23691L18.349 6.8071C19.5324 6.37639 20.5756 7.71162 19.8714 8.75566L17.5337 12.2214C17.2188 12.6883 17.2403 13.3049 17.587 13.7487L20.1608 17.043C20.9361 18.0354 19.9886 19.4401 18.7781 19.093L14.7595 17.9407C14.2182 17.7855 13.6384 17.9965 13.3235 18.4634L10.9858 21.9291C10.2816 22.9732 8.65276 22.5061 8.60881 21.2476L8.46292 17.0696C8.44326 16.5068 8.06342 16.0206 7.52204 15.8654L3.50352 14.7131C2.29296 14.366 2.23383 12.6726 3.41722 12.2418L7.34557 10.812C7.8748 10.6194 8.21981 10.1079 8.20015 9.54506L8.05426 5.36715Z" fill="white"/>
</svg>
