<svg width="17" height="17" viewBox="0 0 17 17" fill="none" xmlns="http://www.w3.org/2000/svg">
<path d="M5.84798 4.16809C5.80403 2.90951 7.39627 2.32998 8.1716 3.32236L9.27212 4.73096C9.61886 5.17476 10.2119 5.34482 10.7412 5.1522L12.4209 4.54082C13.6043 4.1101 14.6475 5.44533 13.9433 6.48937L12.9437 7.97131C12.6288 8.43822 12.6503 9.05482 12.997 9.49862L14.0975 10.9072C14.8729 11.8996 13.9254 13.3043 12.7148 12.9572L10.9965 12.4645C10.4551 12.3093 9.87537 12.5203 9.56043 12.9872L8.56086 14.4691C7.85664 15.5132 6.22785 15.0461 6.1839 13.7876L6.12151 12.0011C6.10186 11.4383 5.72201 10.9521 5.18063 10.7968L3.46234 10.3041C2.25178 9.957 2.19265 8.2636 3.37604 7.83288L5.05578 7.22151C5.58501 7.02888 5.93002 6.51739 5.91036 5.95454L5.84798 4.16809Z" fill="#33A977"/>
</svg>
