<svg width="35" height="35" viewBox="0 0 35 35" fill="none" xmlns="http://www.w3.org/2000/svg">
<path d="M21.6237 7.1176C23.0859 5.84652 25.3204 7.18913 24.8846 9.07692L23.715 14.143C23.52 14.9873 23.8909 15.861 24.6336 16.3073L29.0903 18.9851C30.7511 19.983 30.1646 22.523 28.2346 22.6918L23.055 23.145C22.1918 23.2205 21.4755 23.8432 21.2806 24.6875L20.111 29.7536C19.6751 31.6414 17.0782 31.8686 16.3212 30.0851L14.2897 25.2991C13.9511 24.5015 13.1375 24.0127 12.2743 24.0882L7.09478 24.5413C5.16471 24.7102 4.14614 22.3106 5.60835 21.0395L9.53235 17.6284C10.1863 17.06 10.3998 16.1351 10.0612 15.3376L8.02969 10.5515C7.27267 8.7681 9.24006 7.05787 10.9008 8.05573L15.3575 10.7336C16.1002 11.1799 17.0458 11.0971 17.6997 10.5287L21.6237 7.1176Z" fill="#33A977"/>
</svg>
