<svg width="17" height="17" fill="none" xmlns="http://www.w3.org/2000/svg"><path d="M5.848 4.168C5.804 2.91 7.396 2.33 8.172 3.322l1.1 1.409a1.3 1.3 0 001.47.421l1.679-.611c1.183-.43 2.227.904 1.522 1.948l-1 1.482a1.3 1.3 0 00.054 1.528l1.1 1.408c.776.993-.172 2.397-1.382 2.05l-1.719-.492a1.3 1.3 0 00-1.436.522l-1 1.482c-.703 1.044-2.332.577-2.376-.681L6.122 12a1.3 1.3 0 00-.941-1.204l-1.719-.493c-1.21-.347-1.27-2.04-.086-2.471l1.68-.611a1.3 1.3 0 00.854-1.267l-.062-1.787z" fill="#F1C04B"/></svg>