<svg width="227" height="372" viewBox="0 0 227 372" fill="none" xmlns="http://www.w3.org/2000/svg">
<path d="M151.5 233L152.914 234.414L152.933 234.395L152.952 234.375L151.5 233ZM185.5 198L186.974 199.351L186.976 199.35L185.5 198ZM67 71.5L67.8599 73.3057L67.8655 73.303L67 71.5ZM116.5 176L117.933 177.395L117.938 177.39L116.5 176ZM147.5 248.5L149.497 248.602L149.5 248.551V248.5H147.5ZM152.952 234.375C157.427 229.652 161.764 225.44 167.102 220.102C172.429 214.775 178.7 208.378 186.974 199.351L184.026 196.649C175.8 205.622 169.571 211.975 164.273 217.273C158.986 222.56 154.573 226.848 150.048 231.625L152.952 234.375ZM186.976 199.35C208.636 175.675 227 147.711 227 107.5H223C223 146.289 205.364 173.325 184.024 196.65L186.976 199.35ZM227 107.5C227 75.5017 215.559 48.6999 195.298 29.9086C175.05 11.13 146.158 0.499989 111.5 0.499989V4.49999C145.342 4.49999 173.2 14.87 192.577 32.8414C211.941 50.8 223 76.4983 223 107.5H227ZM111.5 0.499989C90.5564 0.499989 63.0566 4.4033 40.7231 12.9444C29.558 17.2144 19.5598 22.6901 12.3224 29.5222C5.05737 36.3805 0.5 44.6877 0.5 54.5H4.5C4.5 46.0622 8.38013 38.7445 15.0682 32.4309C21.784 26.0911 31.2545 20.8481 42.1519 16.6805C63.9434 8.34668 90.9436 4.49999 111.5 4.49999V0.499989ZM0.5 54.5C0.5 74.4305 19.2523 87 36 87V83C20.7477 83 4.5 71.5695 4.5 54.5H0.5ZM36 87C43.2247 87 48.7002 84.7083 53.6271 81.8559C56.0535 80.4511 58.4085 78.8718 60.7031 77.4033C63.0284 75.9151 65.3503 74.5007 67.8599 73.3057L66.1401 69.6943C63.3997 70.9992 60.9091 72.5224 58.5469 74.0342C56.154 75.5657 53.9466 77.0489 51.6229 78.3941C47.0498 81.0417 42.2753 83 36 83V87ZM67.8655 73.303C79.9945 67.4811 95.6628 65.5 106.5 65.5V61.5C95.3372 61.5 79.0056 63.5189 66.1345 69.6969L67.8655 73.303ZM106.5 65.5C123.104 65.5 134.932 70.3751 142.602 77.8681C150.277 85.3658 154 95.6903 154 107H158C158 94.8097 153.973 83.3842 145.398 75.0069C136.818 66.6249 123.896 61.5 106.5 61.5V65.5ZM154 107C154 121.434 147.985 134.536 140.044 145.985C132.096 157.446 122.357 167.063 115.062 174.61L117.938 177.39C125.143 169.937 135.154 160.054 143.331 148.265C151.515 136.464 158 122.565 158 107H154ZM115.067 174.605C106.029 183.894 96.1681 195.009 88.559 207.057C80.9608 219.087 75.5 232.216 75.5 245.5H79.5C79.5 233.284 84.5392 220.913 91.941 209.193C99.3319 197.491 108.971 186.606 117.933 177.395L115.067 174.605ZM75.5 245.5C75.5 258.582 80.6299 267.903 87.9141 273.917C95.1379 279.882 104.359 282.5 112.5 282.5V278.5C105.141 278.5 96.8621 276.118 90.4609 270.833C84.1201 265.597 79.5 257.418 79.5 245.5H75.5ZM112.5 282.5C130.887 282.5 148.434 269.335 149.497 248.602L145.503 248.398C144.566 266.665 129.113 278.5 112.5 278.5V282.5ZM149.5 248.5C149.5 246.371 149.739 243.387 150.331 240.604C150.946 237.712 151.856 235.473 152.914 234.414L150.086 231.586C148.144 233.527 147.054 236.788 146.419 239.771C145.761 242.863 145.5 246.129 145.5 248.5H149.5ZM156 331C156 308.738 135.94 290.5 112 290.5V294.5C134.06 294.5 152 311.262 152 331H156ZM112 290.5C88.0276 290.5 68.5 308.768 68.5 331H72.5C72.5 311.232 89.9724 294.5 112 294.5V290.5ZM68.5 331C68.5 353.2 87.9933 372 112 372V368C90.0067 368 72.5 350.8 72.5 331H68.5ZM112 372C135.975 372 156 353.23 156 331H152C152 350.77 134.025 368 112 368V372Z" fill="#E9984D"/>
</svg>
