<svg width="174" height="171" viewBox="0 0 174 171" fill="none" xmlns="http://www.w3.org/2000/svg">
<path d="M129.071 95.4756L131.07 95.528L131.07 95.528L129.071 95.4756ZM133.188 102.894L134.687 101.57L134.663 101.543L134.638 101.517L133.188 102.894ZM137.35 115.749L139.339 115.955L139.339 115.955L137.35 115.749ZM118.704 133.443L118.805 135.441L118.828 135.44L118.851 135.438L118.704 133.443ZM94.8197 86.331L92.8204 86.2787L92.8201 86.2913L92.8199 86.304L94.8197 86.331ZM94.9905 72.6519L96.9902 72.6173L96.9895 72.5776L96.9872 72.538L94.9905 72.6519ZM92.3367 59.461L94.2647 58.929L94.2611 58.916L94.2573 58.903L92.3367 59.461ZM68.7171 38.0359L68.6647 40.0352L68.6851 40.0357L68.7055 40.0358L68.7171 38.0359ZM37.665 64.2152L35.7933 63.5104L35.789 63.5218L35.7849 63.5333L37.665 64.2152ZM36.2115 69.6131L38.1618 70.0565L38.1618 70.0565L36.2115 69.6131ZM18.5367 86.0205L18.5895 88.0198L18.6418 88.0185L18.6939 88.0143L18.5367 86.0205ZM3.20812 62.938L1.26618 62.4596L1.26334 62.4711L1.26064 62.4827L3.20812 62.938ZM13.3549 40.5225L11.7112 39.3831L11.7064 39.3901L13.3549 40.5225ZM71.8969 2.50408L71.9111 4.50403L71.9198 4.50396L71.9285 4.50383L71.8969 2.50408ZM129.373 69.6158L127.373 69.6482L127.373 69.6558L127.373 69.6633L129.373 69.6158ZM129.336 85.3604L131.335 85.4128L131.335 85.4128L129.336 85.3604ZM151.129 126.42L151.16 128.42L151.182 128.419L151.204 128.418L151.129 126.42ZM171.012 147.372L173.007 147.508L173.007 147.508L171.012 147.372ZM148.33 168.897L148.32 170.897L148.34 170.897L148.361 170.897L148.33 168.897ZM128.446 147.945L130.442 148.084L130.442 148.08L128.446 147.945ZM127.071 95.4233C126.996 98.2864 128.899 101.28 131.737 104.271L134.638 101.517C131.882 98.6125 131.04 96.6611 131.07 95.528L127.071 95.4233ZM131.689 104.218C134.601 107.515 135.804 111.247 135.36 115.544L139.339 115.955C139.9 110.53 138.328 105.692 134.687 101.57L131.689 104.218ZM135.36 115.544C134.906 119.942 133.134 123.568 130.03 126.514L132.783 129.416C136.599 125.795 138.789 121.278 139.339 115.955L135.36 115.544ZM130.03 126.514C126.923 129.462 123.131 131.112 118.557 131.449L118.851 135.438C124.293 135.037 128.97 133.035 132.783 129.416L130.03 126.514ZM118.603 131.446C114.437 131.657 110.466 129.941 106.633 125.902L103.731 128.655C108.167 133.33 113.211 135.724 118.805 135.441L118.603 131.446ZM106.633 125.902C100.026 118.94 96.5541 105.988 96.8196 86.3581L92.8199 86.304C92.5516 106.149 95.9879 120.496 103.731 128.655L106.633 125.902ZM96.8191 86.3834C96.9826 80.1358 97.0407 75.5392 96.9902 72.6173L92.9908 72.6864C93.0397 75.5155 92.9838 80.0383 92.8204 86.2787L96.8191 86.3834ZM96.9872 72.538C96.8034 69.3139 95.8708 64.749 94.2647 58.929L90.4088 59.9931C91.9985 65.7535 92.835 69.9826 92.9937 72.7657L96.9872 72.538ZM94.2573 58.903C92.474 52.7649 89.8409 47.7659 86.2831 44.0167L83.3816 46.7701C86.3906 49.941 88.7605 54.3204 90.4162 60.019L94.2573 58.903ZM86.2831 44.0167C81.3271 38.7942 75.4511 36.0747 68.7286 36.0359L68.7055 40.0358C74.2277 40.0677 79.0952 42.2533 83.3816 46.7701L86.2831 44.0167ZM68.7694 36.0365C61.8179 35.8545 55.0682 39.0977 48.5554 45.2781L51.3088 48.1796C57.3546 42.4423 63.1283 39.8902 68.6647 40.0352L68.7694 36.0365ZM48.5554 45.2781C42.4956 51.0287 38.2066 57.1015 35.7933 63.5104L39.5367 64.92C41.6898 59.2019 45.5789 53.6171 51.3088 48.1796L48.5554 45.2781ZM35.7849 63.5333C35.3356 64.772 34.8287 66.6743 34.2613 69.1697L38.1618 70.0565C38.7242 67.5829 39.1863 65.8866 39.5452 64.8971L35.7849 63.5333ZM34.2613 69.1697C33.7175 71.5615 33.0761 73.5284 32.3545 75.0972L35.9886 76.7686C36.8572 74.88 37.5758 72.6337 38.1618 70.0565L34.2613 69.1697ZM32.3545 75.0972C31.6773 76.5698 30.6699 77.96 29.2956 79.2641L32.049 82.1656C33.7503 80.5512 35.0758 78.7534 35.9886 76.7686L32.3545 75.0972ZM29.2956 79.2641C26.3098 82.0975 22.7007 83.686 18.3795 84.0267L18.6939 88.0143C23.8898 87.6046 28.371 85.6559 32.049 82.1656L29.2956 79.2641ZM18.4839 84.0212C14.2763 84.1324 10.8731 82.7388 8.11676 79.8342L5.21526 82.5877C8.7826 86.3468 13.2933 88.1597 18.5895 88.0198L18.4839 84.0212ZM8.11676 79.8342C4.59562 76.1237 3.42194 70.8085 5.1556 63.3933L1.26064 62.4827C-0.664602 70.7173 0.466983 77.584 5.21526 82.5877L8.11676 79.8342ZM5.15006 63.4164C7.04789 55.7125 10.3277 48.4611 15.0034 41.655L11.7064 39.3901C6.76824 46.5782 3.28354 54.2705 1.26618 62.4596L5.15006 63.4164ZM14.9986 41.662C19.8607 34.6485 25.1874 28.3979 30.9766 22.9041L28.2231 20.0026C22.2226 25.697 16.7193 32.1591 11.7113 39.3831L14.9986 41.662ZM30.9766 22.9041C43.8908 10.649 57.5236 4.60677 71.9111 4.50403L71.8826 0.504128C56.2729 0.615605 41.7077 7.20624 28.2231 20.0026L30.9766 22.9041ZM71.9285 4.50383C86.1714 4.2786 98.8687 9.96348 110.091 21.7892L112.992 19.0358C101.109 6.51311 87.3763 0.259047 71.8652 0.504327L71.9285 4.50383ZM110.091 21.7892C121.224 33.5211 127.045 49.4008 127.373 69.6482L131.373 69.5834C131.032 48.5748 124.965 31.6523 112.992 19.0358L110.091 21.7892ZM127.373 69.6633C127.492 74.6287 127.479 79.8434 127.336 85.308L131.335 85.4128C131.479 79.888 131.492 74.6063 131.372 69.5682L127.373 69.6633ZM127.336 85.308C127.192 90.8027 127.104 94.1745 127.071 95.4233L131.07 95.528C131.103 94.2792 131.191 90.9075 131.335 85.4128L127.336 85.308ZM151.204 128.418C156.535 128.218 160.856 129.951 164.334 133.616L167.236 130.863C162.931 126.326 157.481 124.18 151.054 124.421L151.204 128.418ZM164.334 133.616C167.815 137.284 169.388 141.768 169.017 147.237L173.007 147.508C173.449 141.001 171.538 135.397 167.236 130.863L164.334 133.616ZM169.017 147.237C168.644 152.723 166.483 157.315 162.49 161.105L165.243 164.007C169.964 159.527 172.567 153.996 173.007 147.508L169.017 147.237ZM162.49 161.105C158.496 164.895 153.797 166.812 148.299 166.897L148.361 170.897C154.863 170.796 160.522 168.486 165.243 164.007L162.49 161.105ZM148.339 166.897C142.988 166.871 138.634 165.014 135.134 161.326L132.233 164.079C136.516 168.593 141.926 170.866 148.32 170.897L148.339 166.897ZM135.134 161.326C131.636 157.64 130.08 153.274 130.442 148.084L126.451 147.805C126.013 154.092 127.948 159.564 132.233 164.079L135.134 161.326ZM130.442 148.08C130.815 142.593 132.975 138.002 136.969 134.212L134.215 131.31C129.495 135.79 126.892 141.32 126.451 147.809L130.442 148.08ZM136.969 134.212C140.962 130.422 145.661 128.505 151.16 128.42L151.098 124.42C144.595 124.521 138.936 126.831 134.215 131.31L136.969 134.212Z" fill="#E9984D"/>
</svg>
