<svg width="109" height="115" viewBox="0 0 109 115" fill="none" xmlns="http://www.w3.org/2000/svg">
<path d="M48.8425 84.4347L48.8949 86.434L48.8949 86.434L48.8425 84.4347ZM44.2555 87.3043L45.6562 88.7319L45.6817 88.7069L45.7063 88.681L44.2555 87.3043ZM36.2073 90.384L36.1062 92.3815L36.1062 92.3815L36.2073 90.384ZM24.3163 79.0998L22.3269 79.3054L22.3292 79.3281L22.3321 79.3509L24.3163 79.0998ZM53.5232 62.3164L53.4708 60.3171L53.4582 60.3174L53.4455 60.3179L53.5232 62.3164ZM62.2407 61.9686L62.3798 63.9637L62.4194 63.961L62.4589 63.9566L62.2407 61.9686ZM70.5528 59.8382L71.185 61.7357L71.1978 61.7314L71.2106 61.727L70.5528 59.8382ZM83.4094 44.0807L81.41 44.133L81.4106 44.1534L81.4115 44.1738L83.4094 44.0807ZM65.7003 25.1786L66.3062 23.2726L66.2946 23.2689L66.2829 23.2653L65.7003 25.1786ZM62.2141 24.4331L61.8733 26.4038L61.8733 26.4038L62.2141 24.4331ZM51.1749 13.7243L49.1811 13.8816L49.1852 13.9338L49.192 13.9856L51.1749 13.7243ZM65.3637 3.19166L65.7398 1.22735L65.7281 1.22511L65.7164 1.22302L65.3637 3.19166ZM79.9779 8.90562L81.0298 7.20456L81.0225 7.20013L79.9779 8.90562ZM106.144 44.9198L104.148 45.0388L104.148 45.0474L104.149 45.0561L106.144 44.9198ZM65.3218 83.7641L65.1847 81.7688L65.1772 81.7693L65.1696 81.7699L65.3218 83.7641ZM55.2934 84.2658L55.3457 86.2651L55.3457 86.2651L55.2934 84.2658ZM29.8716 99.5156L27.8762 99.6511L27.8777 99.6732L27.8797 99.6952L29.8716 99.5156ZM17.1915 112.878L17.1605 114.877L17.1605 114.877L17.1915 112.878ZM2.72604 99.1505L0.728293 99.2454L0.729259 99.2658L0.73064 99.2861L2.72604 99.1505ZM15.4062 85.7884L15.3717 87.7881L15.3753 87.7882L15.4062 85.7884ZM48.7902 82.4354C46.6509 82.4914 44.6291 84.0051 42.8048 85.9276L45.7063 88.681C47.4495 86.844 48.4857 86.4447 48.8949 86.434L48.7902 82.4354ZM42.8549 85.8767C40.9947 87.7017 38.8542 88.5155 36.3085 88.3866L36.1062 92.3815C39.7849 92.5677 43.0099 91.3283 45.6562 88.7319L42.8549 85.8767ZM36.3085 88.3866C33.6603 88.2525 31.457 87.3126 29.6058 85.5559L26.8524 88.4574C29.4144 90.8887 32.5299 92.2004 36.1062 92.3815L36.3085 88.3866ZM29.6058 85.5559C27.7527 83.7974 26.6478 81.5941 26.3005 78.8488L22.3321 79.3509C22.7887 82.96 24.2923 86.028 26.8524 88.4574L29.6058 85.5559ZM26.3057 78.8943C26.059 76.5062 26.9066 74.1199 29.2419 71.659L26.3404 68.9056C23.402 72.002 21.9331 75.494 22.3269 79.3054L26.3057 78.8943ZM29.2419 71.659C33.2495 67.4359 41.1294 64.7995 53.6009 64.3149L53.4455 60.3179C40.7591 60.8109 31.4843 63.4851 26.3404 68.9056L29.2419 71.659ZM53.5756 64.3157C57.5612 64.2113 60.5039 64.0946 62.3798 63.9637L62.1015 59.9734C60.3182 60.0978 57.4493 60.2129 53.4708 60.3171L53.5756 64.3157ZM62.4589 63.9566C64.5856 63.7232 67.5215 62.9563 71.185 61.7357L69.9206 57.9408C66.3157 59.1419 63.7101 59.7953 62.0225 59.9805L62.4589 63.9566ZM71.2106 61.727C75.1385 60.3591 78.3439 58.4619 80.7122 55.9661L77.8107 53.2127C75.9912 55.1302 73.3907 56.7321 69.8951 57.9495L71.2106 61.727ZM80.7122 55.9661C83.9941 52.5077 85.617 48.4873 85.4072 43.9875L81.4115 44.1738C81.5654 47.4746 80.423 50.46 77.8107 53.2127L80.7122 55.9661ZM85.4087 44.0283C85.2859 39.3387 82.8609 34.9784 78.6228 30.9566L75.8694 33.8581C79.6405 37.4367 81.3243 40.8586 81.41 44.133L85.4087 44.0283ZM78.6228 30.9566C74.6985 27.2326 70.5958 24.6361 66.3062 23.2726L65.0945 27.0846C68.6805 28.2245 72.275 30.4472 75.8694 33.8581L78.6228 30.9566ZM66.2829 23.2653C65.4331 23.0065 64.167 22.7411 62.5549 22.4623L61.8733 26.4038C63.4635 26.6788 64.5216 26.9103 65.1178 27.0918L66.2829 23.2653ZM62.5549 22.4623C61.0474 22.2017 59.8246 21.8701 58.8606 21.4865L57.3817 25.2031C58.6727 25.7168 60.1785 26.1108 61.8733 26.4038L62.5549 22.4623ZM58.8606 21.4865C57.9951 21.1421 57.1528 20.6006 56.3356 19.8251L53.5822 22.7266C54.7264 23.8125 55.9923 24.6502 57.3817 25.2031L58.8606 21.4865ZM56.3356 19.8251C54.5569 18.1372 53.4982 16.046 53.1577 13.4629L49.192 13.9856C49.6472 17.4385 51.1112 20.3818 53.5822 22.7266L56.3356 19.8251ZM53.1687 13.5669C52.973 11.0876 53.6816 9.07803 55.2925 7.38046L52.391 4.62704C49.9691 7.17921 48.8997 10.3167 49.1811 13.8816L53.1687 13.5669ZM55.2925 7.38046C57.3158 5.24836 60.3806 4.33058 65.0109 5.16031L65.7164 1.22302C60.2579 0.244868 55.6414 1.20181 52.391 4.62704L55.2925 7.38046ZM64.9876 5.15598C69.8683 6.09048 74.5142 7.90437 78.9332 10.6111L81.0225 7.20013C76.2082 4.25124 71.1114 2.25582 65.7398 1.22735L64.9876 5.15598ZM78.926 10.6067C83.5154 13.4447 87.6341 16.5985 91.2878 20.0657L94.0412 17.1642C90.1761 13.4964 85.8371 10.1773 81.0298 7.20458L78.926 10.6067ZM91.2878 20.0657C99.4203 27.7832 103.615 36.1003 104.148 45.0388L108.141 44.8009C107.536 34.6424 102.744 25.423 94.0412 17.1642L91.2878 20.0657ZM104.149 45.0561C104.752 53.8901 101.649 61.9737 94.6116 69.3891L97.5131 72.1425C105.211 64.0301 108.829 54.883 108.14 44.7836L104.149 45.0561ZM94.6116 69.3891C87.6636 76.7107 77.931 80.8933 65.1847 81.7688L65.4588 85.7594C78.9646 84.8317 89.7256 80.3488 97.5131 72.1425L94.6116 69.3891ZM65.1696 81.7699C62.0245 82.0098 58.7151 82.1755 55.241 82.2665L55.3457 86.2651C58.88 86.1725 62.2562 86.0037 65.4739 85.7583L65.1696 81.7699ZM55.241 82.2665C51.7369 82.3582 49.5866 82.4145 48.7902 82.4354L48.8949 86.434C49.6913 86.4131 51.8416 86.3568 55.3457 86.2651L55.241 82.2665ZM27.8797 99.6952C28.1674 102.886 27.2718 105.488 25.2037 107.667L28.1052 110.42C31.0005 107.369 32.2497 103.619 31.8636 99.336L27.8797 99.6952ZM25.2037 107.667C23.1328 109.849 20.5287 110.929 17.2224 110.878L17.1605 114.877C21.508 114.945 25.2125 113.469 28.1052 110.42L25.2037 107.667ZM17.2224 110.878C13.8975 110.827 11.075 109.675 8.65982 107.383L5.90641 110.284C9.04859 113.266 12.8316 114.811 17.1605 114.877L17.2224 110.878ZM8.65982 107.383C6.24468 105.091 4.9468 102.333 4.72144 99.015L0.73064 99.2861C1.02405 103.606 2.76422 107.303 5.90641 110.284L8.65982 107.383ZM4.72379 99.0557C4.57087 95.8355 5.54252 93.1958 7.63293 90.9929L4.73143 88.2395C1.85834 91.2671 0.525903 94.9836 0.728293 99.2454L4.72379 99.0557ZM7.63293 90.9929C9.72119 88.7924 12.2535 87.7343 15.3717 87.7881L15.4408 83.7887C11.2237 83.7159 7.60667 85.2096 4.73143 88.2395L7.63293 90.9929ZM15.3753 87.7882C18.7001 87.8396 21.5227 88.9913 23.9379 91.2832L26.6913 88.3817C23.5491 85.3999 19.7661 83.8556 15.4371 83.7887L15.3753 87.7882ZM23.9379 91.2832C26.353 93.5751 27.6509 96.3335 27.8762 99.6511L31.867 99.38C31.5736 95.0605 29.8335 91.3635 26.6913 88.3817L23.9379 91.2832Z" fill="#E9984D"/>
</svg>
