<svg width="53" height="70" viewBox="0 0 53 70" fill="none" xmlns="http://www.w3.org/2000/svg">
<path d="M25.0284 47.5905L25.6132 49.5031L25.6132 49.5031L25.0284 47.5905ZM23.0396 49.7632L24.7709 50.7645L24.7888 50.7336L24.8055 50.7021L23.0396 49.7632ZM19.2658 52.5496L19.7021 54.5014L19.7021 54.5014L19.2658 52.5496ZM11.3863 48.36L9.52421 49.0897L9.53256 49.1111L9.5414 49.1322L11.3863 48.36ZM24.2661 35.3068L23.6813 33.3942L23.6692 33.3979L23.6572 33.4017L24.2661 35.3068ZM28.7885 33.8561L29.4557 35.7415L29.4932 35.7283L29.53 35.7136L28.7885 33.8561ZM32.8389 31.5293L33.9552 33.1888L33.9664 33.1813L33.9775 33.1736L32.8389 31.5293ZM37.2908 21.3929L35.3782 21.9776L35.3842 21.9971L35.3905 22.0165L37.2908 21.3929ZM25.2512 14.0535L25.3256 12.0549L25.3135 12.0544L25.3013 12.0541L25.2512 14.0535ZM23.3139 14.1696L23.5122 16.1598L23.5122 16.1598L23.3139 14.1696ZM15.9651 10.158L14.0858 10.8424L14.1037 10.8916L14.1242 10.9397L15.9651 10.158ZM21.8759 2.5686L21.7134 0.575214L21.7016 0.576178L21.6898 0.577283L21.8759 2.5686ZM30.3735 3.43997L30.9326 1.51967L30.9244 1.51733L30.3735 3.43997ZM49.3392 18.5256L47.4471 19.1738L47.45 19.182L47.4528 19.1901L49.3392 18.5256ZM33.5755 44.8414L32.9103 42.9553L32.9031 42.9578L32.896 42.9603L33.5755 44.8414ZM28.3878 46.5635L28.9726 48.4761L28.9726 48.4761L28.3878 46.5635ZM17.2706 58.2615L15.384 58.9254L15.3914 58.9462L15.3992 58.9669L17.2706 58.2615ZM12.5628 67.1157L13.0674 69.051L13.0674 69.051L12.5628 67.1157ZM2.97749 62.0191L1.07775 62.6444L1.08412 62.6638L1.09088 62.683L2.97749 62.0191ZM7.68535 53.1649L8.18646 55.1012L8.18996 55.1002L7.68535 53.1649ZM24.4437 45.6779C22.9526 46.1338 21.9637 47.5266 21.2738 48.8242L24.8055 50.7021C25.0888 50.1694 25.3288 49.8329 25.5088 49.6363C25.6939 49.434 25.7363 49.4655 25.6132 49.5031L24.4437 45.6779ZM21.3084 48.7618C20.7237 49.7726 19.9315 50.3514 18.8294 50.5978L19.7021 54.5014C21.9111 54.0076 23.6348 52.7288 24.7709 50.7645L21.3084 48.7618ZM18.8294 50.5978C17.6274 50.8665 16.5577 50.7201 15.5282 50.1727L13.6503 53.7045C15.5451 54.712 17.5931 54.9729 19.7021 54.5014L18.8294 50.5978ZM15.5282 50.1727C14.4963 49.624 13.7363 48.7945 13.2313 47.5879L9.5414 49.1322C10.3826 51.142 11.7578 52.6982 13.6503 53.7045L15.5282 50.1727ZM13.2485 47.6303C12.8905 46.717 12.919 45.6224 13.6923 44.1679L10.1605 42.29C8.97588 44.518 8.64424 46.8442 9.52421 49.0897L13.2485 47.6303ZM13.6923 44.1679C15.0037 41.7016 18.4499 39.2655 24.875 37.2118L23.6572 33.4017C17.0272 35.5208 12.2469 38.3662 10.1605 42.29L13.6923 44.1679ZM24.8508 37.2194C26.928 36.5843 28.4707 36.0901 29.4557 35.7415L28.1212 31.9707C27.2237 32.2883 25.7516 32.7612 23.6813 33.3942L24.8508 37.2194ZM29.53 35.7136C30.7052 35.2444 32.1993 34.37 33.9552 33.1888L31.7227 29.8699C30.018 31.0165 28.8118 31.6933 28.0469 31.9987L29.53 35.7136ZM33.9775 33.1736C35.9248 31.8253 37.445 30.2621 38.4096 28.4479L34.8778 26.5701C34.2875 27.6802 33.2713 28.7973 31.7004 29.8851L33.9775 33.1736ZM38.4096 28.4479C39.7322 25.9606 40.041 23.359 39.1911 20.7692L35.3905 22.0165C35.8662 23.4659 35.7437 24.9417 34.8778 26.5701L38.4096 28.4479ZM39.2034 20.8081C38.3625 18.0576 36.2362 15.9621 33.2984 14.4L31.4206 17.9318C33.7899 19.1916 34.9512 20.5808 35.3782 21.9776L39.2034 20.8081ZM33.2984 14.4C30.6066 12.9687 27.9423 12.1524 25.3256 12.0549L25.1767 16.0521C27.0557 16.1221 29.1303 16.7141 31.4206 17.9318L33.2984 14.4ZM25.3013 12.0541C24.7574 12.0405 24.0069 12.0907 23.1156 12.1795L23.5122 16.1598C24.3813 16.0732 24.9223 16.0459 25.2011 16.0529L25.3013 12.0541ZM23.1156 12.1795C22.33 12.2577 21.7062 12.2582 21.2245 12.2059L20.7926 16.1825C21.6243 16.2728 22.5374 16.2569 23.5122 16.1598L23.1156 12.1795ZM21.2245 12.2059C20.848 12.165 20.4384 12.0427 19.9876 11.803L18.1097 15.3348C18.9586 15.7862 19.8556 16.0807 20.7926 16.1825L21.2245 12.2059ZM19.9876 11.803C19.0009 11.2784 18.2822 10.4977 17.806 9.37621L14.1242 10.9397C14.9434 12.8688 16.2804 14.3621 18.1097 15.3348L19.9876 11.803ZM17.8443 9.47351C17.4659 8.43446 17.5347 7.54679 18.0068 6.65891L14.475 4.78102C13.4498 6.70915 13.3347 8.78015 14.0858 10.8424L17.8443 9.47351ZM18.0068 6.65891C18.5673 5.60469 19.7033 4.78043 22.0621 4.55992L21.6898 0.577283C18.4931 0.876115 15.8724 2.15276 14.475 4.78102L18.0068 6.65891ZM22.0385 4.56199C24.6213 4.35141 27.2123 4.61466 29.8226 5.3626L30.9244 1.51733C27.8684 0.641695 24.7943 0.324031 21.7134 0.575214L22.0385 4.56199ZM29.8145 5.36024C32.5788 6.16502 35.1398 7.19742 37.5022 8.45354L39.3801 4.92175C36.7604 3.5288 33.9429 2.39608 30.9326 1.51969L29.8145 5.36024ZM37.5022 8.45354C42.7329 11.2348 45.9577 14.8257 47.4471 19.1738L51.2313 17.8775C49.3457 12.3732 45.3051 8.07214 39.3801 4.92175L37.5022 8.45354ZM47.4528 19.1901C48.9584 23.464 48.5545 27.8912 46.0446 32.6117L49.5763 34.4896C52.5373 28.9208 53.1526 23.3313 51.2256 17.8611L47.4528 19.1901ZM46.0446 32.6117C43.5954 37.2179 39.3058 40.6994 32.9103 42.9553L34.2408 46.7275C41.3543 44.2183 46.5546 40.1726 49.5763 34.4896L46.0446 32.6117ZM32.896 42.9603C31.2966 43.5381 29.5992 44.1017 27.8031 44.6508L28.9726 48.4761C30.8262 47.9093 32.5873 47.3249 34.2551 46.7224L32.896 42.9603ZM27.8031 44.6508C25.9782 45.2088 24.8584 45.5511 24.4437 45.6779L25.6132 49.5031C26.0279 49.3763 27.1477 49.034 28.9726 48.4761L27.8031 44.6508ZM15.3992 58.9669C15.9262 60.3653 15.8425 61.5865 15.2032 62.7889L18.735 64.6667C19.9385 62.4033 20.0558 59.9803 19.1421 57.5561L15.3992 58.9669ZM15.2032 62.7889C14.562 63.9947 13.5705 64.7861 12.0582 65.1804L13.0674 69.051C15.5873 68.394 17.5333 66.9267 18.735 64.6667L15.2032 62.7889ZM12.0582 65.1804C10.5279 65.5794 9.11442 65.4136 7.71567 64.6699L5.83778 68.2016C8.12151 69.4159 10.5654 69.7034 13.0674 69.051L12.0582 65.1804ZM7.71567 64.6699C6.31692 63.9261 5.38902 62.847 4.8641 61.3553L1.09088 62.683C1.94913 65.1221 3.55406 66.9874 5.83778 68.2016L7.71567 64.6699ZM4.87723 61.3938C4.40282 59.9525 4.51485 58.6847 5.16936 57.4538L1.63757 55.5759C0.449255 57.8108 0.277297 60.2125 1.07775 62.6444L4.87723 61.3938ZM5.16936 57.4538C5.82241 56.2256 6.78526 55.4638 8.18646 55.1011L7.18424 51.2287C4.7191 51.8667 2.82735 53.3382 1.63757 55.5759L5.16936 57.4538ZM8.18996 55.1002C9.72021 54.7012 11.1337 54.8671 12.5324 55.6108L14.4103 52.079C12.1266 50.8647 9.68273 50.5773 7.18074 51.2297L8.18996 55.1002ZM12.5324 55.6108C13.9312 56.3545 14.8591 57.4336 15.384 58.9254L19.1572 57.5977C18.299 55.1586 16.6941 53.2933 14.4103 52.079L12.5324 55.6108Z" fill="#E9984D"/>
</svg>
