<svg width="323" height="315" fill="none" xmlns="http://www.w3.org/2000/svg"><path d="M122.566 43.179c1.3-13.5 19.115-17.45 25.998-5.764l36.001 61.118a16 16 0 0017.249 7.5l69.252-15.353c13.24-2.935 22.502 12.788 13.515 22.945l-47.001 53.126a16 16 0 00-1.803 18.722l36.001 61.118c6.883 11.685-5.208 25.352-17.645 19.944l-65.05-28.284a15.999 15.999 0 00-18.363 4.071l-47.001 53.125c-8.987 10.158-25.721 2.881-24.421-10.618l6.798-70.606a15.999 15.999 0 00-9.546-16.207L31.5 169.732c-12.437-5.408-10.688-23.572 2.553-26.507l69.251-15.353a15.999 15.999 0 0012.463-14.087l6.799-70.606z" stroke="#fff" stroke-width="2"/></svg>