<svg width="340" height="333" fill="none" xmlns="http://www.w3.org/2000/svg"><path d="M199.183 53.277c8.535-10.54 25.57-4 24.861 9.543l-3.568 68.074a16 16 0 0010.244 15.775l63.64 24.429c12.662 4.86 11.707 23.083-1.393 26.593l-65.845 17.643a16 16 0 00-11.837 14.618l-3.568 68.074c-.71 13.544-18.336 18.266-25.722 6.892l-37.127-57.17a16 16 0 00-17.56-6.741l-65.845 17.644c-13.1 3.51-23.038-11.794-14.503-22.334l42.9-52.976a16.001 16.001 0 00.984-18.784l-37.127-57.17c-7.387-11.374 4.097-25.555 16.758-20.695l63.64 24.429a16 16 0 0018.168-4.868l42.9-52.976z" stroke="#fff" stroke-width="2"/></svg>