<svg width="263" height="258" fill="none" xmlns="http://www.w3.org/2000/svg"><path d="M150.742 42.89c8.535-10.54 25.571-4.001 24.861 9.543l-2.36 45.019a16.002 16.002 0 0010.245 15.775l42.087 16.155c12.661 4.86 11.706 23.083-1.394 26.593l-43.545 11.668a16 16 0 00-11.837 14.618l-2.36 45.019c-.709 13.543-18.335 18.266-25.722 6.892l-24.553-37.808a16 16 0 00-17.56-6.741L55.06 201.291c-13.1 3.51-23.039-11.793-14.504-22.333l28.37-35.035a16 16 0 00.985-18.783L45.358 87.332c-7.387-11.375 4.097-25.556 16.758-20.695l42.087 16.155a16.001 16.001 0 0018.169-4.868l28.37-35.035z" stroke="#fff" stroke-width="2"/></svg>