<svg width="54" height="53" fill="none" xmlns="http://www.w3.org/2000/svg"><path d="M30.592 9.023c1.79-2.29 5.464-.952 5.362 1.952l-.324 9.288a3 3 0 001.972 2.924l8.733 3.179c2.731.994 2.595 4.901-.199 5.702l-8.934 2.562a3 3 0 00-2.171 2.78l-.324 9.287c-.102 2.905-3.86 3.982-5.486 1.573l-5.197-7.705a3 3 0 00-3.314-1.206l-8.933 2.562c-2.794.8-4.98-2.44-3.191-4.73l5.721-7.325a3 3 0 00.124-3.524l-5.197-7.705c-1.626-2.41.782-5.49 3.513-4.497l8.733 3.179a3 3 0 003.39-.972l5.722-7.324z" fill="#fff"/></svg>